{"glyphs":{"0":{"ha":914,"x_min":76,"x_max":838,"o":"m 457 999 q 735 899 633 999 q 838 628 838 799 l 838 353 q 735 80 838 179 q 457 -19 632 -19 q 180 80 283 -19 q 76 353 76 179 l 76 628 q 179 899 76 799 q 457 999 282 999 m 457 175 q 576 225 536 175 q 617 354 617 275 l 617 625 q 576 754 617 704 q 457 804 536 804 q 338 754 378 804 q 297 625 297 704 l 297 354 q 338 225 297 275 q 457 175 378 175 z "},"1":{"ha":603,"x_min":36,"x_max":499,"o":"m 276 0 l 276 622 l 36 622 l 36 806 l 276 806 l 276 978 l 499 978 l 499 0 l 276 0 z "},"2":{"ha":836,"x_min":50,"x_max":761,"o":"m 56 0 l 56 167 q 102 326 56 261 q 253 450 149 392 l 422 546 q 508 616 488 582 q 529 685 529 650 l 529 699 q 499 784 529 749 q 401 819 468 819 q 304 788 342 819 q 265 685 267 756 l 50 685 q 153 915 56 832 q 401 999 251 999 q 549 974 483 999 q 658 909 614 950 q 726 813 703 868 q 750 697 750 758 q 700 531 750 606 q 533 388 650 456 l 336 272 q 287 232 300 251 q 274 186 274 213 l 761 186 l 761 0 l 56 0 z "},"3":{"ha":847,"x_min":50,"x_max":788,"o":"m 563 282 l 563 296 q 524 388 563 351 q 413 424 485 424 l 261 424 l 261 579 l 497 794 l 94 794 l 94 978 l 746 978 l 746 794 l 510 579 l 510 578 q 712 484 636 560 q 788 283 788 408 q 688 66 788 151 q 413 -19 589 -19 q 261 3 328 -19 q 149 67 194 26 q 78 162 103 107 q 50 279 53 217 l 269 279 q 306 194 274 232 q 417 156 338 156 q 527 193 492 156 q 563 282 563 231 z "},"4":{"ha":878,"x_min":33,"x_max":850,"o":"m 33 203 l 33 379 l 443 978 l 704 978 l 704 386 l 850 386 l 850 203 l 704 203 l 704 0 l 485 0 l 485 203 l 33 203 m 244 388 l 244 386 l 488 386 l 488 744 l 486 744 l 244 388 z "},"5":{"ha":842,"x_min":50,"x_max":792,"o":"m 90 406 l 90 978 l 738 978 l 738 794 l 282 794 l 282 564 l 283 564 q 375 648 321 626 q 489 669 429 669 q 706 578 621 669 q 792 333 792 488 q 765 192 792 257 q 690 81 739 128 q 572 7 642 33 q 414 -19 501 -19 q 276 1 340 -19 q 165 61 213 22 q 88 155 118 100 q 50 278 57 210 l 275 278 q 317 196 281 229 q 418 163 354 163 q 528 205 489 163 q 568 324 568 247 l 568 338 q 531 454 568 414 q 426 494 493 494 q 339 472 375 494 q 282 406 303 449 l 90 406 z "},"6":{"ha":865,"x_min":53,"x_max":815,"o":"m 815 319 q 787 183 815 246 q 708 76 758 121 q 588 6 658 31 q 433 -19 517 -19 q 280 7 350 -19 q 160 79 210 33 q 81 188 110 125 q 53 325 53 251 q 80 492 53 421 q 164 643 107 563 l 399 978 l 653 978 l 407 643 l 408 643 q 446 653 425 649 q 496 658 467 658 q 619 634 561 658 q 721 565 678 610 q 790 458 764 521 q 815 319 815 396 m 278 333 l 278 317 q 323 199 278 243 q 438 154 368 154 q 549 199 504 154 q 593 317 593 243 l 593 333 q 550 449 593 406 q 438 493 507 493 q 324 451 369 493 q 278 333 278 408 z "},"7":{"ha":764,"x_min":28,"x_max":736,"o":"m 86 0 l 500 790 l 28 790 l 28 978 l 736 978 l 736 803 l 322 0 l 86 0 z "},"8":{"ha":869,"x_min":56,"x_max":814,"o":"m 613 515 l 613 514 q 760 432 706 497 q 814 272 814 367 q 789 160 814 213 q 716 67 764 107 q 597 4 668 28 q 435 -19 526 -19 q 272 4 343 -19 q 153 67 201 28 q 81 160 106 107 q 56 272 56 213 q 110 432 56 367 q 257 514 164 497 l 257 515 q 129 588 176 531 q 82 729 82 646 q 106 835 82 786 q 176 921 131 885 q 287 978 221 957 q 435 999 353 999 q 583 978 517 999 q 694 921 649 957 q 763 835 739 885 q 788 729 788 786 q 740 588 788 646 q 613 515 693 531 m 297 718 l 297 701 q 336 623 297 654 q 435 592 375 592 q 533 623 494 592 q 572 701 572 654 l 572 718 q 535 795 572 765 q 435 825 499 825 q 334 795 371 825 q 297 718 297 765 m 275 300 l 275 283 q 317 190 275 228 q 435 151 360 151 q 552 190 510 151 q 594 283 594 228 l 594 300 q 552 392 594 353 q 435 432 510 432 q 317 392 360 432 q 275 300 275 353 z "},"9":{"ha":865,"x_min":50,"x_max":813,"o":"m 50 658 q 78 794 50 732 q 157 902 107 857 q 278 972 207 947 q 432 997 349 997 q 585 971 515 997 q 706 899 656 944 q 784 790 756 853 q 813 653 813 726 q 785 486 813 557 q 701 335 758 415 l 467 0 l 213 0 l 458 335 l 457 335 q 419 324 440 329 q 369 319 399 319 q 246 344 304 319 q 144 413 188 368 q 76 519 101 457 q 50 658 50 582 m 588 644 l 588 661 q 542 779 588 735 q 428 824 497 824 q 317 779 361 824 q 272 661 272 735 l 272 644 q 315 528 272 572 q 428 485 358 485 q 542 527 496 485 q 588 644 588 569 z "},"Ɛ":{"ha":926,"x_min":103,"x_max":824,"o":"m 103 978 l 824 978 l 824 0 l 103 0 l 103 978 m 707 111 l 707 867 l 219 867 l 219 111 l 707 111 z "},"Ƒ":{"ha":926,"x_min":103,"x_max":824,"o":"m 103 978 l 824 978 l 824 0 l 103 0 l 103 978 m 707 111 l 707 867 l 219 867 l 219 111 l 707 111 z "},"Ǥ":{"ha":926,"x_min":103,"x_max":824,"o":"m 103 978 l 824 978 l 824 0 l 103 0 l 103 978 m 707 111 l 707 867 l 219 867 l 219 111 l 707 111 z "},"ǥ":{"ha":926,"x_min":103,"x_max":824,"o":"m 103 978 l 824 978 l 824 0 l 103 0 l 103 978 m 707 111 l 707 867 l 219 867 l 219 111 l 707 111 z "},"Ǩ":{"ha":926,"x_min":103,"x_max":824,"o":"m 103 978 l 824 978 l 824 0 l 103 0 l 103 978 m 707 111 l 707 867 l 219 867 l 219 111 l 707 111 z "},"ǩ":{"ha":926,"x_min":103,"x_max":824,"o":"m 103 978 l 824 978 l 824 0 l 103 0 l 103 978 m 707 111 l 707 867 l 219 867 l 219 111 l 707 111 z "},"ȴ":{"ha":926,"x_min":103,"x_max":824,"o":"m 103 978 l 824 978 l 824 0 l 103 0 l 103 978 m 707 111 l 707 867 l 219 867 l 219 111 l 707 111 z "},"ȵ":{"ha":926,"x_min":103,"x_max":824,"o":"m 103 978 l 824 978 l 824 0 l 103 0 l 103 978 m 707 111 l 707 867 l 219 867 l 219 111 l 707 111 z "},"ȶ":{"ha":926,"x_min":103,"x_max":824,"o":"m 103 978 l 824 978 l 824 0 l 103 0 l 103 978 m 707 111 l 707 867 l 219 867 l 219 111 l 707 111 z "},"ẟ":{"ha":926,"x_min":103,"x_max":824,"o":"m 103 978 l 824 978 l 824 0 l 103 0 l 103 978 m 707 111 l 707 867 l 219 867 l 219 111 l 707 111 z "},"Ẻ":{"ha":926,"x_min":103,"x_max":824,"o":"m 103 978 l 824 978 l 824 0 l 103 0 l 103 978 m 707 111 l 707 867 l 219 867 l 219 111 l 707 111 z "},"ẻ":{"ha":926,"x_min":103,"x_max":824,"o":"m 103 978 l 824 978 l 824 0 l 103 0 l 103 978 m 707 111 l 707 867 l 219 867 l 219 111 l 707 111 z "},"‖":{"ha":926,"x_min":103,"x_max":824,"o":"m 103 978 l 824 978 l 824 0 l 103 0 l 103 978 m 707 111 l 707 867 l 219 867 l 219 111 l 707 111 z "},"‗":{"ha":926,"x_min":103,"x_max":824,"o":"m 103 978 l 824 978 l 824 0 l 103 0 l 103 978 m 707 111 l 707 867 l 219 867 l 219 111 l 707 111 z "},"‛":{"ha":926,"x_min":103,"x_max":824,"o":"m 103 978 l 824 978 l 824 0 l 103 0 l 103 978 m 707 111 l 707 867 l 219 867 l 219 111 l 707 111 z "},"‟":{"ha":926,"x_min":103,"x_max":824,"o":"m 103 978 l 824 978 l 824 0 l 103 0 l 103 978 m 707 111 l 707 867 l 219 867 l 219 111 l 707 111 z "},"‣":{"ha":926,"x_min":103,"x_max":824,"o":"m 103 978 l 824 978 l 824 0 l 103 0 l 103 978 m 707 111 l 707 867 l 219 867 l 219 111 l 707 111 z "},"․":{"ha":926,"x_min":103,"x_max":824,"o":"m 103 978 l 824 978 l 824 0 l 103 0 l 103 978 m 707 111 l 707 867 l 219 867 l 219 111 l 707 111 z "},"‥":{"ha":926,"x_min":103,"x_max":824,"o":"m 103 978 l 824 978 l 824 0 l 103 0 l 103 978 m 707 111 l 707 867 l 219 867 l 219 111 l 707 111 z "},"⁃":{"ha":926,"x_min":103,"x_max":824,"o":"m 103 978 l 824 978 l 824 0 l 103 0 l 103 978 m 707 111 l 707 867 l 219 867 l 219 111 l 707 111 z "},"₧":{"ha":926,"x_min":103,"x_max":824,"o":"m 103 978 l 824 978 l 824 0 l 103 0 l 103 978 m 707 111 l 707 867 l 219 867 l 219 111 l 707 111 z "},"₨":{"ha":926,"x_min":103,"x_max":824,"o":"m 103 978 l 824 978 l 824 0 l 103 0 l 103 978 m 707 111 l 707 867 l 219 867 l 219 111 l 707 111 z "},"₫":{"ha":926,"x_min":103,"x_max":824,"o":"m 103 978 l 824 978 l 824 0 l 103 0 l 103 978 m 707 111 l 707 867 l 219 867 l 219 111 l 707 111 z "},"₵":{"ha":926,"x_min":103,"x_max":824,"o":"m 103 978 l 824 978 l 824 0 l 103 0 l 103 978 m 707 111 l 707 867 l 219 867 l 219 111 l 707 111 z "},"₶":{"ha":926,"x_min":103,"x_max":824,"o":"m 103 978 l 824 978 l 824 0 l 103 0 l 103 978 m 707 111 l 707 867 l 219 867 l 219 111 l 707 111 z "},"₷":{"ha":926,"x_min":103,"x_max":824,"o":"m 103 978 l 824 978 l 824 0 l 103 0 l 103 978 m 707 111 l 707 867 l 219 867 l 219 111 l 707 111 z "},"₻":{"ha":926,"x_min":103,"x_max":824,"o":"m 103 978 l 824 978 l 824 0 l 103 0 l 103 978 m 707 111 l 707 867 l 219 867 l 219 111 l 707 111 z "},"₼":{"ha":926,"x_min":103,"x_max":824,"o":"m 103 978 l 824 978 l 824 0 l 103 0 l 103 978 m 707 111 l 707 867 l 219 867 l 219 111 l 707 111 z "},"₾":{"ha":926,"x_min":103,"x_max":824,"o":"m 103 978 l 824 978 l 824 0 l 103 0 l 103 978 m 707 111 l 707 867 l 219 867 l 219 111 l 707 111 z "},"↔":{"ha":926,"x_min":103,"x_max":824,"o":"m 103 978 l 824 978 l 824 0 l 103 0 l 103 978 m 707 111 l 707 867 l 219 867 l 219 111 l 707 111 z "},"↕":{"ha":926,"x_min":103,"x_max":824,"o":"m 103 978 l 824 978 l 824 0 l 103 0 l 103 978 m 707 111 l 707 867 l 219 867 l 219 111 l 707 111 z "},"≡":{"ha":926,"x_min":103,"x_max":824,"o":"m 103 978 l 824 978 l 824 0 l 103 0 l 103 978 m 707 111 l 707 867 l 219 867 l 219 111 l 707 111 z "},"≢":{"ha":926,"x_min":103,"x_max":824,"o":"m 103 978 l 824 978 l 824 0 l 103 0 l 103 978 m 707 111 l 707 867 l 219 867 l 219 111 l 707 111 z "},"≣":{"ha":926,"x_min":103,"x_max":824,"o":"m 103 978 l 824 978 l 824 0 l 103 0 l 103 978 m 707 111 l 707 867 l 219 867 l 219 111 l 707 111 z "},"▶":{"ha":926,"x_min":103,"x_max":824,"o":"m 103 978 l 824 978 l 824 0 l 103 0 l 103 978 m 707 111 l 707 867 l 219 867 l 219 111 l 707 111 z "},"▷":{"ha":926,"x_min":103,"x_max":824,"o":"m 103 978 l 824 978 l 824 0 l 103 0 l 103 978 m 707 111 l 707 867 l 219 867 l 219 111 l 707 111 z "},"◀":{"ha":926,"x_min":103,"x_max":824,"o":"m 103 978 l 824 978 l 824 0 l 103 0 l 103 978 m 707 111 l 707 867 l 219 867 l 219 111 l 707 111 z "},"◁":{"ha":926,"x_min":103,"x_max":824,"o":"m 103 978 l 824 978 l 824 0 l 103 0 l 103 978 m 707 111 l 707 867 l 219 867 l 219 111 l 707 111 z "}," ":{"ha":283,"x_min":0,"x_max":0,"o":""},"!":{"ha":414,"x_min":63,"x_max":351,"o":"m 317 978 l 317 663 l 265 374 l 140 374 l 89 663 l 89 978 l 317 978 m 207 -14 q 105 28 147 -14 q 63 131 63 71 q 105 233 63 190 q 207 275 147 275 q 309 233 267 275 q 351 131 351 190 q 309 28 351 71 q 207 -14 267 -14 z "},"\"":{"ha":653,"x_min":75,"x_max":578,"o":"m 286 978 l 261 544 l 101 544 l 75 978 l 286 978 m 578 978 l 553 544 l 393 544 l 367 978 l 578 978 z "},"#":{"ha":1092,"x_min":47,"x_max":1044,"o":"m 143 0 l 207 238 l 47 238 l 47 404 l 251 404 l 297 574 l 114 574 l 114 740 l 342 740 l 406 978 l 594 978 l 531 740 l 703 740 l 767 978 l 956 978 l 892 740 l 1044 740 l 1044 574 l 847 574 l 801 404 l 978 404 l 978 238 l 757 238 l 693 0 l 504 0 l 568 238 l 396 238 l 332 0 l 143 0 m 440 404 l 613 404 l 658 574 l 486 574 l 440 404 z "},"$":{"ha":864,"x_min":36,"x_max":806,"o":"m 344 -179 l 344 7 q 120 106 204 25 q 36 308 36 188 l 253 308 q 300 201 253 238 q 428 165 347 165 q 549 200 510 165 q 589 285 589 235 q 553 353 589 336 q 447 383 518 371 l 344 401 q 137 488 218 424 q 56 686 56 551 q 131 872 56 792 q 344 972 207 953 l 344 1158 l 514 1158 l 514 971 q 719 869 647 949 q 793 690 792 790 l 576 690 q 540 778 576 743 q 421 814 503 814 q 308 780 342 814 q 274 704 274 746 q 309 631 274 651 q 410 600 344 610 l 508 585 q 624 557 569 575 q 718 506 678 539 q 782 424 758 474 q 806 303 806 374 q 726 108 806 186 q 514 8 647 29 l 514 -179 l 344 -179 z "},"%":{"ha":1361,"x_min":56,"x_max":1306,"o":"m 328 440 q 129 516 203 440 q 56 718 56 592 q 129 922 56 846 q 328 997 203 997 q 526 922 453 997 q 600 718 600 846 q 526 516 600 592 q 328 440 453 440 m 240 0 l 585 486 l 929 978 l 1124 978 l 776 486 l 435 0 l 240 0 m 328 594 q 404 628 376 594 q 432 718 432 661 q 404 810 432 776 q 328 843 376 843 q 251 810 279 843 q 224 718 224 776 q 251 628 224 661 q 328 594 279 594 m 1035 -22 q 836 53 910 -22 q 763 256 763 129 q 836 459 763 383 q 1035 535 910 535 q 1232 459 1158 535 q 1306 256 1306 383 q 1232 53 1306 129 q 1035 -22 1158 -22 m 1035 132 q 1110 165 1082 132 q 1138 256 1138 199 q 1110 347 1138 314 q 1035 381 1082 381 q 958 347 986 381 q 931 256 931 314 q 958 165 931 199 q 1035 132 986 132 z "},"&":{"ha":1090,"x_min":43,"x_max":1063,"o":"m 867 214 q 906 183 888 193 q 951 172 925 172 l 1063 172 l 1063 0 l 886 0 q 815 15 843 0 q 763 54 788 31 l 693 121 q 550 17 631 56 q 367 -21 469 -21 q 238 -1 297 -21 q 136 53 179 18 q 68 139 93 89 q 43 250 43 189 q 94 401 43 329 q 261 539 144 474 q 182 647 210 593 q 154 761 154 700 q 233 934 154 865 q 447 1003 311 1003 q 571 985 517 1003 q 663 935 625 967 q 719 863 700 904 q 739 774 739 821 q 697 633 739 689 q 557 517 654 576 l 675 400 l 822 589 l 1061 589 l 811 268 l 867 214 m 357 760 q 374 707 357 735 q 444 625 390 679 q 517 685 492 656 q 542 754 542 715 q 516 820 542 793 q 447 847 490 847 q 382 823 407 847 q 357 760 357 799 m 261 274 q 296 189 261 222 q 385 156 331 156 q 469 176 428 156 q 558 251 511 197 l 378 426 q 292 356 322 390 q 261 274 261 321 z "},"'":{"ha":358,"x_min":74,"x_max":285,"o":"m 285 978 l 260 544 l 100 544 l 74 978 l 285 978 z "},"(":{"ha":475,"x_min":56,"x_max":433,"o":"m 433 1028 q 381 923 410 983 q 326 787 351 863 q 282 617 300 711 q 264 408 264 522 q 282 201 264 296 q 326 31 300 107 q 381 -107 351 -46 q 433 -214 410 -168 l 224 -214 q 171 -106 200 -168 q 116 33 142 -44 q 73 204 90 110 q 56 408 56 299 q 73 613 56 519 q 116 783 90 707 q 171 921 142 860 q 224 1028 200 982 l 433 1028 z "},")":{"ha":475,"x_min":42,"x_max":419,"o":"m 42 -214 q 94 -109 65 -169 q 149 27 124 -49 q 193 197 175 103 q 211 406 211 292 q 193 613 211 518 q 149 783 175 707 q 94 921 124 860 q 42 1028 65 982 l 251 1028 q 304 920 275 982 q 359 781 333 858 q 402 610 385 704 q 419 406 419 515 q 402 201 419 294 q 359 31 385 107 q 304 -107 333 -46 q 251 -214 275 -168 l 42 -214 z "},"*":{"ha":689,"x_min":90,"x_max":599,"o":"m 406 464 l 282 464 l 285 619 l 153 539 l 90 646 l 228 721 l 90 796 l 153 904 l 285 822 l 282 978 l 406 978 l 403 822 l 536 904 l 599 796 l 461 721 l 599 646 l 536 539 l 403 621 l 406 464 z "},"+":{"ha":911,"x_min":69,"x_max":842,"o":"m 69 354 l 69 535 l 365 535 l 365 813 l 546 813 l 546 535 l 842 535 l 842 354 l 546 354 l 546 76 l 365 76 l 365 354 l 69 354 z "},",":{"ha":408,"x_min":36,"x_max":344,"o":"m 224 -201 l 36 -201 l 125 232 l 344 232 l 224 -201 z "},"-":{"ha":583,"x_min":74,"x_max":510,"o":"m 74 482 l 510 482 l 510 310 l 74 310 l 74 482 z "},".":{"ha":414,"x_min":63,"x_max":351,"o":"m 207 -14 q 105 28 147 -14 q 63 131 63 71 q 105 233 63 190 q 207 275 147 275 q 309 233 267 275 q 351 131 351 190 q 309 28 351 71 q 207 -14 267 -14 z "},"/":{"ha":742,"x_min":25,"x_max":717,"o":"m 717 1117 l 240 -139 l 25 -139 l 501 1117 l 717 1117 z "},":":{"ha":428,"x_min":63,"x_max":351,"o":"m 207 -14 q 105 28 147 -14 q 63 131 63 71 q 105 233 63 190 q 207 275 147 275 q 309 233 267 275 q 351 131 351 190 q 309 28 351 71 q 207 -14 267 -14 m 207 435 q 105 477 147 435 q 63 579 63 519 q 105 681 63 639 q 207 724 147 724 q 309 681 267 724 q 351 579 351 639 q 309 477 351 519 q 207 435 267 435 z "},";":{"ha":414,"x_min":36,"x_max":351,"o":"m 224 -201 l 36 -201 l 125 232 l 344 232 l 224 -201 m 207 435 q 105 477 147 435 q 63 579 63 519 q 105 681 63 639 q 207 724 147 724 q 309 681 267 724 q 351 579 351 639 q 309 477 351 519 q 207 435 267 435 z "},"<":{"ha":911,"x_min":56,"x_max":800,"o":"m 800 53 l 56 383 l 56 561 l 800 894 l 800 693 l 269 475 l 800 254 l 800 53 z "},"=":{"ha":911,"x_min":69,"x_max":842,"o":"m 69 535 l 69 715 l 842 715 l 842 535 l 69 535 m 69 174 l 69 354 l 842 354 l 842 174 l 69 174 z "},">":{"ha":911,"x_min":111,"x_max":856,"o":"m 111 894 l 856 564 l 856 386 l 111 53 l 111 254 l 642 472 l 111 693 l 111 894 z "},"?":{"ha":786,"x_min":36,"x_max":722,"o":"m 454 344 l 260 344 q 296 491 258 439 q 378 577 333 543 q 460 641 422 611 q 499 719 499 671 q 465 795 499 771 q 382 819 432 819 q 290 788 324 819 q 253 697 256 757 l 36 697 q 134 915 38 832 q 383 999 231 999 q 526 977 463 999 q 632 919 589 956 q 699 833 675 883 q 722 724 722 782 q 681 591 722 639 q 588 509 639 543 q 496 440 538 475 q 454 344 454 404 m 358 -12 q 266 26 304 -12 q 228 118 228 64 q 266 210 228 172 q 358 249 304 249 q 450 210 411 249 q 489 118 489 172 q 450 26 489 64 q 358 -12 411 -12 z "},"@":{"ha":1278,"x_min":50,"x_max":1228,"o":"m 896 -194 q 784 -228 844 -217 q 651 -240 724 -240 q 411 -197 522 -240 q 220 -78 300 -154 q 95 106 140 -1 q 50 340 50 214 q 94 572 50 463 q 219 761 139 681 q 413 889 299 842 q 664 936 526 936 q 890 896 786 936 q 1069 785 994 856 q 1186 615 1144 714 q 1228 399 1228 515 q 1151 142 1228 233 q 958 51 1075 51 q 840 83 888 51 q 778 168 793 115 l 776 168 q 703 80 754 113 q 578 47 653 47 q 423 94 482 47 q 364 222 364 142 q 427 350 364 306 q 603 404 490 394 l 665 410 q 719 428 703 413 q 735 465 735 443 q 716 510 735 492 q 651 528 697 528 q 581 510 604 528 q 557 461 558 492 l 382 461 q 463 601 392 547 q 654 654 533 654 q 753 643 706 654 q 835 606 800 632 q 892 538 871 581 q 914 435 914 496 l 914 242 q 930 192 914 208 q 971 175 946 175 q 1017 193 997 175 q 1051 241 1038 211 q 1073 311 1065 271 q 1081 394 1081 351 q 1049 561 1081 486 q 963 689 1018 636 q 830 770 907 742 q 663 799 753 799 q 478 764 563 799 q 333 669 393 729 q 238 524 272 608 q 204 340 204 439 q 239 158 204 240 q 334 19 274 76 q 478 -71 394 -39 q 656 -103 561 -103 q 790 -90 732 -103 q 896 -57 847 -78 l 896 -194 m 736 297 l 736 322 q 712 310 728 317 q 675 301 696 303 l 631 296 q 564 274 588 290 q 540 233 540 258 l 540 231 q 560 192 540 208 q 617 176 579 176 q 705 210 674 176 q 736 297 736 244 z "},"A":{"ha":986,"x_min":0,"x_max":986,"o":"m 746 0 l 685 176 l 292 176 l 232 0 l 0 0 l 363 978 l 624 978 l 986 0 l 746 0 m 485 742 l 358 371 l 617 371 l 488 742 l 485 742 z "},"B":{"ha":978,"x_min":106,"x_max":922,"o":"m 106 0 l 106 978 l 581 978 q 806 907 718 978 q 894 719 894 836 q 853 588 894 640 q 744 513 813 535 l 744 511 q 872 431 822 489 q 922 282 922 374 q 898 163 922 215 q 831 74 874 110 q 728 19 788 39 q 600 0 669 0 l 106 0 m 671 685 l 671 699 q 644 766 671 740 q 567 792 618 792 l 328 792 l 328 592 l 567 592 q 644 617 618 592 q 671 685 671 642 m 697 293 l 697 307 q 666 387 697 358 q 576 415 635 415 l 328 415 l 328 189 l 579 189 q 668 219 639 189 q 697 293 697 250 z "},"C":{"ha":978,"x_min":51,"x_max":943,"o":"m 514 176 q 653 222 607 176 q 708 322 699 267 l 943 322 q 805 75 918 169 q 522 -19 692 -19 q 319 19 408 -19 q 172 126 231 58 q 82 288 113 194 q 51 489 51 382 q 82 688 51 594 q 172 851 113 782 q 320 959 232 919 q 522 999 408 999 q 678 974 607 999 q 804 905 750 949 q 894 801 858 861 q 940 669 929 740 l 703 669 q 644 765 692 728 q 514 803 597 803 q 350 731 418 803 q 282 526 282 660 l 282 453 q 350 248 282 319 q 514 176 418 176 z "},"D":{"ha":1022,"x_min":106,"x_max":971,"o":"m 497 978 q 698 940 610 978 q 847 836 786 901 q 939 681 907 771 q 971 489 971 592 q 939 297 971 386 q 847 142 907 207 q 698 38 786 76 q 497 0 610 0 l 106 0 l 106 978 l 497 978 m 497 783 l 331 783 l 331 194 l 497 194 q 592 211 547 194 q 669 260 636 228 q 721 341 701 293 q 740 450 740 389 l 740 529 q 721 638 740 590 q 669 717 701 685 q 592 767 636 750 q 497 783 547 783 z "},"E":{"ha":889,"x_min":106,"x_max":819,"o":"m 106 978 l 819 978 l 819 783 l 331 783 l 331 593 l 775 593 l 775 403 l 331 403 l 331 194 l 819 194 l 819 0 l 106 0 l 106 978 z "},"F":{"ha":857,"x_min":106,"x_max":813,"o":"m 106 978 l 813 978 l 813 783 l 331 783 l 331 572 l 772 572 l 772 378 l 331 378 l 331 0 l 106 0 l 106 978 z "},"G":{"ha":1032,"x_min":51,"x_max":963,"o":"m 778 0 l 778 153 l 776 153 q 685 31 754 81 q 497 -19 615 -19 q 308 20 392 -19 q 167 128 224 60 q 81 290 111 197 q 51 489 51 383 q 83 690 51 596 q 176 851 115 783 q 324 959 236 919 q 524 999 413 999 q 816 910 703 999 q 956 676 929 821 l 710 676 q 658 763 700 722 q 528 803 615 803 q 433 785 478 803 q 354 731 388 767 q 301 644 321 696 q 282 526 282 593 l 282 447 q 353 242 282 314 q 529 171 425 171 q 619 188 579 171 q 685 231 658 204 q 727 290 713 257 q 742 356 742 324 l 522 356 l 522 536 l 963 536 l 963 0 l 778 0 z "},"H":{"ha":1069,"x_min":106,"x_max":964,"o":"m 106 978 l 331 978 l 331 597 l 739 597 l 739 978 l 964 978 l 964 0 l 739 0 l 739 403 l 331 403 l 331 0 l 106 0 l 106 978 z "},"I":{"ha":436,"x_min":106,"x_max":331,"o":"m 106 978 l 331 978 l 331 0 l 106 0 l 106 978 z "},"J":{"ha":897,"x_min":56,"x_max":804,"o":"m 431 -21 q 273 6 343 -21 q 155 78 203 32 q 81 189 107 125 q 56 326 56 253 l 56 422 l 281 422 l 281 333 q 322 215 281 256 q 431 175 363 175 q 539 215 499 175 q 579 333 579 256 l 579 978 l 804 978 l 804 326 q 778 189 804 253 q 705 78 753 125 q 588 6 657 32 q 431 -21 518 -21 z "},"K":{"ha":981,"x_min":104,"x_max":994,"o":"m 329 978 l 329 0 l 104 0 l 104 978 l 329 978 m 715 0 l 332 511 l 686 978 l 960 978 l 600 514 l 994 0 l 715 0 z "},"L":{"ha":806,"x_min":106,"x_max":792,"o":"m 106 978 l 331 978 l 331 194 l 792 194 l 792 0 l 106 0 l 106 978 z "},"M":{"ha":1293,"x_min":106,"x_max":1188,"o":"m 106 0 l 106 978 l 438 978 l 647 364 l 649 364 l 857 978 l 1188 978 l 1188 0 l 971 0 l 971 740 l 969 740 l 715 -1 l 565 -1 l 314 733 l 313 733 l 313 0 l 106 0 z "},"N":{"ha":1075,"x_min":106,"x_max":969,"o":"m 106 0 l 106 978 l 363 978 l 754 340 l 756 340 l 756 978 l 969 978 l 969 0 l 728 0 l 325 668 l 324 668 l 324 0 l 106 0 z "},"O":{"ha":1050,"x_min":51,"x_max":999,"o":"m 525 -19 q 324 20 413 -19 q 176 128 236 60 q 83 289 115 196 q 51 489 51 382 q 83 688 51 594 q 176 851 115 782 q 324 959 236 919 q 525 999 413 999 q 726 959 638 999 q 874 851 814 919 q 967 688 935 782 q 999 489 999 594 q 967 289 999 382 q 874 128 935 196 q 726 20 814 60 q 525 -19 638 -19 m 525 176 q 619 194 575 176 q 697 248 664 213 q 749 335 729 283 q 768 453 768 386 l 768 526 q 749 644 768 593 q 697 731 729 696 q 619 785 664 767 q 525 803 575 803 q 431 785 475 803 q 353 731 386 767 q 301 644 321 696 q 282 526 282 593 l 282 453 q 301 335 282 386 q 353 248 321 283 q 431 194 386 213 q 525 176 475 176 z "},"P":{"ha":947,"x_min":106,"x_max":919,"o":"m 106 0 l 106 978 l 567 978 q 719 953 653 978 q 829 888 785 929 q 897 788 874 846 q 919 664 919 731 q 897 540 919 597 q 829 440 874 482 q 719 374 785 399 q 567 350 653 350 l 331 350 l 331 0 l 106 0 m 692 657 l 692 671 q 658 757 692 728 q 560 786 624 786 l 331 786 l 331 542 l 560 542 q 658 572 624 542 q 692 657 692 601 z "},"Q":{"ha":1050,"x_min":51,"x_max":1043,"o":"m 525 -19 q 324 20 413 -19 q 176 128 236 60 q 83 289 115 196 q 51 489 51 382 q 83 688 51 594 q 176 851 115 782 q 324 959 236 919 q 525 999 413 999 q 726 959 638 999 q 874 851 814 919 q 967 688 935 782 q 999 489 999 594 q 944 233 999 349 q 788 51 889 118 l 1043 -256 l 779 -256 l 581 -17 q 553 -19 567 -18 q 525 -19 539 -19 m 525 176 q 619 194 575 176 q 697 248 664 213 q 749 335 729 283 q 768 453 768 386 l 768 526 q 749 644 768 593 q 697 731 729 696 q 619 785 664 767 q 525 803 575 803 q 431 785 475 803 q 353 731 386 767 q 301 644 321 696 q 282 526 282 593 l 282 453 q 301 335 282 386 q 353 248 321 283 q 431 194 386 213 q 525 176 475 176 z "},"R":{"ha":978,"x_min":106,"x_max":992,"o":"m 106 0 l 106 978 l 568 978 q 720 954 654 978 q 831 889 786 931 q 898 790 875 847 q 921 667 921 732 q 844 463 921 543 q 621 372 767 382 l 992 0 l 681 0 l 331 364 l 331 0 l 106 0 m 693 656 l 693 669 q 659 759 693 729 q 561 789 625 789 l 331 789 l 331 538 l 561 538 q 659 568 625 538 q 693 656 693 599 z "},"S":{"ha":908,"x_min":36,"x_max":864,"o":"m 453 -21 q 283 3 360 -21 q 151 68 206 26 q 66 169 96 110 q 36 300 36 229 l 264 300 q 315 193 264 229 q 456 157 367 157 q 590 191 546 157 q 635 275 635 225 q 597 349 635 331 q 485 379 560 368 l 363 397 q 143 485 229 417 q 57 694 57 554 q 84 814 57 758 q 161 910 111 869 q 285 976 211 951 q 451 1000 358 1000 q 622 976 547 1000 q 746 910 696 951 q 822 815 796 869 q 850 699 849 760 l 622 699 q 582 788 622 753 q 450 822 542 822 q 323 789 361 822 q 285 714 285 756 q 322 637 285 658 q 431 606 360 615 l 549 589 q 672 560 614 579 q 772 506 729 540 q 839 420 814 472 q 864 294 864 368 q 834 165 864 224 q 750 66 804 107 q 620 2 696 25 q 453 -21 544 -21 z "},"T":{"ha":858,"x_min":15,"x_max":843,"o":"m 317 783 l 15 783 l 15 978 l 843 978 l 843 783 l 542 783 l 542 0 l 317 0 l 317 783 z "},"U":{"ha":1004,"x_min":93,"x_max":911,"o":"m 503 -21 q 330 8 407 -21 q 201 88 253 38 q 121 206 149 138 q 93 354 93 275 l 93 978 l 318 978 l 318 361 q 369 222 318 269 q 503 174 419 174 q 636 222 586 174 q 686 361 686 269 l 686 978 l 911 978 l 911 354 q 883 206 911 275 q 803 88 856 138 q 675 8 751 38 q 503 -21 599 -21 z "},"V":{"ha":950,"x_min":0,"x_max":950,"o":"m 361 -1 l 0 978 l 239 978 l 481 263 l 483 263 l 724 978 l 950 978 l 606 -1 l 361 -1 z "},"W":{"ha":1372,"x_min":6,"x_max":1367,"o":"m 6 978 l 243 978 l 413 350 l 415 350 l 593 981 l 797 981 l 978 344 l 981 344 l 1149 978 l 1367 978 l 1088 -1 l 875 -1 l 686 638 l 683 638 l 496 -1 l 294 -1 l 6 978 z "},"X":{"ha":944,"x_min":0,"x_max":944,"o":"m 336 504 l 18 978 l 278 978 l 475 678 l 476 678 l 671 978 l 922 978 l 607 507 l 944 0 l 683 0 l 468 331 l 467 331 l 251 0 l 0 0 l 336 504 z "},"Y":{"ha":914,"x_min":0,"x_max":914,"o":"m 343 0 l 343 364 l 0 978 l 243 978 l 457 582 l 460 582 l 674 978 l 914 978 l 568 364 l 568 0 l 343 0 z "},"Z":{"ha":875,"x_min":53,"x_max":828,"o":"m 326 194 l 828 194 l 828 0 l 53 0 l 53 194 l 531 783 l 67 783 l 67 978 l 804 978 l 804 783 l 326 194 z "},"[":{"ha":564,"x_min":97,"x_max":531,"o":"m 97 1042 l 531 1042 l 531 869 l 300 869 l 300 -56 l 531 -56 l 531 -228 l 97 -228 l 97 1042 z "},"\\":{"ha":742,"x_min":25,"x_max":717,"o":"m 25 1117 l 240 1117 l 717 -139 l 501 -139 l 25 1117 z "},"]":{"ha":564,"x_min":33,"x_max":467,"o":"m 467 -228 l 33 -228 l 33 -56 l 264 -56 l 264 869 l 33 869 l 33 1042 l 467 1042 l 467 -228 z "},"^":{"ha":822,"x_min":21,"x_max":800,"o":"m 800 547 l 547 547 l 415 744 l 408 744 l 276 547 l 21 547 l 315 978 l 507 978 l 800 547 z "},"_":{"ha":874,"x_min":57,"x_max":817,"o":"m 57 0 l 817 0 l 817 -136 l 57 -136 l 57 0 z "},"`":{"ha":704,"x_min":133,"x_max":444,"o":"m 360 1031 l 444 825 l 278 825 l 133 1031 l 360 1031 z "},"a":{"ha":819,"x_min":42,"x_max":803,"o":"m 64 517 q 163 688 76 622 q 397 753 249 753 q 517 739 460 753 q 619 694 575 725 q 689 611 663 663 q 715 485 715 560 l 715 210 q 726 175 715 183 q 760 167 738 167 l 803 167 l 803 0 l 689 0 q 576 33 610 0 q 542 119 542 67 l 542 121 l 540 121 q 453 19 514 57 q 304 -19 393 -19 q 115 41 188 -19 q 42 206 42 101 q 119 372 42 317 q 335 444 197 426 l 411 454 q 478 476 458 460 q 499 522 499 493 q 475 576 499 553 q 393 599 451 599 q 308 576 338 599 q 278 517 279 553 l 64 517 m 501 290 l 501 346 q 472 330 492 339 q 422 318 451 321 l 368 311 q 283 283 313 304 q 253 228 253 263 l 253 219 q 278 163 253 185 q 351 142 303 142 q 462 183 422 142 q 501 290 501 225 z "},"b":{"ha":885,"x_min":85,"x_max":838,"o":"m 85 0 l 85 1031 l 303 1031 l 303 644 l 304 644 q 388 723 335 693 q 519 753 440 753 q 660 720 600 753 q 760 634 721 688 q 818 510 799 581 q 838 367 838 440 q 818 222 838 292 q 759 99 799 151 q 660 13 719 46 q 519 -19 600 -19 q 376 16 432 -19 q 290 111 321 51 l 289 111 l 289 0 l 85 0 m 619 331 l 619 400 q 574 528 619 483 q 461 574 528 574 q 349 528 394 574 q 303 400 303 482 l 303 331 q 349 203 303 249 q 461 157 394 157 q 574 202 528 157 q 619 331 619 247 z "},"c":{"ha":794,"x_min":47,"x_max":753,"o":"m 264 401 l 264 331 q 307 203 264 249 q 415 157 350 157 q 504 187 474 157 q 543 253 535 217 l 753 253 q 647 55 736 129 q 417 -19 557 -19 q 252 13 322 -19 q 137 97 182 44 q 69 220 92 150 q 47 367 47 290 q 69 513 47 443 q 137 636 92 583 q 252 721 182 689 q 417 753 322 753 q 647 678 557 753 q 753 479 736 604 l 543 479 q 504 545 535 515 q 415 575 474 575 q 307 528 350 575 q 264 401 264 482 z "},"d":{"ha":885,"x_min":47,"x_max":800,"o":"m 800 0 l 596 0 l 596 111 l 594 111 q 508 16 564 51 q 365 -19 453 -19 q 225 13 285 -19 q 126 99 165 46 q 67 222 86 151 q 47 367 47 292 q 67 510 47 440 q 125 634 86 581 q 224 720 164 688 q 365 753 285 753 q 497 723 444 753 q 581 644 550 693 l 582 644 l 582 1031 l 800 1031 l 800 0 m 265 331 q 311 202 265 247 q 424 157 357 157 q 536 203 490 157 q 582 331 582 249 l 582 400 q 536 528 582 482 q 424 574 490 574 q 311 528 357 574 q 265 400 265 483 l 265 331 z "},"e":{"ha":831,"x_min":47,"x_max":783,"o":"m 426 -19 q 258 13 331 -19 q 140 99 186 46 q 70 222 93 151 q 47 367 47 292 q 69 510 47 440 q 138 634 92 581 q 254 720 183 688 q 419 753 325 753 q 580 722 511 753 q 694 640 649 690 q 761 523 739 589 q 783 388 783 457 l 783 310 l 265 310 q 314 185 267 229 q 432 140 361 140 q 521 166 490 140 q 554 221 551 192 l 769 221 q 660 47 754 113 q 426 -19 565 -19 m 419 593 q 317 556 358 593 q 267 451 275 519 l 565 451 q 522 557 563 521 q 419 593 482 593 z "},"f":{"ha":653,"x_min":24,"x_max":633,"o":"m 176 0 l 176 558 l 24 558 l 24 733 l 176 733 l 176 829 q 230 981 176 928 q 392 1035 283 1035 l 633 1035 l 633 868 l 443 868 q 404 856 417 868 q 392 817 392 843 l 392 733 l 633 733 l 633 558 l 394 558 l 394 0 l 176 0 z "},"g":{"ha":882,"x_min":47,"x_max":797,"o":"m 64 -36 l 278 -36 q 319 -99 283 -75 q 414 -122 354 -122 q 536 -79 493 -122 q 579 57 579 -36 l 579 144 l 578 144 q 494 67 547 97 q 363 38 442 38 q 224 68 283 38 q 125 149 164 99 q 67 264 86 199 q 47 399 47 329 q 67 529 47 465 q 125 642 86 593 q 224 722 164 692 q 363 753 283 753 q 506 719 450 753 q 592 629 563 685 l 593 629 l 593 733 l 797 733 l 797 76 q 698 -189 797 -92 q 413 -286 599 -286 q 268 -267 332 -286 q 160 -213 204 -247 q 92 -133 117 -179 q 64 -36 68 -87 m 265 410 l 265 379 q 310 257 265 300 q 422 214 356 214 q 534 258 489 214 q 579 379 579 301 l 579 410 q 534 532 579 489 q 422 575 489 575 q 310 533 356 575 q 265 410 265 490 z "},"h":{"ha":860,"x_min":85,"x_max":782,"o":"m 303 433 l 303 0 l 85 0 l 85 1031 l 299 1031 l 299 640 l 300 640 q 385 724 331 696 q 511 753 440 753 q 706 674 629 753 q 782 461 782 594 l 782 0 l 564 0 l 564 435 q 524 536 564 503 q 435 569 483 569 q 344 536 385 569 q 303 433 303 503 z "},"i":{"ha":388,"x_min":60,"x_max":328,"o":"m 201 792 l 188 792 q 97 828 133 792 q 60 915 60 865 q 97 1003 60 967 q 188 1039 133 1039 l 201 1039 q 291 1003 254 1039 q 328 915 328 967 q 291 828 328 865 q 201 792 254 792 m 85 733 l 303 733 l 303 0 l 85 0 l 85 733 z "},"j":{"ha":390,"x_min":-106,"x_max":331,"o":"m 204 792 l 190 792 q 99 828 136 792 q 63 915 63 865 q 99 1003 63 967 q 190 1039 136 1039 l 204 1039 q 294 1003 257 1039 q 331 915 331 967 q 294 828 331 865 q 204 792 257 792 m 88 -47 l 88 733 l 306 733 l 306 -65 q 252 -217 306 -164 q 90 -271 199 -271 l -106 -271 l -106 -99 l 36 -99 q 75 -86 63 -99 q 88 -47 88 -74 z "},"k":{"ha":836,"x_min":85,"x_max":850,"o":"m 303 1031 l 303 0 l 85 0 l 85 1031 l 303 1031 m 821 733 l 550 413 l 850 0 l 583 0 l 303 404 l 563 733 l 821 733 z "},"l":{"ha":500,"x_min":78,"x_max":478,"o":"m 78 206 l 78 1031 l 296 1031 l 296 243 q 313 194 296 210 q 361 178 329 178 l 478 178 l 478 0 l 293 0 q 131 53 185 0 q 78 206 78 107 z "},"m":{"ha":1294,"x_min":85,"x_max":1217,"o":"m 85 0 l 85 733 l 289 733 l 289 629 l 290 629 q 372 722 317 690 q 499 753 428 753 q 635 718 576 753 q 725 619 694 683 l 726 619 q 818 719 757 685 q 954 753 879 753 q 1143 676 1069 753 q 1217 469 1217 599 l 1217 0 l 999 0 l 999 443 q 962 538 999 507 q 879 569 925 569 q 797 538 833 569 q 760 442 760 507 l 760 0 l 542 0 l 542 443 q 505 538 542 507 q 422 569 468 569 q 340 538 376 569 q 303 442 303 507 l 303 0 l 85 0 z "},"n":{"ha":860,"x_min":85,"x_max":782,"o":"m 303 433 l 303 0 l 85 0 l 85 733 l 289 733 l 289 622 l 290 622 q 377 719 318 686 q 511 753 436 753 q 706 674 629 753 q 782 461 782 594 l 782 0 l 564 0 l 564 435 q 524 536 564 503 q 435 569 483 569 q 344 536 385 569 q 303 433 303 503 z "},"o":{"ha":847,"x_min":47,"x_max":800,"o":"m 424 -19 q 256 13 328 -19 q 139 99 185 46 q 70 223 93 153 q 47 367 47 293 q 70 510 47 440 q 139 634 93 581 q 256 720 185 688 q 424 753 328 753 q 591 720 519 753 q 708 634 663 688 q 777 510 754 581 q 800 367 800 440 q 777 223 800 293 q 708 99 754 153 q 591 13 663 46 q 424 -19 519 -19 m 582 332 l 582 401 q 537 530 582 485 q 424 575 492 575 q 310 529 356 575 q 265 401 265 483 l 265 332 q 310 204 265 250 q 424 158 356 158 q 537 203 492 158 q 582 332 582 249 z "},"p":{"ha":885,"x_min":85,"x_max":838,"o":"m 85 733 l 289 733 l 289 622 l 290 622 q 376 717 321 682 q 519 753 432 753 q 660 720 600 753 q 759 635 719 688 q 818 512 799 582 q 838 367 838 442 q 818 223 838 293 q 760 99 799 153 q 660 13 721 46 q 519 -19 600 -19 q 388 10 440 -19 q 304 89 335 40 l 303 89 l 303 -267 l 85 -267 l 85 733 m 619 403 q 574 531 619 486 q 461 576 528 576 q 349 531 394 576 q 303 403 303 485 l 303 333 q 349 206 303 251 q 461 160 394 160 q 574 205 528 160 q 619 333 619 250 l 619 403 z "},"q":{"ha":885,"x_min":47,"x_max":800,"o":"m 800 733 l 800 -267 l 582 -267 l 582 89 l 581 89 q 497 10 550 40 q 365 -19 444 -19 q 224 13 285 -19 q 125 99 164 46 q 67 223 86 153 q 47 367 47 293 q 67 512 47 442 q 126 635 86 582 q 225 720 165 688 q 365 753 285 753 q 508 717 453 753 q 594 622 564 682 l 596 622 l 596 733 l 800 733 m 265 403 l 265 333 q 311 205 265 250 q 424 160 357 160 q 536 206 490 160 q 582 333 582 251 l 582 403 q 536 531 582 485 q 424 576 490 576 q 311 531 357 576 q 265 403 265 486 z "},"r":{"ha":626,"x_min":85,"x_max":588,"o":"m 85 0 l 85 733 l 293 733 l 293 603 l 294 603 q 315 648 300 625 q 356 690 331 671 q 419 722 382 710 q 506 735 456 735 l 588 735 l 588 535 l 465 535 q 341 501 379 535 q 303 400 303 468 l 303 0 l 85 0 z "},"s":{"ha":758,"x_min":39,"x_max":719,"o":"m 39 222 l 263 222 q 296 156 263 176 q 385 135 329 135 q 468 153 436 135 q 500 207 500 172 q 467 258 500 244 q 382 278 433 272 l 278 292 q 194 312 235 297 q 124 352 154 326 q 74 418 93 378 q 56 514 56 458 q 81 617 56 572 q 151 693 107 663 q 255 740 194 724 q 383 756 315 756 q 614 688 528 756 q 704 521 700 621 l 485 521 q 458 581 485 560 q 378 601 431 601 q 301 583 326 601 q 275 533 275 564 q 298 488 275 503 q 357 467 321 472 l 461 453 q 553 433 507 447 q 637 393 600 419 q 697 326 674 367 q 719 225 719 285 q 693 120 719 167 q 621 42 667 74 q 513 -6 575 11 q 378 -22 450 -22 q 242 -6 304 -22 q 135 43 181 11 q 65 120 90 75 q 39 222 39 165 z "},"t":{"ha":664,"x_min":25,"x_max":614,"o":"m 25 733 l 178 733 l 178 932 l 396 932 l 396 733 l 614 733 l 614 558 l 396 558 l 396 226 q 408 188 396 200 q 447 175 421 175 l 614 175 l 614 0 l 393 0 q 231 53 285 0 q 178 206 178 107 l 178 558 l 25 558 l 25 733 z "},"u":{"ha":860,"x_min":78,"x_max":775,"o":"m 557 300 l 557 733 l 775 733 l 775 0 l 571 0 l 571 111 l 569 111 q 483 14 542 47 q 349 -19 424 -19 q 154 60 231 -19 q 78 272 78 139 l 78 733 l 296 733 l 296 299 q 336 197 296 231 q 425 164 376 164 q 516 197 475 164 q 557 300 557 231 z "},"v":{"ha":772,"x_min":3,"x_max":769,"o":"m 769 733 l 507 -3 l 283 -3 l 3 733 l 243 733 l 397 257 l 399 257 l 551 733 l 769 733 z "},"w":{"ha":1140,"x_min":7,"x_max":1133,"o":"m 7 733 l 236 733 l 353 282 l 354 282 l 483 735 l 685 735 l 811 285 l 813 285 l 929 733 l 1133 733 l 919 -3 l 706 -3 l 575 468 l 574 468 l 442 -3 l 235 -3 l 7 733 z "},"x":{"ha":788,"x_min":3,"x_max":785,"o":"m 3 0 l 257 371 l 11 733 l 260 733 l 393 525 l 396 525 l 532 733 l 776 733 l 529 375 l 785 0 l 536 0 l 393 222 l 390 222 l 247 0 l 3 0 z "},"y":{"ha":772,"x_min":3,"x_max":769,"o":"m 489 -42 q 369 -216 443 -167 q 186 -265 294 -265 l 11 -265 l 11 -90 l 175 -90 q 229 -78 207 -90 q 265 -26 251 -65 l 282 22 l 3 733 l 243 733 l 397 267 l 399 267 l 551 733 l 769 733 l 489 -42 z "},"z":{"ha":736,"x_min":53,"x_max":697,"o":"m 53 0 l 53 172 l 410 561 l 64 561 l 64 733 l 665 733 l 665 560 l 310 172 l 697 172 l 697 0 l 53 0 z "},"{":{"ha":631,"x_min":56,"x_max":600,"o":"m 56 322 l 56 492 q 156 520 111 492 q 201 613 201 549 l 201 828 q 255 985 201 929 q 407 1040 308 1040 l 600 1040 l 600 868 l 482 868 q 424 849 443 868 q 404 789 404 831 l 404 594 q 388 519 404 553 q 344 461 371 485 q 284 425 318 438 q 214 413 250 413 l 214 401 q 284 389 250 401 q 344 353 318 376 q 388 295 371 329 q 404 219 404 261 l 404 24 q 424 -37 404 -18 q 482 -56 443 -56 l 600 -56 l 600 -228 l 407 -228 q 255 -172 308 -228 q 201 -15 201 -117 l 201 201 q 156 294 201 265 q 56 322 111 322 z "},"|":{"ha":464,"x_min":139,"x_max":325,"o":"m 139 1117 l 325 1117 l 325 -242 l 139 -242 l 139 1117 z "},"}":{"ha":631,"x_min":31,"x_max":575,"o":"m 575 490 l 575 321 q 474 292 519 321 q 429 200 429 264 l 429 -15 q 376 -172 429 -117 q 224 -228 322 -228 l 31 -228 l 31 -56 l 149 -56 q 207 -37 188 -56 q 226 24 226 -18 l 226 218 q 243 294 226 260 q 286 351 260 328 q 347 388 313 375 q 417 400 381 400 l 417 411 q 347 424 381 411 q 286 460 313 436 q 243 517 260 483 q 226 593 226 551 l 226 789 q 207 849 226 831 q 149 868 188 868 l 31 868 l 31 1040 l 224 1040 q 376 985 322 1040 q 429 828 429 929 l 429 611 q 474 519 429 547 q 575 490 519 490 z "},"~":{"ha":1044,"x_min":64,"x_max":981,"o":"m 64 247 q 88 410 64 343 q 152 519 113 476 q 244 580 192 561 q 354 599 297 599 q 458 576 413 599 q 540 528 503 554 q 610 481 578 503 q 678 458 643 458 q 746 497 726 458 q 765 596 765 535 l 981 596 q 956 439 981 506 q 892 329 932 372 q 797 265 851 286 q 683 244 743 244 q 581 265 625 244 q 502 311 538 286 q 435 357 467 336 q 371 378 404 378 q 300 336 322 378 q 278 247 278 294 l 64 247 z "}," ":{"ha":293,"x_min":0,"x_max":0,"o":""},"¡":{"ha":414,"x_min":63,"x_max":351,"o":"m 207 753 q 309 710 267 753 q 351 608 351 668 q 309 506 351 549 q 207 464 267 464 q 105 506 147 464 q 63 608 63 549 q 105 710 63 668 q 207 753 147 753 m 97 -239 l 97 76 l 149 365 l 274 365 l 325 76 l 325 -239 l 97 -239 z "},"¢":{"ha":825,"x_min":56,"x_max":761,"o":"m 339 -83 l 339 113 q 213 162 267 126 q 125 248 160 197 q 73 361 90 299 q 56 490 56 424 q 73 619 56 557 q 125 733 90 682 q 213 819 160 783 q 339 868 267 854 l 339 1061 l 508 1061 l 508 869 q 681 778 614 849 q 761 603 747 707 l 551 603 q 513 669 543 639 q 424 699 482 699 q 315 652 358 699 q 272 525 272 606 l 272 454 q 315 326 272 372 q 424 281 358 281 q 513 310 482 281 q 551 376 543 340 l 761 376 q 681 202 747 272 q 508 111 614 132 l 508 -83 l 339 -83 z "},"£":{"ha":961,"x_min":64,"x_max":892,"o":"m 64 0 l 64 181 l 211 181 l 211 375 l 71 375 l 71 542 l 211 542 l 211 693 q 236 818 211 761 q 305 915 261 875 q 410 976 349 954 q 546 999 472 999 q 778 919 690 999 q 875 724 867 840 l 661 724 q 626 800 656 775 q 547 825 596 825 q 465 797 500 825 q 429 701 429 768 l 429 542 l 732 542 l 732 375 l 429 375 l 429 181 l 892 181 l 892 0 l 64 0 z "},"¤":{"ha":1007,"x_min":56,"x_max":951,"o":"m 503 108 q 420 117 460 108 q 346 144 381 126 l 210 8 l 56 163 l 188 294 q 158 372 168 331 q 147 457 147 414 q 158 541 147 500 q 188 618 169 582 l 56 750 l 210 904 l 346 768 q 420 794 381 785 q 503 803 460 803 q 585 794 546 803 q 660 767 625 785 l 797 904 l 951 750 l 818 617 q 848 541 838 582 q 858 457 858 500 q 848 372 858 414 q 818 296 838 331 l 951 163 l 797 8 l 661 144 q 586 117 626 126 q 503 108 546 108 m 504 296 q 612 342 568 296 q 656 457 656 389 q 611 570 656 524 q 504 617 567 617 q 396 570 440 617 q 351 457 351 524 q 396 342 351 389 q 504 296 440 296 z "},"¥":{"ha":931,"x_min":8,"x_max":922,"o":"m 351 0 l 351 179 l 96 179 l 96 332 l 351 332 l 351 364 l 307 443 l 96 443 l 96 596 l 222 596 l 8 978 l 251 978 l 465 582 l 468 582 l 682 978 l 922 978 l 707 596 l 815 596 l 815 443 l 621 443 l 576 364 l 576 332 l 815 332 l 815 179 l 576 179 l 576 0 l 351 0 z "},"¦":{"ha":464,"x_min":139,"x_max":325,"o":"m 139 1117 l 325 1117 l 325 625 l 139 625 l 139 1117 m 139 250 l 325 250 l 325 -242 l 139 -242 l 139 250 z "},"§":{"ha":886,"x_min":39,"x_max":847,"o":"m 713 167 l 713 165 q 762 99 743 139 q 781 4 781 60 q 754 -112 781 -61 q 681 -199 728 -164 q 572 -252 635 -233 q 435 -271 508 -271 q 298 -253 361 -271 q 190 -201 235 -235 q 118 -119 144 -168 q 92 -11 92 -71 l 315 -11 q 349 -87 315 -62 q 443 -111 383 -111 q 529 -89 497 -111 q 561 -26 561 -67 q 522 44 561 26 q 425 75 483 61 l 278 113 q 189 142 232 124 q 113 190 146 161 q 59 258 79 218 q 39 353 39 299 q 76 475 39 424 q 176 557 113 526 l 176 558 q 128 628 146 586 q 110 731 110 671 q 135 847 110 796 q 206 931 161 897 q 311 981 250 964 q 442 999 372 999 q 676 928 590 999 q 767 750 763 857 l 547 750 q 519 817 547 793 q 436 842 492 842 q 356 815 382 842 q 331 750 331 789 q 357 689 331 708 q 422 660 383 669 l 572 622 q 669 594 619 610 q 758 553 718 579 q 822 484 797 526 q 847 378 847 442 q 811 253 847 307 q 713 167 775 200 m 551 242 q 607 275 586 251 q 628 333 628 299 q 588 406 628 383 q 493 443 549 429 l 326 485 q 276 450 293 475 q 260 393 260 425 q 287 326 260 350 q 357 292 314 301 l 551 242 z "},"¨":{"ha":707,"x_min":107,"x_max":607,"o":"m 218 828 l 213 828 q 138 858 168 828 q 107 931 107 889 q 138 1003 107 974 q 213 1033 168 1033 l 218 1033 q 293 1003 263 1033 q 324 931 324 974 q 293 858 324 889 q 218 828 263 828 m 501 828 l 496 828 q 421 858 451 828 q 390 931 390 889 q 421 1003 390 974 q 496 1033 451 1033 l 501 1033 q 576 1003 546 1033 q 607 931 607 974 q 576 858 607 889 q 501 828 546 828 z "},"©":{"ha":1136,"x_min":57,"x_max":1079,"o":"m 568 -22 q 367 17 461 -22 q 205 126 274 57 q 97 288 136 194 q 57 488 57 381 q 97 688 57 594 q 205 851 136 782 q 367 959 274 919 q 568 999 461 999 q 767 959 674 999 q 930 851 861 919 q 1039 688 999 782 q 1079 488 1079 594 q 1039 288 1079 381 q 930 126 999 194 q 767 17 861 57 q 568 -22 674 -22 m 568 89 q 728 121 656 89 q 853 207 801 153 q 933 334 904 261 q 963 488 963 407 q 933 643 963 569 q 853 771 904 717 q 728 856 801 825 q 568 888 656 888 q 408 856 481 888 q 283 771 335 825 q 202 643 231 717 q 174 488 174 569 q 202 333 174 406 q 283 207 231 261 q 408 121 335 153 q 568 89 481 89 m 674 399 l 832 399 q 745 253 814 307 q 575 199 676 199 q 459 221 511 199 q 370 282 407 243 q 313 374 333 321 q 292 488 292 426 l 292 490 q 312 604 292 551 q 369 695 332 657 q 458 756 406 733 q 574 778 510 778 q 747 722 681 778 q 831 581 814 665 l 674 581 q 642 628 668 608 q 574 649 617 649 q 478 601 511 649 q 446 490 446 554 l 446 488 q 479 374 446 419 q 574 328 513 328 q 642 348 617 328 q 674 399 667 368 z "},"ª":{"ha":536,"x_min":50,"x_max":506,"o":"m 63 851 q 123 953 71 915 q 264 992 175 992 q 335 984 300 992 q 396 958 369 976 q 439 908 422 939 q 456 831 456 876 l 456 676 q 461 658 456 663 q 481 653 467 653 l 506 653 l 506 547 l 435 547 q 367 567 386 547 q 346 618 347 588 l 346 617 l 344 617 q 294 558 329 579 q 207 536 258 536 q 93 572 136 536 q 50 669 50 607 q 97 769 50 736 q 228 813 144 803 l 268 817 q 306 829 294 819 q 318 854 318 839 q 305 883 318 871 q 261 894 292 894 q 215 882 231 894 q 199 851 200 869 l 63 851 m 319 717 l 319 746 q 302 737 314 742 q 274 731 290 732 l 249 728 q 201 713 218 725 q 185 683 185 701 l 185 679 q 198 649 185 661 q 238 638 211 638 q 298 660 276 638 q 319 717 319 682 z "},"«":{"ha":965,"x_min":33,"x_max":904,"o":"m 292 81 l 33 388 l 292 696 l 515 696 l 265 388 l 515 81 l 292 81 m 681 81 l 422 388 l 681 696 l 904 696 l 654 388 l 904 81 l 681 81 z "},"¬":{"ha":911,"x_min":69,"x_max":800,"o":"m 69 354 l 69 535 l 800 535 l 800 76 l 619 76 l 619 354 l 69 354 z "},"­":{"ha":532,"x_min":74,"x_max":510,"o":"m 74 482 l 510 482 l 510 310 l 74 310 l 74 482 z "},"®":{"ha":761,"x_min":56,"x_max":706,"o":"m 381 360 q 254 385 314 360 q 151 453 194 410 q 81 556 107 497 q 56 681 56 614 q 81 804 56 746 q 151 906 107 863 q 254 974 194 949 q 381 999 314 999 q 507 974 447 999 q 610 906 567 949 q 680 804 654 863 q 706 681 706 746 q 680 556 706 614 q 610 453 654 497 q 507 385 567 410 q 381 360 447 360 m 381 436 q 476 456 432 436 q 554 508 521 475 q 607 585 588 540 q 626 681 626 629 q 607 775 626 731 q 554 852 588 819 q 476 904 521 885 q 381 924 432 924 q 284 904 329 924 q 206 852 239 885 q 153 775 172 819 q 133 681 133 731 q 153 585 133 629 q 206 508 172 540 q 284 456 239 475 q 381 436 329 436 m 443 531 l 336 636 l 336 531 l 247 531 l 247 838 l 411 838 q 494 808 471 838 q 518 731 518 778 q 495 673 518 696 q 440 643 472 650 l 557 531 l 443 531 m 390 763 l 336 763 l 336 697 l 390 697 q 419 705 410 697 q 428 731 428 713 q 419 755 428 747 q 390 763 410 763 z "},"¯":{"ha":682,"x_min":144,"x_max":536,"o":"m 144 1008 l 536 1008 l 536 868 l 144 868 l 144 1008 z "},"°":{"ha":692,"x_min":58,"x_max":633,"o":"m 346 425 q 234 447 286 425 q 143 506 182 468 q 81 597 104 544 q 58 708 58 649 q 81 820 58 768 q 143 910 104 872 q 234 970 182 949 q 346 992 286 992 q 458 970 406 992 q 549 910 510 949 q 610 820 588 872 q 633 708 633 768 q 610 597 633 649 q 549 506 588 544 q 458 447 510 468 q 346 425 406 425 m 346 586 q 433 620 397 586 q 469 708 469 654 q 433 796 469 763 q 346 829 397 829 q 258 796 294 829 q 222 708 222 763 q 258 620 222 654 q 346 586 294 586 z "},"±":{"ha":911,"x_min":69,"x_max":842,"o":"m 69 493 l 69 674 l 365 674 l 365 854 l 546 854 l 546 674 l 842 674 l 842 493 l 546 493 l 546 313 l 365 313 l 365 493 l 69 493 m 69 49 l 69 229 l 842 229 l 842 49 l 69 49 z "},"²":{"ha":547,"x_min":56,"x_max":482,"o":"m 60 403 l 60 507 q 87 601 60 563 q 176 672 114 639 l 275 726 q 324 765 313 746 q 335 803 335 785 l 335 810 q 319 856 335 836 q 267 876 303 876 q 214 860 235 876 q 192 804 193 843 l 56 804 q 118 941 60 892 q 267 990 176 990 q 421 936 367 990 q 475 810 475 882 q 444 709 475 754 q 344 625 414 664 l 228 560 q 204 541 210 550 q 199 521 199 532 l 482 521 l 482 403 l 60 403 z "},"³":{"ha":553,"x_min":57,"x_max":497,"o":"m 354 569 l 354 578 q 333 626 354 607 q 274 646 313 646 l 179 646 l 179 744 l 314 861 l 83 861 l 83 978 l 472 978 l 472 861 l 338 744 l 338 743 q 453 686 410 731 q 497 569 497 642 q 438 442 497 492 q 272 392 379 392 q 116 442 172 392 q 57 568 60 493 l 196 568 q 215 523 199 543 q 275 503 232 503 q 335 522 317 503 q 354 569 354 542 z "},"´":{"ha":704,"x_min":250,"x_max":561,"o":"m 335 1031 l 561 1031 l 417 825 l 250 825 l 335 1031 z "},"µ":{"ha":860,"x_min":78,"x_max":775,"o":"m 557 300 l 557 733 l 775 733 l 775 0 l 571 0 l 571 111 l 569 111 q 483 14 542 47 q 349 -19 424 -19 q 154 60 231 -19 q 78 272 78 139 l 78 733 l 296 733 l 296 299 q 336 197 296 231 q 425 164 376 164 q 516 197 475 164 q 557 300 557 231 z "},"¶":{"ha":1139,"x_min":47,"x_max":1085,"o":"m 638 -267 l 443 -267 l 443 233 l 426 233 q 258 265 331 233 q 140 347 186 296 q 70 467 93 399 q 47 606 47 535 q 70 744 47 676 q 140 864 93 813 q 258 947 186 915 q 426 978 331 978 l 1085 978 l 1085 803 l 938 803 l 938 -267 l 743 -267 l 743 803 l 638 803 l 638 -267 m 426 408 l 443 408 l 443 803 l 426 803 q 312 760 358 803 q 265 639 265 717 l 265 569 q 312 451 265 493 q 426 408 358 408 z "},"·":{"ha":414,"x_min":63,"x_max":351,"o":"m 207 361 q 105 403 147 361 q 63 506 63 446 q 105 608 63 565 q 207 650 147 650 q 309 608 267 650 q 351 506 351 565 q 309 403 351 446 q 207 361 267 361 z "},"¸":{"ha":694,"x_min":225,"x_max":588,"o":"m 225 -317 l 225 -231 l 357 -231 q 406 -223 383 -231 q 429 -192 429 -215 q 408 -160 429 -168 q 344 -153 386 -153 l 288 -153 l 288 -82 l 321 7 l 436 7 l 404 -72 q 538 -103 488 -72 q 588 -185 588 -133 q 541 -284 588 -253 q 422 -317 494 -315 l 225 -317 z "},"¹":{"ha":413,"x_min":49,"x_max":332,"o":"m 190 403 l 190 760 l 49 760 l 49 876 l 190 876 l 190 978 l 332 978 l 332 403 l 190 403 z "},"º":{"ha":551,"x_min":54,"x_max":503,"o":"m 278 536 q 178 556 221 536 q 108 607 136 575 q 67 680 81 639 q 54 764 54 721 q 67 848 54 807 q 108 921 81 889 q 177 972 135 953 q 278 992 219 992 q 378 972 336 992 q 449 921 421 953 q 490 848 476 889 q 503 764 503 807 q 490 680 503 721 q 449 607 476 639 q 378 556 421 575 q 278 536 336 536 m 364 742 l 364 785 q 340 854 364 831 q 278 878 315 878 q 217 853 242 878 q 192 785 192 829 l 192 742 q 217 672 192 697 q 278 647 242 647 q 340 672 315 647 q 364 742 364 696 z "},"»":{"ha":965,"x_min":61,"x_max":932,"o":"m 674 696 l 932 389 l 674 81 l 450 81 l 700 389 l 450 696 l 674 696 m 285 696 l 543 389 l 285 81 l 61 81 l 311 389 l 61 696 l 285 696 z "},"¼":{"ha":1236,"x_min":69,"x_max":1167,"o":"m 211 403 l 211 760 l 69 760 l 69 876 l 211 876 l 211 978 l 353 978 l 353 403 l 211 403 m 199 0 l 893 978 l 1061 978 l 367 0 l 199 0 m 679 114 l 679 226 l 915 575 l 1082 575 l 1082 231 l 1167 231 l 1167 114 l 1082 114 l 1082 0 l 942 0 l 942 114 l 679 114 m 814 232 l 814 231 l 944 231 l 944 428 l 943 428 l 814 232 z "},"½":{"ha":1342,"x_min":69,"x_max":1272,"o":"m 211 403 l 211 760 l 69 760 l 69 876 l 211 876 l 211 978 l 353 978 l 353 403 l 211 403 m 219 0 l 914 978 l 1082 978 l 388 0 l 219 0 m 850 0 l 850 104 q 877 198 850 160 q 967 269 904 236 l 1065 324 q 1114 363 1103 343 q 1125 400 1125 382 l 1125 407 q 1109 453 1125 433 q 1057 474 1093 474 q 1004 457 1025 474 q 982 401 983 440 l 846 401 q 908 538 850 489 q 1057 588 967 588 q 1211 533 1157 588 q 1265 407 1265 479 q 1235 306 1265 351 q 1135 222 1204 261 l 1018 157 q 994 140 1000 147 q 989 121 989 132 l 989 118 l 1272 118 l 1272 0 l 850 0 z "},"¾":{"ha":1304,"x_min":69,"x_max":1235,"o":"m 367 569 l 367 578 q 346 626 367 607 q 286 646 325 646 l 192 646 l 192 744 l 326 861 l 96 861 l 96 978 l 485 978 l 485 861 l 350 744 l 350 743 q 466 686 422 731 q 510 569 510 642 q 451 442 510 492 q 285 392 392 392 q 128 442 185 392 q 69 568 72 493 l 208 568 q 228 523 211 543 q 288 503 244 503 q 348 522 329 503 q 367 569 367 542 m 267 0 l 961 978 l 1129 978 l 435 0 l 267 0 m 747 114 l 747 226 l 983 575 l 1150 575 l 1150 231 l 1235 231 l 1235 114 l 1150 114 l 1150 0 l 1010 0 l 1010 114 l 747 114 m 882 232 l 882 231 l 1013 231 l 1013 428 l 1011 428 l 882 232 z "},"¿":{"ha":772,"x_min":50,"x_max":736,"o":"m 414 753 q 506 715 468 753 q 544 622 544 676 q 506 530 544 568 q 414 492 468 492 q 322 530 361 492 q 283 622 283 568 q 322 715 283 676 q 414 753 361 753 m 318 396 l 513 396 q 476 249 514 301 q 394 163 439 197 q 312 99 350 129 q 274 21 274 69 q 307 -55 274 -31 q 390 -79 340 -79 q 483 -48 449 -79 q 519 43 517 -17 l 736 43 q 638 -175 735 -92 q 389 -258 542 -258 q 247 -237 310 -258 q 140 -179 183 -215 q 74 -92 97 -143 q 50 17 50 -42 q 92 149 50 101 q 184 231 133 197 q 276 301 235 265 q 318 396 318 336 z "},"À":{"ha":986,"x_min":0,"x_max":986,"o":"m 746 0 l 685 176 l 292 176 l 232 0 l 0 0 l 363 978 l 624 978 l 986 0 l 746 0 m 485 742 l 358 371 l 617 371 l 488 742 l 485 742 m 497 1276 l 582 1071 l 415 1071 l 271 1276 l 497 1276 z "},"Á":{"ha":986,"x_min":0,"x_max":986,"o":"m 746 0 l 685 176 l 292 176 l 232 0 l 0 0 l 363 978 l 624 978 l 986 0 l 746 0 m 485 742 l 358 371 l 617 371 l 488 742 l 485 742 m 500 1276 l 726 1276 l 582 1071 l 415 1071 l 500 1276 z "},"Â":{"ha":986,"x_min":0,"x_max":986,"o":"m 746 0 l 685 176 l 292 176 l 232 0 l 0 0 l 363 978 l 624 978 l 986 0 l 746 0 m 485 742 l 358 371 l 617 371 l 488 742 l 485 742 m 788 1071 l 590 1071 l 507 1172 l 497 1172 l 418 1071 l 249 1071 l 413 1276 l 625 1276 l 788 1071 z "},"Ã":{"ha":986,"x_min":0,"x_max":986,"o":"m 746 0 l 685 176 l 292 176 l 232 0 l 0 0 l 363 978 l 624 978 l 986 0 l 746 0 m 485 742 l 358 371 l 617 371 l 488 742 l 485 742 m 590 1071 q 523 1084 550 1071 q 475 1113 496 1097 q 436 1142 454 1129 q 394 1156 418 1156 q 352 1139 365 1156 q 339 1089 339 1122 l 236 1089 l 236 1099 q 280 1230 236 1183 q 403 1276 324 1276 l 404 1276 q 474 1263 446 1276 q 522 1234 501 1250 q 563 1205 543 1218 q 607 1192 582 1192 q 648 1208 635 1192 q 661 1256 661 1225 l 764 1256 l 764 1247 q 719 1117 764 1164 q 592 1071 674 1071 l 590 1071 z "},"Ä":{"ha":986,"x_min":0,"x_max":986,"o":"m 746 0 l 685 176 l 292 176 l 232 0 l 0 0 l 363 978 l 624 978 l 986 0 l 746 0 m 485 742 l 358 371 l 617 371 l 488 742 l 485 742 m 365 1074 l 360 1074 q 285 1104 315 1074 q 254 1176 254 1135 q 285 1249 254 1219 q 360 1279 315 1279 l 365 1279 q 440 1249 410 1279 q 471 1176 471 1219 q 440 1104 471 1135 q 365 1074 410 1074 m 649 1074 l 643 1074 q 568 1104 599 1074 q 538 1176 538 1135 q 568 1249 538 1219 q 643 1279 599 1279 l 649 1279 q 724 1249 693 1279 q 754 1176 754 1219 q 724 1104 754 1135 q 649 1074 693 1074 z "},"Å":{"ha":986,"x_min":0,"x_max":986,"o":"m 746 0 l 685 176 l 292 176 l 232 0 l 0 0 l 363 978 l 624 978 l 986 0 l 746 0 m 485 742 l 358 371 l 617 371 l 488 742 l 485 742 m 503 1071 q 369 1119 426 1071 q 311 1247 311 1168 q 369 1376 311 1326 q 503 1425 426 1425 q 636 1376 579 1425 q 693 1247 693 1326 q 636 1119 693 1168 q 503 1071 579 1071 m 503 1171 q 556 1190 535 1171 q 576 1247 576 1208 q 556 1306 576 1286 q 503 1325 535 1325 q 449 1306 469 1325 q 428 1247 428 1286 q 449 1190 428 1208 q 503 1171 469 1171 z "},"Æ":{"ha":1389,"x_min":0,"x_max":1319,"o":"m 746 0 l 685 176 l 292 176 l 232 0 l 0 0 l 363 978 l 1319 978 l 1319 783 l 696 783 l 767 593 l 1275 593 l 1275 403 l 836 403 l 914 194 l 1319 194 l 1319 0 l 746 0 m 485 742 l 358 371 l 617 371 l 488 742 l 485 742 z "},"Ç":{"ha":978,"x_min":51,"x_max":943,"o":"m 514 176 q 653 222 607 176 q 708 322 699 267 l 943 322 q 805 75 918 169 q 522 -19 692 -19 q 319 19 408 -19 q 172 126 231 58 q 82 288 113 194 q 51 489 51 382 q 82 688 51 594 q 172 851 113 782 q 320 959 232 919 q 522 999 408 999 q 678 974 607 999 q 804 905 750 949 q 894 801 858 861 q 940 669 929 740 l 703 669 q 644 765 692 728 q 514 803 597 803 q 350 731 418 803 q 282 526 282 660 l 282 453 q 350 248 282 319 q 514 176 418 176 m 368 -317 l 368 -231 l 500 -231 q 549 -223 526 -231 q 572 -192 572 -215 q 551 -160 572 -168 q 488 -153 529 -153 l 431 -153 l 431 -82 l 464 7 l 579 7 l 547 -72 q 681 -103 631 -72 q 731 -185 731 -133 q 684 -284 731 -253 q 565 -317 638 -315 l 368 -317 z "},"È":{"ha":889,"x_min":106,"x_max":819,"o":"m 106 978 l 819 978 l 819 783 l 331 783 l 331 593 l 775 593 l 775 403 l 331 403 l 331 194 l 819 194 l 819 0 l 106 0 l 106 978 m 475 1276 l 560 1071 l 393 1071 l 249 1276 l 475 1276 z "},"É":{"ha":889,"x_min":106,"x_max":819,"o":"m 106 978 l 819 978 l 819 783 l 331 783 l 331 593 l 775 593 l 775 403 l 331 403 l 331 194 l 819 194 l 819 0 l 106 0 l 106 978 m 478 1276 l 704 1276 l 560 1071 l 393 1071 l 478 1276 z "},"Ê":{"ha":889,"x_min":106,"x_max":819,"o":"m 106 978 l 819 978 l 819 783 l 331 783 l 331 593 l 775 593 l 775 403 l 331 403 l 331 194 l 819 194 l 819 0 l 106 0 l 106 978 m 765 1071 l 568 1071 l 485 1172 l 475 1172 l 396 1071 l 226 1071 l 390 1276 l 603 1276 l 765 1071 z "},"Ë":{"ha":889,"x_min":106,"x_max":819,"o":"m 106 978 l 819 978 l 819 783 l 331 783 l 331 593 l 775 593 l 775 403 l 331 403 l 331 194 l 819 194 l 819 0 l 106 0 l 106 978 m 343 1074 l 338 1074 q 263 1104 293 1074 q 232 1176 232 1135 q 263 1249 232 1219 q 338 1279 293 1279 l 343 1279 q 418 1249 388 1279 q 449 1176 449 1219 q 418 1104 449 1135 q 343 1074 388 1074 m 626 1074 l 621 1074 q 546 1104 576 1074 q 515 1176 515 1135 q 546 1249 515 1219 q 621 1279 576 1279 l 626 1279 q 701 1249 671 1279 q 732 1176 732 1219 q 701 1104 732 1135 q 626 1074 671 1074 z "},"Ì":{"ha":436,"x_min":-8,"x_max":331,"o":"m 106 978 l 331 978 l 331 0 l 106 0 l 106 978 m 218 1276 l 303 1071 l 136 1071 l -8 1276 l 218 1276 z "},"Í":{"ha":436,"x_min":106,"x_max":447,"o":"m 106 978 l 331 978 l 331 0 l 106 0 l 106 978 m 221 1276 l 447 1276 l 303 1071 l 136 1071 l 221 1276 z "},"Î":{"ha":436,"x_min":-31,"x_max":508,"o":"m 106 978 l 331 978 l 331 0 l 106 0 l 106 978 m 508 1071 l 311 1071 l 228 1172 l 218 1172 l 139 1071 l -31 1071 l 133 1276 l 346 1276 l 508 1071 z "},"Ï":{"ha":436,"x_min":-25,"x_max":475,"o":"m 106 978 l 331 978 l 331 0 l 106 0 l 106 978 m 86 1074 l 81 1074 q 6 1104 36 1074 q -25 1176 -25 1135 q 6 1249 -25 1219 q 81 1279 36 1279 l 86 1279 q 161 1249 131 1279 q 192 1176 192 1219 q 161 1104 192 1135 q 86 1074 131 1074 m 369 1074 l 364 1074 q 289 1104 319 1074 q 258 1176 258 1135 q 289 1249 258 1219 q 364 1279 319 1279 l 369 1279 q 444 1249 414 1279 q 475 1176 475 1219 q 444 1104 475 1135 q 369 1074 414 1074 z "},"Ð":{"ha":1050,"x_min":42,"x_max":999,"o":"m 42 403 l 42 597 l 133 597 l 133 978 l 525 978 q 726 940 638 978 q 874 836 814 901 q 967 681 935 771 q 999 489 999 592 q 967 297 999 386 q 874 142 935 207 q 726 38 814 76 q 525 0 638 0 l 133 0 l 133 403 l 42 403 m 525 783 l 358 783 l 358 597 l 519 597 l 519 403 l 358 403 l 358 194 l 525 194 q 619 211 575 194 q 697 260 664 228 q 749 341 729 293 q 768 450 768 389 l 768 529 q 749 638 768 590 q 697 717 729 685 q 619 767 664 750 q 525 783 575 783 z "},"Ñ":{"ha":1075,"x_min":106,"x_max":969,"o":"m 106 0 l 106 978 l 363 978 l 754 340 l 756 340 l 756 978 l 969 978 l 969 0 l 728 0 l 325 668 l 324 668 l 324 0 l 106 0 m 650 1071 q 583 1084 610 1071 q 535 1113 556 1097 q 496 1142 514 1129 q 454 1156 478 1156 q 412 1139 425 1156 q 399 1089 399 1122 l 296 1089 l 296 1099 q 340 1230 296 1183 q 463 1276 383 1276 l 464 1276 q 533 1263 506 1276 q 582 1234 561 1250 q 622 1205 603 1218 q 667 1192 642 1192 q 708 1208 694 1192 q 721 1256 721 1225 l 824 1256 l 824 1247 q 778 1117 824 1164 q 651 1071 733 1071 l 650 1071 z "},"Ò":{"ha":1050,"x_min":51,"x_max":999,"o":"m 525 -19 q 324 20 413 -19 q 176 128 236 60 q 83 289 115 196 q 51 489 51 382 q 83 688 51 594 q 176 851 115 782 q 324 959 236 919 q 525 999 413 999 q 726 959 638 999 q 874 851 814 919 q 967 688 935 782 q 999 489 999 594 q 967 289 999 382 q 874 128 935 196 q 726 20 814 60 q 525 -19 638 -19 m 525 176 q 619 194 575 176 q 697 248 664 213 q 749 335 729 283 q 768 453 768 386 l 768 526 q 749 644 768 593 q 697 731 729 696 q 619 785 664 767 q 525 803 575 803 q 431 785 475 803 q 353 731 386 767 q 301 644 321 696 q 282 526 282 593 l 282 453 q 301 335 282 386 q 353 248 321 283 q 431 194 386 213 q 525 176 475 176 m 524 1276 l 608 1071 l 442 1071 l 297 1276 l 524 1276 z "},"Ó":{"ha":1050,"x_min":51,"x_max":999,"o":"m 525 -19 q 324 20 413 -19 q 176 128 236 60 q 83 289 115 196 q 51 489 51 382 q 83 688 51 594 q 176 851 115 782 q 324 959 236 919 q 525 999 413 999 q 726 959 638 999 q 874 851 814 919 q 967 688 935 782 q 999 489 999 594 q 967 289 999 382 q 874 128 935 196 q 726 20 814 60 q 525 -19 638 -19 m 525 176 q 619 194 575 176 q 697 248 664 213 q 749 335 729 283 q 768 453 768 386 l 768 526 q 749 644 768 593 q 697 731 729 696 q 619 785 664 767 q 525 803 575 803 q 431 785 475 803 q 353 731 386 767 q 301 644 321 696 q 282 526 282 593 l 282 453 q 301 335 282 386 q 353 248 321 283 q 431 194 386 213 q 525 176 475 176 m 526 1276 l 753 1276 l 608 1071 l 442 1071 l 526 1276 z "},"Ô":{"ha":1050,"x_min":51,"x_max":999,"o":"m 525 -19 q 324 20 413 -19 q 176 128 236 60 q 83 289 115 196 q 51 489 51 382 q 83 688 51 594 q 176 851 115 782 q 324 959 236 919 q 525 999 413 999 q 726 959 638 999 q 874 851 814 919 q 967 688 935 782 q 999 489 999 594 q 967 289 999 382 q 874 128 935 196 q 726 20 814 60 q 525 -19 638 -19 m 525 176 q 619 194 575 176 q 697 248 664 213 q 749 335 729 283 q 768 453 768 386 l 768 526 q 749 644 768 593 q 697 731 729 696 q 619 785 664 767 q 525 803 575 803 q 431 785 475 803 q 353 731 386 767 q 301 644 321 696 q 282 526 282 593 l 282 453 q 301 335 282 386 q 353 248 321 283 q 431 194 386 213 q 525 176 475 176 m 814 1071 l 617 1071 l 533 1172 l 524 1172 l 444 1071 l 275 1071 l 439 1276 l 651 1276 l 814 1071 z "},"Õ":{"ha":1050,"x_min":51,"x_max":999,"o":"m 525 -19 q 324 20 413 -19 q 176 128 236 60 q 83 289 115 196 q 51 489 51 382 q 83 688 51 594 q 176 851 115 782 q 324 959 236 919 q 525 999 413 999 q 726 959 638 999 q 874 851 814 919 q 967 688 935 782 q 999 489 999 594 q 967 289 999 382 q 874 128 935 196 q 726 20 814 60 q 525 -19 638 -19 m 525 176 q 619 194 575 176 q 697 248 664 213 q 749 335 729 283 q 768 453 768 386 l 768 526 q 749 644 768 593 q 697 731 729 696 q 619 785 664 767 q 525 803 575 803 q 431 785 475 803 q 353 731 386 767 q 301 644 321 696 q 282 526 282 593 l 282 453 q 301 335 282 386 q 353 248 321 283 q 431 194 386 213 q 525 176 475 176 m 617 1071 q 549 1084 576 1071 q 501 1113 522 1097 q 463 1142 481 1129 q 421 1156 444 1156 q 378 1139 392 1156 q 365 1089 365 1122 l 263 1089 l 263 1099 q 306 1230 263 1183 q 429 1276 350 1276 l 431 1276 q 500 1263 472 1276 q 549 1234 528 1250 q 589 1205 569 1218 q 633 1192 608 1192 q 674 1208 661 1192 q 688 1256 688 1225 l 790 1256 l 790 1247 q 745 1117 790 1164 q 618 1071 700 1071 l 617 1071 z "},"Ö":{"ha":1050,"x_min":51,"x_max":999,"o":"m 525 -19 q 324 20 413 -19 q 176 128 236 60 q 83 289 115 196 q 51 489 51 382 q 83 688 51 594 q 176 851 115 782 q 324 959 236 919 q 525 999 413 999 q 726 959 638 999 q 874 851 814 919 q 967 688 935 782 q 999 489 999 594 q 967 289 999 382 q 874 128 935 196 q 726 20 814 60 q 525 -19 638 -19 m 525 176 q 619 194 575 176 q 697 248 664 213 q 749 335 729 283 q 768 453 768 386 l 768 526 q 749 644 768 593 q 697 731 729 696 q 619 785 664 767 q 525 803 575 803 q 431 785 475 803 q 353 731 386 767 q 301 644 321 696 q 282 526 282 593 l 282 453 q 301 335 282 386 q 353 248 321 283 q 431 194 386 213 q 525 176 475 176 m 392 1074 l 386 1074 q 311 1104 342 1074 q 281 1176 281 1135 q 311 1249 281 1219 q 386 1279 342 1279 l 392 1279 q 467 1249 436 1279 q 497 1176 497 1219 q 467 1104 497 1135 q 392 1074 436 1074 m 675 1074 l 669 1074 q 594 1104 625 1074 q 564 1176 564 1135 q 594 1249 564 1219 q 669 1279 625 1279 l 675 1279 q 750 1249 719 1279 q 781 1176 781 1219 q 750 1104 781 1135 q 675 1074 719 1074 z "},"×":{"ha":911,"x_min":99,"x_max":813,"o":"m 226 88 l 99 215 l 329 446 l 113 661 l 239 788 l 456 572 l 685 801 l 813 674 l 583 444 l 799 228 l 672 101 l 457 318 l 226 88 z "},"Ø":{"ha":1050,"x_min":51,"x_max":999,"o":"m 68 -36 l 179 124 q 84 286 117 192 q 51 489 51 381 q 83 688 51 594 q 176 851 115 782 q 324 959 236 919 q 525 999 413 999 q 645 985 589 999 q 749 947 701 972 l 856 1101 l 982 1014 l 871 854 q 966 692 933 786 q 999 489 999 597 q 967 289 999 382 q 874 128 935 196 q 726 20 814 60 q 525 -19 638 -19 q 405 -6 461 -19 q 301 31 349 7 l 194 -124 l 68 -36 m 282 453 q 289 377 282 413 q 310 313 296 342 l 632 779 q 581 797 608 790 q 525 803 554 803 q 431 785 475 803 q 353 731 386 767 q 301 644 321 696 q 282 526 282 593 l 282 453 m 525 176 q 619 194 575 176 q 697 248 664 213 q 749 335 729 283 q 768 453 768 386 l 768 526 q 761 601 768 567 q 740 665 754 636 l 418 200 q 469 183 442 189 q 525 176 497 176 z "},"Ù":{"ha":1004,"x_min":93,"x_max":911,"o":"m 503 -21 q 330 8 407 -21 q 201 88 253 38 q 121 206 149 138 q 93 354 93 275 l 93 978 l 318 978 l 318 361 q 369 222 318 269 q 503 174 419 174 q 636 222 586 174 q 686 361 686 269 l 686 978 l 911 978 l 911 354 q 883 206 911 275 q 803 88 856 138 q 675 8 751 38 q 503 -21 599 -21 m 501 1276 l 586 1071 l 419 1071 l 275 1276 l 501 1276 z "},"Ú":{"ha":1004,"x_min":93,"x_max":911,"o":"m 503 -21 q 330 8 407 -21 q 201 88 253 38 q 121 206 149 138 q 93 354 93 275 l 93 978 l 318 978 l 318 361 q 369 222 318 269 q 503 174 419 174 q 636 222 586 174 q 686 361 686 269 l 686 978 l 911 978 l 911 354 q 883 206 911 275 q 803 88 856 138 q 675 8 751 38 q 503 -21 599 -21 m 504 1276 l 731 1276 l 586 1071 l 419 1071 l 504 1276 z "},"Û":{"ha":1004,"x_min":93,"x_max":911,"o":"m 503 -21 q 330 8 407 -21 q 201 88 253 38 q 121 206 149 138 q 93 354 93 275 l 93 978 l 318 978 l 318 361 q 369 222 318 269 q 503 174 419 174 q 636 222 586 174 q 686 361 686 269 l 686 978 l 911 978 l 911 354 q 883 206 911 275 q 803 88 856 138 q 675 8 751 38 q 503 -21 599 -21 m 792 1071 l 594 1071 l 511 1172 l 501 1172 l 422 1071 l 253 1071 l 417 1276 l 629 1276 l 792 1071 z "},"Ü":{"ha":1004,"x_min":93,"x_max":911,"o":"m 503 -21 q 330 8 407 -21 q 201 88 253 38 q 121 206 149 138 q 93 354 93 275 l 93 978 l 318 978 l 318 361 q 369 222 318 269 q 503 174 419 174 q 636 222 586 174 q 686 361 686 269 l 686 978 l 911 978 l 911 354 q 883 206 911 275 q 803 88 856 138 q 675 8 751 38 q 503 -21 599 -21 m 369 1074 l 364 1074 q 289 1104 319 1074 q 258 1176 258 1135 q 289 1249 258 1219 q 364 1279 319 1279 l 369 1279 q 444 1249 414 1279 q 475 1176 475 1219 q 444 1104 475 1135 q 369 1074 414 1074 m 653 1074 l 647 1074 q 572 1104 603 1074 q 542 1176 542 1135 q 572 1249 542 1219 q 647 1279 603 1279 l 653 1279 q 728 1249 697 1279 q 758 1176 758 1219 q 728 1104 758 1135 q 653 1074 697 1074 z "},"Ý":{"ha":897,"x_min":0,"x_max":914,"o":"m 343 0 l 343 364 l 0 978 l 243 978 l 457 582 l 460 582 l 674 978 l 914 978 l 568 364 l 568 0 l 343 0 m 453 1276 l 679 1276 l 535 1071 l 368 1071 l 453 1276 z "},"Þ":{"ha":947,"x_min":106,"x_max":919,"o":"m 106 0 l 106 978 l 331 978 l 331 839 l 567 839 q 719 815 653 839 q 829 749 785 790 q 897 649 874 707 q 919 525 919 592 q 897 401 919 458 q 829 301 874 343 q 719 235 785 260 q 567 211 653 211 l 331 211 l 331 0 l 106 0 m 692 518 l 692 532 q 658 618 692 589 q 560 647 624 647 l 331 647 l 331 403 l 560 403 q 658 433 624 403 q 692 518 692 463 z "},"ß":{"ha":900,"x_min":83,"x_max":853,"o":"m 83 0 l 83 688 q 181 938 83 844 q 443 1031 278 1031 q 689 953 600 1031 q 778 758 778 875 q 747 640 778 696 q 647 556 715 585 l 647 554 q 804 458 756 531 q 853 301 853 386 q 760 85 853 169 q 510 0 668 0 l 381 0 l 381 169 l 478 169 q 595 208 553 169 q 638 306 638 247 l 638 317 q 592 423 638 388 q 474 458 546 458 l 421 458 l 421 621 l 450 621 q 538 656 508 621 q 568 738 568 690 l 568 749 q 532 831 568 801 q 443 860 496 860 q 337 816 375 860 q 299 685 299 772 l 299 0 l 83 0 z "},"à":{"ha":819,"x_min":42,"x_max":803,"o":"m 64 517 q 163 688 76 622 q 397 753 249 753 q 517 739 460 753 q 619 694 575 725 q 689 611 663 663 q 715 485 715 560 l 715 210 q 726 175 715 183 q 760 167 738 167 l 803 167 l 803 0 l 689 0 q 576 33 610 0 q 542 119 542 67 l 542 121 l 540 121 q 453 19 514 57 q 304 -19 393 -19 q 115 41 188 -19 q 42 206 42 101 q 119 372 42 317 q 335 444 197 426 l 411 454 q 478 476 458 460 q 499 522 499 493 q 475 576 499 553 q 393 599 451 599 q 308 576 338 599 q 278 517 279 553 l 64 517 m 501 290 l 501 346 q 472 330 492 339 q 422 318 451 321 l 368 311 q 283 283 313 304 q 253 228 253 263 l 253 219 q 278 163 253 185 q 351 142 303 142 q 462 183 422 142 q 501 290 501 225 m 388 1031 l 472 825 l 306 825 l 161 1031 l 388 1031 z "},"á":{"ha":819,"x_min":42,"x_max":803,"o":"m 64 517 q 163 688 76 622 q 397 753 249 753 q 517 739 460 753 q 619 694 575 725 q 689 611 663 663 q 715 485 715 560 l 715 210 q 726 175 715 183 q 760 167 738 167 l 803 167 l 803 0 l 689 0 q 576 33 610 0 q 542 119 542 67 l 542 121 l 540 121 q 453 19 514 57 q 304 -19 393 -19 q 115 41 188 -19 q 42 206 42 101 q 119 372 42 317 q 335 444 197 426 l 411 454 q 478 476 458 460 q 499 522 499 493 q 475 576 499 553 q 393 599 451 599 q 308 576 338 599 q 278 517 279 553 l 64 517 m 501 290 l 501 346 q 472 330 492 339 q 422 318 451 321 l 368 311 q 283 283 313 304 q 253 228 253 263 l 253 219 q 278 163 253 185 q 351 142 303 142 q 462 183 422 142 q 501 290 501 225 m 390 1031 l 617 1031 l 472 825 l 306 825 l 390 1031 z "},"â":{"ha":819,"x_min":42,"x_max":803,"o":"m 64 517 q 163 688 76 622 q 397 753 249 753 q 517 739 460 753 q 619 694 575 725 q 689 611 663 663 q 715 485 715 560 l 715 210 q 726 175 715 183 q 760 167 738 167 l 803 167 l 803 0 l 689 0 q 576 33 610 0 q 542 119 542 67 l 542 121 l 540 121 q 453 19 514 57 q 304 -19 393 -19 q 115 41 188 -19 q 42 206 42 101 q 119 372 42 317 q 335 444 197 426 l 411 454 q 478 476 458 460 q 499 522 499 493 q 475 576 499 553 q 393 599 451 599 q 308 576 338 599 q 278 517 279 553 l 64 517 m 501 290 l 501 346 q 472 330 492 339 q 422 318 451 321 l 368 311 q 283 283 313 304 q 253 228 253 263 l 253 219 q 278 163 253 185 q 351 142 303 142 q 462 183 422 142 q 501 290 501 225 m 678 825 l 481 825 l 397 926 l 388 926 l 308 825 l 139 825 l 303 1031 l 515 1031 l 678 825 z "},"ã":{"ha":819,"x_min":42,"x_max":803,"o":"m 64 517 q 163 688 76 622 q 397 753 249 753 q 517 739 460 753 q 619 694 575 725 q 689 611 663 663 q 715 485 715 560 l 715 210 q 726 175 715 183 q 760 167 738 167 l 803 167 l 803 0 l 689 0 q 576 33 610 0 q 542 119 542 67 l 542 121 l 540 121 q 453 19 514 57 q 304 -19 393 -19 q 115 41 188 -19 q 42 206 42 101 q 119 372 42 317 q 335 444 197 426 l 411 454 q 478 476 458 460 q 499 522 499 493 q 475 576 499 553 q 393 599 451 599 q 308 576 338 599 q 278 517 279 553 l 64 517 m 501 290 l 501 346 q 472 330 492 339 q 422 318 451 321 l 368 311 q 283 283 313 304 q 253 228 253 263 l 253 219 q 278 163 253 185 q 351 142 303 142 q 462 183 422 142 q 501 290 501 225 m 481 825 q 413 838 440 825 q 365 867 386 851 q 326 897 344 883 q 285 910 308 910 q 242 893 256 910 q 229 843 229 876 l 126 843 l 126 853 q 170 984 126 938 q 293 1031 214 1031 l 294 1031 q 364 1017 336 1031 q 413 988 392 1004 q 453 959 433 972 q 497 946 472 946 q 538 963 525 946 q 551 1010 551 979 l 654 1010 l 654 1001 q 609 872 654 918 q 482 825 564 825 l 481 825 z "},"ä":{"ha":819,"x_min":42,"x_max":803,"o":"m 64 517 q 163 688 76 622 q 397 753 249 753 q 517 739 460 753 q 619 694 575 725 q 689 611 663 663 q 715 485 715 560 l 715 210 q 726 175 715 183 q 760 167 738 167 l 803 167 l 803 0 l 689 0 q 576 33 610 0 q 542 119 542 67 l 542 121 l 540 121 q 453 19 514 57 q 304 -19 393 -19 q 115 41 188 -19 q 42 206 42 101 q 119 372 42 317 q 335 444 197 426 l 411 454 q 478 476 458 460 q 499 522 499 493 q 475 576 499 553 q 393 599 451 599 q 308 576 338 599 q 278 517 279 553 l 64 517 m 501 290 l 501 346 q 472 330 492 339 q 422 318 451 321 l 368 311 q 283 283 313 304 q 253 228 253 263 l 253 219 q 278 163 253 185 q 351 142 303 142 q 462 183 422 142 q 501 290 501 225 m 256 828 l 250 828 q 175 858 206 828 q 144 931 144 889 q 175 1003 144 974 q 250 1033 206 1033 l 256 1033 q 331 1003 300 1033 q 361 931 361 974 q 331 858 361 889 q 256 828 300 828 m 539 828 l 533 828 q 458 858 489 828 q 428 931 428 889 q 458 1003 428 974 q 533 1033 489 1033 l 539 1033 q 614 1003 583 1033 q 644 931 644 974 q 614 858 644 889 q 539 828 583 828 z "},"å":{"ha":819,"x_min":42,"x_max":803,"o":"m 64 517 q 163 688 76 622 q 397 753 249 753 q 517 739 460 753 q 619 694 575 725 q 689 611 663 663 q 715 485 715 560 l 715 210 q 726 175 715 183 q 760 167 738 167 l 803 167 l 803 0 l 689 0 q 576 33 610 0 q 542 119 542 67 l 542 121 l 540 121 q 453 19 514 57 q 304 -19 393 -19 q 115 41 188 -19 q 42 206 42 101 q 119 372 42 317 q 335 444 197 426 l 411 454 q 478 476 458 460 q 499 522 499 493 q 475 576 499 553 q 393 599 451 599 q 308 576 338 599 q 278 517 279 553 l 64 517 m 501 290 l 501 346 q 472 330 492 339 q 422 318 451 321 l 368 311 q 283 283 313 304 q 253 228 253 263 l 253 219 q 278 163 253 185 q 351 142 303 142 q 462 183 422 142 q 501 290 501 225 m 393 825 q 259 874 317 825 q 201 1001 201 922 q 259 1130 201 1081 q 393 1179 317 1179 q 526 1130 469 1179 q 583 1001 583 1081 q 526 874 583 922 q 393 825 469 825 m 393 925 q 446 944 425 925 q 467 1001 467 963 q 446 1060 467 1040 q 393 1079 425 1079 q 339 1060 360 1079 q 318 1001 318 1040 q 339 944 318 963 q 393 925 360 925 z "},"æ":{"ha":1292,"x_min":42,"x_max":1244,"o":"m 633 621 l 635 621 q 736 716 674 679 q 894 753 799 753 q 1048 722 982 753 q 1157 640 1114 690 q 1222 523 1200 589 q 1244 388 1244 457 l 1244 310 l 724 310 q 773 185 725 229 q 892 140 821 140 q 981 167 951 140 q 1015 222 1011 193 l 1229 222 q 1121 47 1213 114 q 901 -19 1029 -19 q 709 37 782 -19 q 601 181 636 93 l 600 181 q 496 35 578 89 q 304 -19 414 -19 q 115 41 188 -19 q 42 206 42 101 q 119 372 42 317 q 335 444 197 426 l 411 454 q 478 476 458 460 q 499 522 499 493 q 475 576 499 553 q 393 599 451 599 q 308 576 338 599 q 278 517 279 553 l 64 517 q 160 688 76 622 q 382 753 243 753 q 533 722 468 753 q 633 621 599 692 m 879 593 q 777 556 819 593 q 725 451 735 519 l 1026 451 q 981 557 1022 521 q 879 593 939 593 m 501 290 l 501 346 q 472 330 492 339 q 422 318 451 321 l 368 311 q 283 283 313 304 q 253 228 253 263 l 253 219 q 278 163 253 185 q 351 142 303 142 q 462 183 422 142 q 501 290 501 225 z "},"ç":{"ha":800,"x_min":47,"x_max":753,"o":"m 264 401 l 264 331 q 307 203 264 249 q 415 157 350 157 q 504 187 474 157 q 543 253 535 217 l 753 253 q 647 55 736 129 q 417 -19 557 -19 q 252 13 322 -19 q 137 97 182 44 q 69 220 92 150 q 47 367 47 290 q 69 513 47 443 q 137 636 92 583 q 252 721 182 689 q 417 753 322 753 q 647 678 557 753 q 753 479 736 604 l 543 479 q 504 545 535 515 q 415 575 474 575 q 307 528 350 575 q 264 401 264 482 m 267 -317 l 267 -231 l 399 -231 q 448 -223 425 -231 q 471 -192 471 -215 q 449 -160 471 -168 q 386 -153 428 -153 l 329 -153 l 329 -82 l 363 7 l 478 7 l 446 -72 q 579 -103 529 -72 q 629 -185 629 -133 q 583 -284 629 -253 q 464 -317 536 -315 l 267 -317 z "},"è":{"ha":831,"x_min":47,"x_max":783,"o":"m 426 -19 q 258 13 331 -19 q 140 99 186 46 q 70 222 93 151 q 47 367 47 292 q 69 510 47 440 q 138 634 92 581 q 254 720 183 688 q 419 753 325 753 q 580 722 511 753 q 694 640 649 690 q 761 523 739 589 q 783 388 783 457 l 783 310 l 265 310 q 314 185 267 229 q 432 140 361 140 q 521 166 490 140 q 554 221 551 192 l 769 221 q 660 47 754 113 q 426 -19 565 -19 m 419 593 q 317 556 358 593 q 267 451 275 519 l 565 451 q 522 557 563 521 q 419 593 482 593 m 419 1032 l 504 826 l 338 826 l 193 1032 l 419 1032 z "},"é":{"ha":831,"x_min":47,"x_max":783,"o":"m 426 -19 q 258 13 331 -19 q 140 99 186 46 q 70 222 93 151 q 47 367 47 292 q 69 510 47 440 q 138 634 92 581 q 254 720 183 688 q 419 753 325 753 q 580 722 511 753 q 694 640 649 690 q 761 523 739 589 q 783 388 783 457 l 783 310 l 265 310 q 314 185 267 229 q 432 140 361 140 q 521 166 490 140 q 554 221 551 192 l 769 221 q 660 47 754 113 q 426 -19 565 -19 m 419 593 q 317 556 358 593 q 267 451 275 519 l 565 451 q 522 557 563 521 q 419 593 482 593 m 422 1032 l 649 1032 l 504 826 l 338 826 l 422 1032 z "},"ê":{"ha":831,"x_min":47,"x_max":783,"o":"m 426 -19 q 258 13 331 -19 q 140 99 186 46 q 70 222 93 151 q 47 367 47 292 q 69 510 47 440 q 138 634 92 581 q 254 720 183 688 q 419 753 325 753 q 580 722 511 753 q 694 640 649 690 q 761 523 739 589 q 783 388 783 457 l 783 310 l 265 310 q 314 185 267 229 q 432 140 361 140 q 521 166 490 140 q 554 221 551 192 l 769 221 q 660 47 754 113 q 426 -19 565 -19 m 419 593 q 317 556 358 593 q 267 451 275 519 l 565 451 q 522 557 563 521 q 419 593 482 593 m 710 826 l 513 826 l 429 928 l 419 928 l 340 826 l 171 826 l 335 1032 l 547 1032 l 710 826 z "},"ë":{"ha":831,"x_min":47,"x_max":783,"o":"m 426 -19 q 258 13 331 -19 q 140 99 186 46 q 70 222 93 151 q 47 367 47 292 q 69 510 47 440 q 138 634 92 581 q 254 720 183 688 q 419 753 325 753 q 580 722 511 753 q 694 640 649 690 q 761 523 739 589 q 783 388 783 457 l 783 310 l 265 310 q 314 185 267 229 q 432 140 361 140 q 521 166 490 140 q 554 221 551 192 l 769 221 q 660 47 754 113 q 426 -19 565 -19 m 419 593 q 317 556 358 593 q 267 451 275 519 l 565 451 q 522 557 563 521 q 419 593 482 593 m 288 829 l 282 829 q 207 860 238 829 q 176 932 176 890 q 207 1005 176 975 q 282 1035 238 1035 l 288 1035 q 363 1005 332 1035 q 393 932 393 975 q 363 860 393 890 q 288 829 332 829 m 571 829 l 565 829 q 490 860 521 829 q 460 932 460 890 q 490 1005 460 975 q 565 1035 521 1035 l 571 1035 q 646 1005 615 1035 q 676 932 676 975 q 646 860 676 890 q 571 829 615 829 z "},"ì":{"ha":388,"x_min":-33,"x_max":303,"o":"m 85 733 l 303 733 l 303 0 l 85 0 l 85 733 m 193 1032 l 278 826 l 111 826 l -33 1032 l 193 1032 z "},"í":{"ha":388,"x_min":85,"x_max":422,"o":"m 85 733 l 303 733 l 303 0 l 85 0 l 85 733 m 196 1032 l 422 1032 l 278 826 l 111 826 l 196 1032 z "},"î":{"ha":388,"x_min":-56,"x_max":483,"o":"m 85 733 l 303 733 l 303 0 l 85 0 l 85 733 m 483 826 l 286 826 l 203 928 l 193 928 l 114 826 l -56 826 l 108 1032 l 321 1032 l 483 826 z "},"ï":{"ha":388,"x_min":-50,"x_max":450,"o":"m 85 733 l 303 733 l 303 0 l 85 0 l 85 733 m 61 829 l 56 829 q -19 860 11 829 q -50 932 -50 890 q -19 1005 -50 975 q 56 1035 11 1035 l 61 1035 q 136 1005 106 1035 q 167 932 167 975 q 136 860 167 890 q 61 829 106 829 m 344 829 l 339 829 q 264 860 294 829 q 233 932 233 890 q 264 1005 233 975 q 339 1035 294 1035 l 344 1035 q 419 1005 389 1035 q 450 932 450 975 q 419 860 450 890 q 344 829 389 829 z "},"ð":{"ha":836,"x_min":47,"x_max":789,"o":"m 131 700 l 131 801 l 313 861 q 255 898 285 879 q 193 935 225 917 l 324 1056 q 424 993 376 1025 q 513 926 472 961 l 710 992 l 710 890 l 593 851 q 739 622 689 747 q 789 353 789 497 q 767 214 789 282 q 699 94 744 146 q 583 12 653 43 q 418 -19 513 -19 q 253 10 324 -19 q 138 90 183 40 q 69 203 92 139 q 47 335 47 267 q 67 458 47 399 q 127 563 88 517 q 227 636 167 608 q 368 664 288 664 q 509 622 451 664 q 597 514 567 579 l 599 514 q 527 661 576 593 q 406 790 478 729 l 131 700 m 571 317 l 571 338 q 527 456 571 415 q 418 497 483 497 q 309 455 353 497 q 265 338 265 413 l 265 317 q 309 199 265 242 q 418 157 353 157 q 527 198 483 157 q 571 317 571 239 z "},"ñ":{"ha":863,"x_min":85,"x_max":782,"o":"m 303 433 l 303 0 l 85 0 l 85 733 l 289 733 l 289 622 l 290 622 q 377 719 318 686 q 511 753 436 753 q 706 674 629 753 q 782 461 782 594 l 782 0 l 564 0 l 564 435 q 524 536 564 503 q 435 569 483 569 q 344 536 385 569 q 303 433 303 503 m 536 826 q 469 840 496 826 q 421 869 442 853 q 382 898 400 885 q 340 911 364 911 q 298 894 311 911 q 285 844 285 878 l 182 844 l 182 854 q 226 985 182 939 q 349 1032 269 1032 l 350 1032 q 419 1019 392 1032 q 468 990 447 1006 q 508 960 489 974 q 553 947 528 947 q 594 964 581 947 q 607 1011 607 981 l 710 1011 l 710 1003 q 665 873 710 919 q 538 826 619 826 l 536 826 z "},"ò":{"ha":847,"x_min":47,"x_max":800,"o":"m 424 -19 q 256 13 328 -19 q 139 99 185 46 q 70 223 93 153 q 47 367 47 293 q 70 510 47 440 q 139 634 93 581 q 256 720 185 688 q 424 753 328 753 q 591 720 519 753 q 708 634 663 688 q 777 510 754 581 q 800 367 800 440 q 777 223 800 293 q 708 99 754 153 q 591 13 663 46 q 424 -19 519 -19 m 582 332 l 582 401 q 537 530 582 485 q 424 575 492 575 q 310 529 356 575 q 265 401 265 483 l 265 332 q 310 204 265 250 q 424 158 356 158 q 537 203 492 158 q 582 332 582 249 m 424 1031 l 508 825 l 342 825 l 197 1031 l 424 1031 z "},"ó":{"ha":847,"x_min":47,"x_max":800,"o":"m 424 -19 q 256 13 328 -19 q 139 99 185 46 q 70 223 93 153 q 47 367 47 293 q 70 510 47 440 q 139 634 93 581 q 256 720 185 688 q 424 753 328 753 q 591 720 519 753 q 708 634 663 688 q 777 510 754 581 q 800 367 800 440 q 777 223 800 293 q 708 99 754 153 q 591 13 663 46 q 424 -19 519 -19 m 582 332 l 582 401 q 537 530 582 485 q 424 575 492 575 q 310 529 356 575 q 265 401 265 483 l 265 332 q 310 204 265 250 q 424 158 356 158 q 537 203 492 158 q 582 332 582 249 m 426 1031 l 653 1031 l 508 825 l 342 825 l 426 1031 z "},"ô":{"ha":847,"x_min":47,"x_max":800,"o":"m 424 -19 q 256 13 328 -19 q 139 99 185 46 q 70 223 93 153 q 47 367 47 293 q 70 510 47 440 q 139 634 93 581 q 256 720 185 688 q 424 753 328 753 q 591 720 519 753 q 708 634 663 688 q 777 510 754 581 q 800 367 800 440 q 777 223 800 293 q 708 99 754 153 q 591 13 663 46 q 424 -19 519 -19 m 582 332 l 582 401 q 537 530 582 485 q 424 575 492 575 q 310 529 356 575 q 265 401 265 483 l 265 332 q 310 204 265 250 q 424 158 356 158 q 537 203 492 158 q 582 332 582 249 m 714 825 l 517 825 l 433 926 l 424 926 l 344 825 l 175 825 l 339 1031 l 551 1031 l 714 825 z "},"õ":{"ha":847,"x_min":47,"x_max":800,"o":"m 424 -19 q 256 13 328 -19 q 139 99 185 46 q 70 223 93 153 q 47 367 47 293 q 70 510 47 440 q 139 634 93 581 q 256 720 185 688 q 424 753 328 753 q 591 720 519 753 q 708 634 663 688 q 777 510 754 581 q 800 367 800 440 q 777 223 800 293 q 708 99 754 153 q 591 13 663 46 q 424 -19 519 -19 m 582 332 l 582 401 q 537 530 582 485 q 424 575 492 575 q 310 529 356 575 q 265 401 265 483 l 265 332 q 310 204 265 250 q 424 158 356 158 q 537 203 492 158 q 582 332 582 249 m 517 825 q 449 838 476 825 q 401 867 422 851 q 363 897 381 883 q 321 910 344 910 q 278 893 292 910 q 265 843 265 876 l 163 843 l 163 853 q 206 984 163 938 q 329 1031 250 1031 l 331 1031 q 400 1017 372 1031 q 449 988 428 1004 q 489 959 469 972 q 533 946 508 946 q 574 963 561 946 q 588 1010 588 979 l 690 1010 l 690 1001 q 645 872 690 918 q 518 825 600 825 l 517 825 z "},"ö":{"ha":847,"x_min":47,"x_max":800,"o":"m 424 -19 q 256 13 328 -19 q 139 99 185 46 q 70 223 93 153 q 47 367 47 293 q 70 510 47 440 q 139 634 93 581 q 256 720 185 688 q 424 753 328 753 q 591 720 519 753 q 708 634 663 688 q 777 510 754 581 q 800 367 800 440 q 777 223 800 293 q 708 99 754 153 q 591 13 663 46 q 424 -19 519 -19 m 582 332 l 582 401 q 537 530 582 485 q 424 575 492 575 q 310 529 356 575 q 265 401 265 483 l 265 332 q 310 204 265 250 q 424 158 356 158 q 537 203 492 158 q 582 332 582 249 m 292 828 l 286 828 q 211 858 242 828 q 181 931 181 889 q 211 1003 181 974 q 286 1033 242 1033 l 292 1033 q 367 1003 336 1033 q 397 931 397 974 q 367 858 397 889 q 292 828 336 828 m 575 828 l 569 828 q 494 858 525 828 q 464 931 464 889 q 494 1003 464 974 q 569 1033 525 1033 l 575 1033 q 650 1003 619 1033 q 681 931 681 974 q 650 858 681 889 q 575 828 619 828 z "},"÷":{"ha":911,"x_min":69,"x_max":842,"o":"m 456 596 q 374 630 408 596 q 340 711 340 664 q 374 792 340 758 q 456 826 408 826 q 538 792 503 826 q 572 711 572 758 q 538 630 572 664 q 456 596 503 596 m 69 354 l 69 535 l 842 535 l 842 354 l 69 354 m 456 61 q 374 95 408 61 q 340 176 340 129 q 374 258 340 224 q 456 292 408 292 q 538 258 503 292 q 572 176 572 224 q 538 95 572 129 q 456 61 503 61 z "},"ø":{"ha":847,"x_min":28,"x_max":819,"o":"m 28 -12 l 129 111 q 67 229 88 163 q 47 367 47 296 q 70 510 47 440 q 139 634 93 581 q 256 720 185 688 q 424 753 328 753 q 533 740 483 753 q 622 704 582 726 l 724 828 l 819 746 l 717 622 q 780 503 760 569 q 800 367 800 436 q 777 223 800 293 q 708 99 754 153 q 591 13 663 46 q 424 -19 519 -19 q 315 -7 364 -19 q 225 28 265 6 l 124 -94 l 28 -12 m 265 332 q 267 306 265 318 q 271 281 268 293 l 500 557 q 464 571 483 567 q 424 575 444 575 q 310 529 356 575 q 265 401 265 483 l 265 332 m 582 332 l 582 401 q 581 428 582 415 q 576 453 579 442 l 347 176 q 383 163 364 167 q 424 158 403 158 q 537 203 492 158 q 582 332 582 249 z "},"ù":{"ha":863,"x_min":78,"x_max":775,"o":"m 557 300 l 557 733 l 775 733 l 775 0 l 571 0 l 571 111 l 569 111 q 483 14 542 47 q 349 -19 424 -19 q 154 60 231 -19 q 78 272 78 139 l 78 733 l 296 733 l 296 299 q 336 197 296 231 q 425 164 376 164 q 516 197 475 164 q 557 300 557 231 m 429 1032 l 514 826 l 347 826 l 203 1032 l 429 1032 z "},"ú":{"ha":863,"x_min":78,"x_max":775,"o":"m 557 300 l 557 733 l 775 733 l 775 0 l 571 0 l 571 111 l 569 111 q 483 14 542 47 q 349 -19 424 -19 q 154 60 231 -19 q 78 272 78 139 l 78 733 l 296 733 l 296 299 q 336 197 296 231 q 425 164 376 164 q 516 197 475 164 q 557 300 557 231 m 432 1032 l 658 1032 l 514 826 l 347 826 l 432 1032 z "},"û":{"ha":863,"x_min":78,"x_max":775,"o":"m 557 300 l 557 733 l 775 733 l 775 0 l 571 0 l 571 111 l 569 111 q 483 14 542 47 q 349 -19 424 -19 q 154 60 231 -19 q 78 272 78 139 l 78 733 l 296 733 l 296 299 q 336 197 296 231 q 425 164 376 164 q 516 197 475 164 q 557 300 557 231 m 719 826 l 522 826 l 439 928 l 429 928 l 350 826 l 181 826 l 344 1032 l 557 1032 l 719 826 z "},"ü":{"ha":863,"x_min":78,"x_max":775,"o":"m 557 300 l 557 733 l 775 733 l 775 0 l 571 0 l 571 111 l 569 111 q 483 14 542 47 q 349 -19 424 -19 q 154 60 231 -19 q 78 272 78 139 l 78 733 l 296 733 l 296 299 q 336 197 296 231 q 425 164 376 164 q 516 197 475 164 q 557 300 557 231 m 297 829 l 292 829 q 217 860 247 829 q 186 932 186 890 q 217 1005 186 975 q 292 1035 247 1035 l 297 1035 q 372 1005 342 1035 q 403 932 403 975 q 372 860 403 890 q 297 829 342 829 m 581 829 l 575 829 q 500 860 531 829 q 469 932 469 890 q 500 1005 469 975 q 575 1035 531 1035 l 581 1035 q 656 1005 625 1035 q 686 932 686 975 q 656 860 686 890 q 581 829 625 829 z "},"ý":{"ha":772,"x_min":3,"x_max":769,"o":"m 489 -42 q 369 -216 443 -167 q 186 -265 294 -265 l 11 -265 l 11 -90 l 175 -90 q 229 -78 207 -90 q 265 -26 251 -65 l 282 22 l 3 733 l 243 733 l 397 267 l 399 267 l 551 733 l 769 733 l 489 -42 m 404 1032 l 631 1032 l 486 826 l 319 826 l 404 1032 z "},"þ":{"ha":883,"x_min":83,"x_max":836,"o":"m 83 -262 l 83 1031 l 301 1031 l 301 644 l 303 644 q 386 723 333 693 q 518 753 439 753 q 659 720 599 753 q 758 634 719 688 q 817 510 797 581 q 836 367 836 440 q 817 222 836 292 q 758 99 797 151 q 658 13 718 46 q 518 -19 599 -19 q 375 16 431 -19 q 289 111 319 51 l 288 111 l 288 -262 l 83 -262 m 618 331 l 618 400 q 572 528 618 483 q 460 574 526 574 q 347 528 393 574 q 301 400 301 482 l 301 331 q 347 203 301 249 q 460 157 393 157 q 572 202 526 157 q 618 331 618 247 z "},"ÿ":{"ha":772,"x_min":3,"x_max":769,"o":"m 489 -42 q 369 -216 443 -167 q 186 -265 294 -265 l 11 -265 l 11 -90 l 175 -90 q 229 -78 207 -90 q 265 -26 251 -65 l 282 22 l 3 733 l 243 733 l 397 267 l 399 267 l 551 733 l 769 733 l 489 -42 m 269 829 l 264 829 q 189 860 219 829 q 158 932 158 890 q 189 1005 158 975 q 264 1035 219 1035 l 269 1035 q 344 1005 314 1035 q 375 932 375 975 q 344 860 375 890 q 269 829 314 829 m 553 829 l 547 829 q 472 860 503 829 q 442 932 442 890 q 472 1005 442 975 q 547 1035 503 1035 l 553 1035 q 628 1005 597 1035 q 658 932 658 975 q 628 860 658 890 q 553 829 597 829 z "},"Ā":{"ha":986,"x_min":0,"x_max":986,"o":"m 746 0 l 685 176 l 292 176 l 232 0 l 0 0 l 363 978 l 624 978 l 986 0 l 746 0 m 485 742 l 358 371 l 617 371 l 488 742 l 485 742 m 303 1254 l 694 1254 l 694 1114 l 303 1114 l 303 1254 z "},"ā":{"ha":819,"x_min":42,"x_max":803,"o":"m 64 517 q 163 688 76 622 q 397 753 249 753 q 517 739 460 753 q 619 694 575 725 q 689 611 663 663 q 715 485 715 560 l 715 210 q 726 175 715 183 q 760 167 738 167 l 803 167 l 803 0 l 689 0 q 576 33 610 0 q 542 119 542 67 l 542 121 l 540 121 q 453 19 514 57 q 304 -19 393 -19 q 115 41 188 -19 q 42 206 42 101 q 119 372 42 317 q 335 444 197 426 l 411 454 q 478 476 458 460 q 499 522 499 493 q 475 576 499 553 q 393 599 451 599 q 308 576 338 599 q 278 517 279 553 l 64 517 m 501 290 l 501 346 q 472 330 492 339 q 422 318 451 321 l 368 311 q 283 283 313 304 q 253 228 253 263 l 253 219 q 278 163 253 185 q 351 142 303 142 q 462 183 422 142 q 501 290 501 225 m 193 1008 l 585 1008 l 585 868 l 193 868 l 193 1008 z "},"Ă":{"ha":986,"x_min":0,"x_max":986,"o":"m 746 0 l 685 176 l 292 176 l 232 0 l 0 0 l 363 978 l 624 978 l 986 0 l 746 0 m 485 742 l 358 371 l 617 371 l 488 742 l 485 742 m 486 1071 q 313 1131 375 1071 q 250 1276 250 1192 l 417 1276 q 438 1222 417 1240 q 496 1204 460 1204 q 552 1223 533 1204 q 571 1276 571 1242 l 736 1276 q 674 1132 736 1193 q 504 1071 613 1071 l 486 1071 z "},"ă":{"ha":819,"x_min":42,"x_max":803,"o":"m 64 517 q 163 688 76 622 q 397 753 249 753 q 517 739 460 753 q 619 694 575 725 q 689 611 663 663 q 715 485 715 560 l 715 210 q 726 175 715 183 q 760 167 738 167 l 803 167 l 803 0 l 689 0 q 576 33 610 0 q 542 119 542 67 l 542 121 l 540 121 q 453 19 514 57 q 304 -19 393 -19 q 115 41 188 -19 q 42 206 42 101 q 119 372 42 317 q 335 444 197 426 l 411 454 q 478 476 458 460 q 499 522 499 493 q 475 576 499 553 q 393 599 451 599 q 308 576 338 599 q 278 517 279 553 l 64 517 m 501 290 l 501 346 q 472 330 492 339 q 422 318 451 321 l 368 311 q 283 283 313 304 q 253 228 253 263 l 253 219 q 278 163 253 185 q 351 142 303 142 q 462 183 422 142 q 501 290 501 225 m 376 825 q 203 885 265 825 q 140 1031 140 946 l 307 1031 q 328 976 307 994 q 386 958 350 958 q 442 977 424 958 q 461 1031 461 996 l 626 1031 q 565 886 626 947 q 394 825 503 825 l 376 825 z "},"Ą":{"ha":986,"x_min":0,"x_max":986,"o":"m 746 0 l 685 176 l 292 176 l 232 0 l 0 0 l 363 978 l 624 978 l 986 0 l 746 0 m 485 742 l 358 371 l 617 371 l 488 742 l 485 742 m 853 47 l 853 0 q 787 -51 811 -31 q 763 -97 763 -72 q 777 -126 763 -115 q 826 -137 792 -137 l 928 -137 l 928 -276 l 769 -276 q 652 -237 690 -276 q 614 -146 614 -197 q 674 -44 614 -90 q 853 47 733 3 z "},"ą":{"ha":819,"x_min":42,"x_max":878,"o":"m 64 517 q 163 688 76 622 q 397 753 249 753 q 517 739 460 753 q 619 694 575 725 q 689 611 663 663 q 715 485 715 560 l 715 210 q 726 175 715 183 q 760 167 738 167 l 803 167 l 803 0 l 689 0 q 576 33 610 0 q 542 119 542 67 l 542 121 l 540 121 q 453 19 514 57 q 304 -19 393 -19 q 115 41 188 -19 q 42 206 42 101 q 119 372 42 317 q 335 444 197 426 l 411 454 q 478 476 458 460 q 499 522 499 493 q 475 576 499 553 q 393 599 451 599 q 308 576 338 599 q 278 517 279 553 l 64 517 m 501 290 l 501 346 q 472 330 492 339 q 422 318 451 321 l 368 311 q 283 283 313 304 q 253 228 253 263 l 253 219 q 278 163 253 185 q 351 142 303 142 q 462 183 422 142 q 501 290 501 225 m 803 47 l 803 0 q 737 -51 761 -31 q 713 -97 713 -72 q 727 -126 713 -115 q 776 -137 742 -137 l 878 -137 l 878 -276 l 719 -276 q 602 -237 640 -276 q 564 -146 564 -197 q 624 -44 564 -90 q 803 47 683 3 z "},"Ć":{"ha":978,"x_min":51,"x_max":943,"o":"m 514 176 q 653 222 607 176 q 708 322 699 267 l 943 322 q 805 75 918 169 q 522 -19 692 -19 q 319 19 408 -19 q 172 126 231 58 q 82 288 113 194 q 51 489 51 382 q 82 688 51 594 q 172 851 113 782 q 320 959 232 919 q 522 999 408 999 q 678 974 607 999 q 804 905 750 949 q 894 801 858 861 q 940 669 929 740 l 703 669 q 644 765 692 728 q 514 803 597 803 q 350 731 418 803 q 282 526 282 660 l 282 453 q 350 248 282 319 q 514 176 418 176 m 522 1276 l 749 1276 l 604 1071 l 438 1071 l 522 1276 z "},"ć":{"ha":800,"x_min":47,"x_max":753,"o":"m 264 401 l 264 331 q 307 203 264 249 q 415 157 350 157 q 504 187 474 157 q 543 253 535 217 l 753 253 q 647 55 736 129 q 417 -19 557 -19 q 252 13 322 -19 q 137 97 182 44 q 69 220 92 150 q 47 367 47 290 q 69 513 47 443 q 137 636 92 583 q 252 721 182 689 q 417 753 322 753 q 647 678 557 753 q 753 479 736 604 l 543 479 q 504 545 535 515 q 415 575 474 575 q 307 528 350 575 q 264 401 264 482 m 422 1032 l 649 1032 l 504 826 l 338 826 l 422 1032 z "},"Ĉ":{"ha":978,"x_min":51,"x_max":943,"o":"m 514 176 q 653 222 607 176 q 708 322 699 267 l 943 322 q 805 75 918 169 q 522 -19 692 -19 q 319 19 408 -19 q 172 126 231 58 q 82 288 113 194 q 51 489 51 382 q 82 688 51 594 q 172 851 113 782 q 320 959 232 919 q 522 999 408 999 q 678 974 607 999 q 804 905 750 949 q 894 801 858 861 q 940 669 929 740 l 703 669 q 644 765 692 728 q 514 803 597 803 q 350 731 418 803 q 282 526 282 660 l 282 453 q 350 248 282 319 q 514 176 418 176 m 810 1071 l 613 1071 l 529 1172 l 519 1172 l 440 1071 l 271 1071 l 435 1276 l 647 1276 l 810 1071 z "},"ĉ":{"ha":800,"x_min":47,"x_max":753,"o":"m 264 401 l 264 331 q 307 203 264 249 q 415 157 350 157 q 504 187 474 157 q 543 253 535 217 l 753 253 q 647 55 736 129 q 417 -19 557 -19 q 252 13 322 -19 q 137 97 182 44 q 69 220 92 150 q 47 367 47 290 q 69 513 47 443 q 137 636 92 583 q 252 721 182 689 q 417 753 322 753 q 647 678 557 753 q 753 479 736 604 l 543 479 q 504 545 535 515 q 415 575 474 575 q 307 528 350 575 q 264 401 264 482 m 710 826 l 513 826 l 429 928 l 419 928 l 340 826 l 171 826 l 335 1032 l 547 1032 l 710 826 z "},"Ċ":{"ha":978,"x_min":51,"x_max":943,"o":"m 514 176 q 653 222 607 176 q 708 322 699 267 l 943 322 q 805 75 918 169 q 522 -19 692 -19 q 319 19 408 -19 q 172 126 231 58 q 82 288 113 194 q 51 489 51 382 q 82 688 51 594 q 172 851 113 782 q 320 959 232 919 q 522 999 408 999 q 678 974 607 999 q 804 905 750 949 q 894 801 858 861 q 940 669 929 740 l 703 669 q 644 765 692 728 q 514 803 597 803 q 350 731 418 803 q 282 526 282 660 l 282 453 q 350 248 282 319 q 514 176 418 176 m 524 1074 l 518 1074 q 443 1104 474 1074 q 413 1176 413 1135 q 443 1249 413 1219 q 518 1279 474 1279 l 524 1279 q 599 1249 568 1279 q 629 1176 629 1219 q 599 1104 629 1135 q 524 1074 568 1074 z "},"ċ":{"ha":800,"x_min":47,"x_max":753,"o":"m 264 401 l 264 331 q 307 203 264 249 q 415 157 350 157 q 504 187 474 157 q 543 253 535 217 l 753 253 q 647 55 736 129 q 417 -19 557 -19 q 252 13 322 -19 q 137 97 182 44 q 69 220 92 150 q 47 367 47 290 q 69 513 47 443 q 137 636 92 583 q 252 721 182 689 q 417 753 322 753 q 647 678 557 753 q 753 479 736 604 l 543 479 q 504 545 535 515 q 415 575 474 575 q 307 528 350 575 q 264 401 264 482 m 424 829 l 418 829 q 343 860 374 829 q 313 932 313 890 q 343 1005 313 975 q 418 1035 374 1035 l 424 1035 q 499 1005 468 1035 q 529 932 529 975 q 499 860 529 890 q 424 829 468 829 z "},"Č":{"ha":978,"x_min":51,"x_max":943,"o":"m 514 176 q 653 222 607 176 q 708 322 699 267 l 943 322 q 805 75 918 169 q 522 -19 692 -19 q 319 19 408 -19 q 172 126 231 58 q 82 288 113 194 q 51 489 51 382 q 82 688 51 594 q 172 851 113 782 q 320 959 232 919 q 522 999 408 999 q 678 974 607 999 q 804 905 750 949 q 894 801 858 861 q 940 669 929 740 l 703 669 q 644 765 692 728 q 514 803 597 803 q 350 731 418 803 q 282 526 282 660 l 282 453 q 350 248 282 319 q 514 176 418 176 m 243 1276 l 440 1276 l 524 1175 l 533 1175 l 613 1276 l 782 1276 l 618 1071 l 406 1071 l 243 1276 z "},"č":{"ha":800,"x_min":47,"x_max":753,"o":"m 264 401 l 264 331 q 307 203 264 249 q 415 157 350 157 q 504 187 474 157 q 543 253 535 217 l 753 253 q 647 55 736 129 q 417 -19 557 -19 q 252 13 322 -19 q 137 97 182 44 q 69 220 92 150 q 47 367 47 290 q 69 513 47 443 q 137 636 92 583 q 252 721 182 689 q 417 753 322 753 q 647 678 557 753 q 753 479 736 604 l 543 479 q 504 545 535 515 q 415 575 474 575 q 307 528 350 575 q 264 401 264 482 m 143 1032 l 340 1032 l 424 931 l 433 931 l 513 1032 l 682 1032 l 518 826 l 306 826 l 143 1032 z "},"Ď":{"ha":1022,"x_min":106,"x_max":971,"o":"m 497 978 q 698 940 610 978 q 847 836 786 901 q 939 681 907 771 q 971 489 971 592 q 939 297 971 386 q 847 142 907 207 q 698 38 786 76 q 497 0 610 0 l 106 0 l 106 978 l 497 978 m 497 783 l 331 783 l 331 194 l 497 194 q 592 211 547 194 q 669 260 636 228 q 721 341 701 293 q 740 450 740 389 l 740 529 q 721 638 740 590 q 669 717 701 685 q 592 767 636 750 q 497 783 547 783 m 211 1276 l 408 1276 l 492 1175 l 501 1175 l 581 1276 l 750 1276 l 586 1071 l 374 1071 l 211 1276 z "},"ď":{"ha":1019,"x_min":47,"x_max":1172,"o":"m 800 0 l 596 0 l 596 111 l 594 111 q 508 16 564 51 q 365 -19 453 -19 q 225 13 285 -19 q 126 99 165 46 q 67 222 86 151 q 47 367 47 292 q 67 510 47 440 q 125 634 86 581 q 224 720 164 688 q 365 753 285 753 q 497 723 444 753 q 581 644 550 693 l 582 644 l 582 1031 l 800 1031 l 800 0 m 265 331 q 311 202 265 247 q 424 157 357 157 q 536 203 490 157 q 582 331 582 249 l 582 400 q 536 528 582 482 q 424 574 490 574 q 311 528 357 574 q 265 400 265 483 l 265 331 z "},"Đ":{"ha":1050,"x_min":42,"x_max":999,"o":"m 42 403 l 42 597 l 133 597 l 133 978 l 525 978 q 726 940 638 978 q 874 836 814 901 q 967 681 935 771 q 999 489 999 592 q 967 297 999 386 q 874 142 935 207 q 726 38 814 76 q 525 0 638 0 l 133 0 l 133 403 l 42 403 m 525 783 l 358 783 l 358 597 l 519 597 l 519 403 l 358 403 l 358 194 l 525 194 q 619 211 575 194 q 697 260 664 228 q 749 341 729 293 q 768 450 768 389 l 768 529 q 749 638 768 590 q 697 717 729 685 q 619 767 664 750 q 525 783 575 783 z "},"đ":{"ha":890,"x_min":47,"x_max":890,"o":"m 800 0 l 596 0 l 596 111 l 594 111 q 508 16 564 51 q 365 -19 453 -19 q 225 13 285 -19 q 126 99 165 46 q 67 222 86 151 q 47 367 47 292 q 67 510 47 440 q 125 634 86 581 q 224 720 164 688 q 365 753 285 753 q 497 723 444 753 q 581 644 550 693 l 582 644 l 582 810 l 386 810 l 386 933 l 582 933 l 582 1031 l 800 1031 l 800 933 l 890 933 l 890 810 l 800 810 l 800 0 m 265 331 q 311 202 265 247 q 424 157 357 157 q 536 203 490 157 q 582 331 582 249 l 582 400 q 536 528 582 482 q 424 574 490 574 q 311 528 357 574 q 265 400 265 483 l 265 331 z "},"Ē":{"ha":889,"x_min":106,"x_max":819,"o":"m 106 978 l 819 978 l 819 783 l 331 783 l 331 593 l 775 593 l 775 403 l 331 403 l 331 194 l 819 194 l 819 0 l 106 0 l 106 978 m 281 1254 l 672 1254 l 672 1114 l 281 1114 l 281 1254 z "},"ē":{"ha":831,"x_min":47,"x_max":783,"o":"m 426 -19 q 258 13 331 -19 q 140 99 186 46 q 70 222 93 151 q 47 367 47 292 q 69 510 47 440 q 138 634 92 581 q 254 720 183 688 q 419 753 325 753 q 580 722 511 753 q 694 640 649 690 q 761 523 739 589 q 783 388 783 457 l 783 310 l 265 310 q 314 185 267 229 q 432 140 361 140 q 521 166 490 140 q 554 221 551 192 l 769 221 q 660 47 754 113 q 426 -19 565 -19 m 419 593 q 317 556 358 593 q 267 451 275 519 l 565 451 q 522 557 563 521 q 419 593 482 593 m 225 1010 l 617 1010 l 617 869 l 225 869 l 225 1010 z "},"Ĕ":{"ha":889,"x_min":106,"x_max":819,"o":"m 106 978 l 819 978 l 819 783 l 331 783 l 331 593 l 775 593 l 775 403 l 331 403 l 331 194 l 819 194 l 819 0 l 106 0 l 106 978 m 464 1071 q 290 1131 353 1071 q 228 1276 228 1192 l 394 1276 q 416 1222 394 1240 q 474 1204 438 1204 q 530 1223 511 1204 q 549 1276 549 1242 l 714 1276 q 652 1132 714 1193 q 482 1071 590 1071 l 464 1071 z "},"ĕ":{"ha":831,"x_min":47,"x_max":783,"o":"m 426 -19 q 258 13 331 -19 q 140 99 186 46 q 70 222 93 151 q 47 367 47 292 q 69 510 47 440 q 138 634 92 581 q 254 720 183 688 q 419 753 325 753 q 580 722 511 753 q 694 640 649 690 q 761 523 739 589 q 783 388 783 457 l 783 310 l 265 310 q 314 185 267 229 q 432 140 361 140 q 521 166 490 140 q 554 221 551 192 l 769 221 q 660 47 754 113 q 426 -19 565 -19 m 419 593 q 317 556 358 593 q 267 451 275 519 l 565 451 q 522 557 563 521 q 419 593 482 593 m 408 826 q 235 887 297 826 q 172 1032 172 947 l 339 1032 q 360 978 339 996 q 418 960 382 960 q 474 978 456 960 q 493 1032 493 997 l 658 1032 q 597 888 658 949 q 426 826 535 826 l 408 826 z "},"Ė":{"ha":889,"x_min":106,"x_max":819,"o":"m 106 978 l 819 978 l 819 783 l 331 783 l 331 593 l 775 593 l 775 403 l 331 403 l 331 194 l 819 194 l 819 0 l 106 0 l 106 978 m 479 1074 l 474 1074 q 399 1104 429 1074 q 368 1176 368 1135 q 399 1249 368 1219 q 474 1279 429 1279 l 479 1279 q 554 1249 524 1279 q 585 1176 585 1219 q 554 1104 585 1135 q 479 1074 524 1074 z "},"ė":{"ha":831,"x_min":47,"x_max":783,"o":"m 426 -19 q 258 13 331 -19 q 140 99 186 46 q 70 222 93 151 q 47 367 47 292 q 69 510 47 440 q 138 634 92 581 q 254 720 183 688 q 419 753 325 753 q 580 722 511 753 q 694 640 649 690 q 761 523 739 589 q 783 388 783 457 l 783 310 l 265 310 q 314 185 267 229 q 432 140 361 140 q 521 166 490 140 q 554 221 551 192 l 769 221 q 660 47 754 113 q 426 -19 565 -19 m 419 593 q 317 556 358 593 q 267 451 275 519 l 565 451 q 522 557 563 521 q 419 593 482 593 m 424 829 l 418 829 q 343 860 374 829 q 313 932 313 890 q 343 1005 313 975 q 418 1035 374 1035 l 424 1035 q 499 1005 468 1035 q 529 932 529 975 q 499 860 529 890 q 424 829 468 829 z "},"Ę":{"ha":889,"x_min":106,"x_max":894,"o":"m 106 978 l 819 978 l 819 783 l 331 783 l 331 593 l 775 593 l 775 403 l 331 403 l 331 194 l 819 194 l 819 0 l 106 0 l 106 978 m 819 47 l 819 0 q 753 -51 778 -31 q 729 -97 729 -72 q 744 -126 729 -115 q 793 -137 758 -137 l 894 -137 l 894 -276 l 736 -276 q 619 -237 657 -276 q 581 -146 581 -197 q 640 -44 581 -90 q 819 47 700 3 z "},"ę":{"ha":831,"x_min":47,"x_max":783,"o":"m 426 -19 q 258 13 331 -19 q 140 99 186 46 q 70 222 93 151 q 47 367 47 292 q 69 510 47 440 q 138 634 92 581 q 254 720 183 688 q 419 753 325 753 q 580 722 511 753 q 694 640 649 690 q 761 523 739 589 q 783 388 783 457 l 783 310 l 265 310 q 314 185 267 229 q 432 140 361 140 q 521 166 490 140 q 554 221 551 192 l 769 221 q 660 47 754 113 q 426 -19 565 -19 m 419 593 q 317 556 358 593 q 267 451 275 519 l 565 451 q 522 557 563 521 q 419 593 482 593 m 503 47 l 503 0 q 437 -51 461 -31 q 413 -97 413 -72 q 427 -126 413 -115 q 476 -137 442 -137 l 578 -137 l 578 -276 l 419 -276 q 302 -237 340 -276 q 264 -146 264 -197 q 324 -44 264 -90 q 503 47 383 3 z "},"Ě":{"ha":889,"x_min":106,"x_max":819,"o":"m 106 978 l 819 978 l 819 783 l 331 783 l 331 593 l 775 593 l 775 403 l 331 403 l 331 194 l 819 194 l 819 0 l 106 0 l 106 978 m 199 1276 l 396 1276 l 479 1175 l 489 1175 l 568 1276 l 738 1276 l 574 1071 l 361 1071 l 199 1276 z "},"ě":{"ha":831,"x_min":47,"x_max":783,"o":"m 426 -19 q 258 13 331 -19 q 140 99 186 46 q 70 222 93 151 q 47 367 47 292 q 69 510 47 440 q 138 634 92 581 q 254 720 183 688 q 419 753 325 753 q 580 722 511 753 q 694 640 649 690 q 761 523 739 589 q 783 388 783 457 l 783 310 l 265 310 q 314 185 267 229 q 432 140 361 140 q 521 166 490 140 q 554 221 551 192 l 769 221 q 660 47 754 113 q 426 -19 565 -19 m 419 593 q 317 556 358 593 q 267 451 275 519 l 565 451 q 522 557 563 521 q 419 593 482 593 m 143 1032 l 340 1032 l 424 931 l 433 931 l 513 1032 l 682 1032 l 518 826 l 306 826 l 143 1032 z "},"Ĝ":{"ha":1032,"x_min":51,"x_max":963,"o":"m 778 0 l 778 153 l 776 153 q 685 31 754 81 q 497 -19 615 -19 q 308 20 392 -19 q 167 128 224 60 q 81 290 111 197 q 51 489 51 383 q 83 690 51 596 q 176 851 115 783 q 324 959 236 919 q 524 999 413 999 q 816 910 703 999 q 956 676 929 821 l 710 676 q 658 763 700 722 q 528 803 615 803 q 433 785 478 803 q 354 731 388 767 q 301 644 321 696 q 282 526 282 593 l 282 447 q 353 242 282 314 q 529 171 425 171 q 619 188 579 171 q 685 231 658 204 q 727 290 713 257 q 742 356 742 324 l 522 356 l 522 536 l 963 536 l 963 0 l 778 0 m 817 1071 l 619 1071 l 536 1172 l 526 1172 l 447 1071 l 278 1071 l 442 1276 l 654 1276 l 817 1071 z "},"ĝ":{"ha":871,"x_min":47,"x_max":797,"o":"m 64 -36 l 278 -36 q 319 -99 283 -75 q 414 -122 354 -122 q 536 -79 493 -122 q 579 57 579 -36 l 579 144 l 578 144 q 494 67 547 97 q 363 38 442 38 q 224 68 283 38 q 125 149 164 99 q 67 264 86 199 q 47 399 47 329 q 67 529 47 465 q 125 642 86 593 q 224 722 164 692 q 363 753 283 753 q 506 719 450 753 q 592 629 563 685 l 593 629 l 593 733 l 797 733 l 797 76 q 698 -189 797 -92 q 413 -286 599 -286 q 268 -267 332 -286 q 160 -213 204 -247 q 92 -133 117 -179 q 64 -36 68 -87 m 265 410 l 265 379 q 310 257 265 300 q 422 214 356 214 q 534 258 489 214 q 579 379 579 301 l 579 410 q 534 532 579 489 q 422 575 489 575 q 310 533 356 575 q 265 410 265 490 m 725 826 l 528 826 l 444 928 l 435 928 l 356 826 l 186 826 l 350 1032 l 563 1032 l 725 826 z "},"Ğ":{"ha":1032,"x_min":51,"x_max":963,"o":"m 778 0 l 778 153 l 776 153 q 685 31 754 81 q 497 -19 615 -19 q 308 20 392 -19 q 167 128 224 60 q 81 290 111 197 q 51 489 51 383 q 83 690 51 596 q 176 851 115 783 q 324 959 236 919 q 524 999 413 999 q 816 910 703 999 q 956 676 929 821 l 710 676 q 658 763 700 722 q 528 803 615 803 q 433 785 478 803 q 354 731 388 767 q 301 644 321 696 q 282 526 282 593 l 282 447 q 353 242 282 314 q 529 171 425 171 q 619 188 579 171 q 685 231 658 204 q 727 290 713 257 q 742 356 742 324 l 522 356 l 522 536 l 963 536 l 963 0 l 778 0 m 515 1071 q 342 1131 404 1071 q 279 1276 279 1192 l 446 1276 q 467 1222 446 1240 q 525 1204 489 1204 q 581 1223 563 1204 q 600 1276 600 1242 l 765 1276 q 703 1132 765 1193 q 533 1071 642 1071 l 515 1071 z "},"ğ":{"ha":871,"x_min":47,"x_max":797,"o":"m 64 -36 l 278 -36 q 319 -99 283 -75 q 414 -122 354 -122 q 536 -79 493 -122 q 579 57 579 -36 l 579 144 l 578 144 q 494 67 547 97 q 363 38 442 38 q 224 68 283 38 q 125 149 164 99 q 67 264 86 199 q 47 399 47 329 q 67 529 47 465 q 125 642 86 593 q 224 722 164 692 q 363 753 283 753 q 506 719 450 753 q 592 629 563 685 l 593 629 l 593 733 l 797 733 l 797 76 q 698 -189 797 -92 q 413 -286 599 -286 q 268 -267 332 -286 q 160 -213 204 -247 q 92 -133 117 -179 q 64 -36 68 -87 m 265 410 l 265 379 q 310 257 265 300 q 422 214 356 214 q 534 258 489 214 q 579 379 579 301 l 579 410 q 534 532 579 489 q 422 575 489 575 q 310 533 356 575 q 265 410 265 490 m 424 826 q 250 887 313 826 q 188 1032 188 947 l 354 1032 q 376 978 354 996 q 433 960 397 960 q 490 978 471 960 q 508 1032 508 997 l 674 1032 q 612 888 674 949 q 442 826 550 826 l 424 826 z "},"Ġ":{"ha":1032,"x_min":51,"x_max":963,"o":"m 778 0 l 778 153 l 776 153 q 685 31 754 81 q 497 -19 615 -19 q 308 20 392 -19 q 167 128 224 60 q 81 290 111 197 q 51 489 51 383 q 83 690 51 596 q 176 851 115 783 q 324 959 236 919 q 524 999 413 999 q 816 910 703 999 q 956 676 929 821 l 710 676 q 658 763 700 722 q 528 803 615 803 q 433 785 478 803 q 354 731 388 767 q 301 644 321 696 q 282 526 282 593 l 282 447 q 353 242 282 314 q 529 171 425 171 q 619 188 579 171 q 685 231 658 204 q 727 290 713 257 q 742 356 742 324 l 522 356 l 522 536 l 963 536 l 963 0 l 778 0 m 531 1074 l 525 1074 q 450 1104 481 1074 q 419 1176 419 1135 q 450 1249 419 1219 q 525 1279 481 1279 l 531 1279 q 606 1249 575 1279 q 636 1176 636 1219 q 606 1104 636 1135 q 531 1074 575 1074 z "},"ġ":{"ha":871,"x_min":47,"x_max":797,"o":"m 64 -36 l 278 -36 q 319 -99 283 -75 q 414 -122 354 -122 q 536 -79 493 -122 q 579 57 579 -36 l 579 144 l 578 144 q 494 67 547 97 q 363 38 442 38 q 224 68 283 38 q 125 149 164 99 q 67 264 86 199 q 47 399 47 329 q 67 529 47 465 q 125 642 86 593 q 224 722 164 692 q 363 753 283 753 q 506 719 450 753 q 592 629 563 685 l 593 629 l 593 733 l 797 733 l 797 76 q 698 -189 797 -92 q 413 -286 599 -286 q 268 -267 332 -286 q 160 -213 204 -247 q 92 -133 117 -179 q 64 -36 68 -87 m 265 410 l 265 379 q 310 257 265 300 q 422 214 356 214 q 534 258 489 214 q 579 379 579 301 l 579 410 q 534 532 579 489 q 422 575 489 575 q 310 533 356 575 q 265 410 265 490 m 439 829 l 433 829 q 358 860 389 829 q 328 932 328 890 q 358 1005 328 975 q 433 1035 389 1035 l 439 1035 q 514 1005 483 1035 q 544 932 544 975 q 514 860 544 890 q 439 829 483 829 z "},"Ģ":{"ha":1032,"x_min":51,"x_max":963,"o":"m 778 0 l 778 153 l 776 153 q 685 31 754 81 q 497 -19 615 -19 q 308 20 392 -19 q 167 128 224 60 q 81 290 111 197 q 51 489 51 383 q 83 690 51 596 q 176 851 115 783 q 324 959 236 919 q 524 999 413 999 q 816 910 703 999 q 956 676 929 821 l 710 676 q 658 763 700 722 q 528 803 615 803 q 433 785 478 803 q 354 731 388 767 q 301 644 321 696 q 282 526 282 593 l 282 447 q 353 242 282 314 q 529 171 425 171 q 619 188 579 171 q 685 231 658 204 q 727 290 713 257 q 742 356 742 324 l 522 356 l 522 536 l 963 536 l 963 0 l 778 0 z "},"ģ":{"ha":871,"x_min":47,"x_max":797,"o":"m 64 -36 l 278 -36 q 319 -99 283 -75 q 414 -122 354 -122 q 536 -79 493 -122 q 579 57 579 -36 l 579 144 l 578 144 q 494 67 547 97 q 363 38 442 38 q 224 68 283 38 q 125 149 164 99 q 67 264 86 199 q 47 399 47 329 q 67 529 47 465 q 125 642 86 593 q 224 722 164 692 q 363 753 283 753 q 506 719 450 753 q 592 629 563 685 l 593 629 l 593 733 l 797 733 l 797 76 q 698 -189 797 -92 q 413 -286 599 -286 q 268 -267 332 -286 q 160 -213 204 -247 q 92 -133 117 -179 q 64 -36 68 -87 m 265 410 l 265 379 q 310 257 265 300 q 422 214 356 214 q 534 258 489 214 q 579 379 579 301 l 579 410 q 534 532 579 489 q 422 575 489 575 q 310 533 356 575 q 265 410 265 490 z "},"Ĥ":{"ha":1069,"x_min":106,"x_max":964,"o":"m 106 978 l 331 978 l 331 597 l 739 597 l 739 978 l 964 978 l 964 0 l 739 0 l 739 403 l 331 403 l 331 0 l 106 0 l 106 978 m 824 1071 l 626 1071 l 543 1172 l 533 1172 l 454 1071 l 285 1071 l 449 1276 l 661 1276 l 824 1071 z "},"ĥ":{"ha":863,"x_min":85,"x_max":782,"o":"m 303 433 l 303 0 l 85 0 l 85 1031 l 299 1031 l 299 640 l 300 640 q 385 724 331 696 q 511 753 440 753 q 706 674 629 753 q 782 461 782 594 l 782 0 l 564 0 l 564 435 q 524 536 564 503 q 435 569 483 569 q 344 536 385 569 q 303 433 303 503 m 721 1071 l 524 1071 l 440 1172 l 431 1172 l 351 1071 l 182 1071 l 346 1276 l 558 1276 l 721 1071 z "},"Ħ":{"ha":1069,"x_min":14,"x_max":1056,"o":"m 14 704 l 14 874 l 106 874 l 106 978 l 331 978 l 331 874 l 739 874 l 739 978 l 964 978 l 964 874 l 1056 874 l 1056 704 l 964 704 l 964 0 l 739 0 l 739 403 l 331 403 l 331 0 l 106 0 l 106 704 l 14 704 m 331 597 l 739 597 l 739 704 l 331 704 l 331 597 z "},"ħ":{"ha":865,"x_min":0,"x_max":788,"o":"m 308 433 l 308 0 l 90 0 l 90 810 l 0 810 l 0 933 l 90 933 l 90 1031 l 304 1031 l 304 933 l 504 933 l 504 810 l 304 810 l 304 640 l 306 640 q 391 724 336 696 q 517 753 446 753 q 711 674 635 753 q 788 461 788 594 l 788 0 l 569 0 l 569 435 q 529 536 569 503 q 440 569 489 569 q 349 536 390 569 q 308 433 308 503 z "},"Ĩ":{"ha":436,"x_min":-43,"x_max":485,"o":"m 106 978 l 331 978 l 331 0 l 106 0 l 106 978 m 311 1071 q 244 1084 271 1071 q 196 1113 217 1097 q 157 1142 175 1129 q 115 1156 139 1156 q 73 1139 86 1156 q 60 1089 60 1122 l -43 1089 l -43 1099 q 1 1230 -43 1183 q 124 1276 44 1276 l 125 1276 q 194 1263 167 1276 q 243 1234 222 1250 q 283 1205 264 1218 q 328 1192 303 1192 q 369 1208 356 1192 q 382 1256 382 1225 l 485 1256 l 485 1247 q 440 1117 485 1164 q 313 1071 394 1071 l 311 1071 z "},"ĩ":{"ha":388,"x_min":-68,"x_max":460,"o":"m 85 733 l 303 733 l 303 0 l 85 0 l 85 733 m 286 826 q 219 840 246 826 q 171 869 192 853 q 132 898 150 885 q 90 911 114 911 q 48 894 61 911 q 35 844 35 878 l -68 844 l -68 854 q -24 985 -68 939 q 99 1032 19 1032 l 100 1032 q 169 1019 142 1032 q 218 990 197 1006 q 258 960 239 974 q 303 947 278 947 q 344 964 331 947 q 357 1011 357 981 l 460 1011 l 460 1003 q 415 873 460 919 q 288 826 369 826 l 286 826 z "},"Ī":{"ha":436,"x_min":24,"x_max":415,"o":"m 106 978 l 331 978 l 331 0 l 106 0 l 106 978 m 24 1254 l 415 1254 l 415 1114 l 24 1114 l 24 1254 z "},"ī":{"ha":388,"x_min":-1,"x_max":390,"o":"m 85 733 l 303 733 l 303 0 l 85 0 l 85 733 m -1 1010 l 390 1010 l 390 869 l -1 869 l -1 1010 z "},"Ĭ":{"ha":436,"x_min":-29,"x_max":457,"o":"m 106 978 l 331 978 l 331 0 l 106 0 l 106 978 m 207 1071 q 33 1131 96 1071 q -29 1276 -29 1192 l 138 1276 q 159 1222 138 1240 q 217 1204 181 1204 q 273 1223 254 1204 q 292 1276 292 1242 l 457 1276 q 395 1132 457 1193 q 225 1071 333 1071 l 207 1071 z "},"ĭ":{"ha":388,"x_min":-54,"x_max":432,"o":"m 85 733 l 303 733 l 303 0 l 85 0 l 85 733 m 182 826 q 8 887 71 826 q -54 1032 -54 947 l 113 1032 q 134 978 113 996 q 192 960 156 960 q 248 978 229 960 q 267 1032 267 997 l 432 1032 q 370 888 432 949 q 200 826 308 826 l 182 826 z "},"Į":{"ha":436,"x_min":92,"x_max":406,"o":"m 106 978 l 331 978 l 331 0 l 106 0 l 106 978 m 331 47 l 331 0 q 265 -51 289 -31 q 240 -97 240 -72 q 255 -126 240 -115 q 304 -137 269 -137 l 406 -137 l 406 -276 l 247 -276 q 130 -237 168 -276 q 92 -146 92 -197 q 151 -44 92 -90 q 331 47 211 3 z "},"į":{"ha":388,"x_min":60,"x_max":378,"o":"m 201 792 l 188 792 q 97 828 133 792 q 60 915 60 865 q 97 1003 60 967 q 188 1039 133 1039 l 201 1039 q 291 1003 254 1039 q 328 915 328 967 q 291 828 328 865 q 201 792 254 792 m 85 733 l 303 733 l 303 0 l 85 0 l 85 733 m 303 47 l 303 0 q 237 -51 261 -31 q 213 -97 213 -72 q 227 -126 213 -115 q 276 -137 242 -137 l 378 -137 l 378 -276 l 219 -276 q 102 -237 140 -276 q 64 -146 64 -197 q 124 -44 64 -90 q 303 47 183 3 z "},"İ":{"ha":436,"x_min":106,"x_max":331,"o":"m 106 978 l 331 978 l 331 0 l 106 0 l 106 978 m 222 1074 l 217 1074 q 142 1104 172 1074 q 111 1176 111 1135 q 142 1249 111 1219 q 217 1279 172 1279 l 222 1279 q 297 1249 267 1279 q 328 1176 328 1219 q 297 1104 328 1135 q 222 1074 267 1074 z "},"ı":{"ha":388,"x_min":85,"x_max":303,"o":"m 85 733 l 303 733 l 303 0 l 85 0 l 85 733 z "},"Ĳ":{"ha":1299,"x_min":106,"x_max":1226,"o":"m 106 978 l 331 978 l 331 0 l 106 0 l 106 978 m 853 -21 q 695 6 765 -21 q 577 78 625 32 q 503 189 529 125 q 478 326 478 253 l 478 422 l 703 422 l 703 333 q 744 215 703 256 q 853 175 785 175 q 961 215 921 175 q 1001 333 1001 256 l 1001 978 l 1226 978 l 1226 326 q 1201 189 1226 253 q 1127 78 1175 125 q 1010 6 1079 32 q 853 -21 940 -21 z "},"ĳ":{"ha":801,"x_min":71,"x_max":731,"o":"m 213 792 l 199 792 q 108 828 144 792 q 71 915 71 865 q 108 1003 71 967 q 199 1039 144 1039 l 213 1039 q 302 1003 265 1039 q 339 915 339 967 q 302 828 339 865 q 213 792 265 792 m 96 733 l 314 733 l 314 0 l 96 0 l 96 733 m 604 792 l 590 792 q 499 828 536 792 q 463 915 463 865 q 499 1003 463 967 q 590 1039 536 1039 l 604 1039 q 694 1003 657 1039 q 731 915 731 967 q 694 828 731 865 q 604 792 657 792 m 488 -47 l 488 733 l 706 733 l 706 -65 q 652 -217 706 -164 q 490 -271 599 -271 l 294 -271 l 294 -99 l 436 -99 q 475 -86 463 -99 q 488 -47 488 -74 z "},"Ĵ":{"ha":876,"x_min":56,"x_max":963,"o":"m 431 -21 q 273 6 343 -21 q 155 78 203 32 q 81 189 107 125 q 56 326 56 253 l 56 422 l 281 422 l 281 333 q 322 215 281 256 q 431 175 363 175 q 539 215 499 175 q 579 333 579 256 l 579 978 l 804 978 l 804 326 q 778 189 804 253 q 705 78 753 125 q 588 6 657 32 q 431 -21 518 -21 m 963 1071 l 765 1071 l 682 1172 l 672 1172 l 593 1071 l 424 1071 l 588 1276 l 800 1276 l 963 1071 z "},"ĵ":{"ha":390,"x_min":-114,"x_max":489,"o":"m 88 -47 l 88 733 l 306 733 l 306 -65 q 252 -217 306 -164 q 90 -271 199 -271 l -114 -271 l -114 -99 l 36 -99 q 75 -86 63 -99 q 88 -47 88 -74 m 489 826 l 292 826 l 208 928 l 199 928 l 119 826 l -50 826 l 114 1032 l 326 1032 l 489 826 z "},"Ķ":{"ha":1011,"x_min":104,"x_max":994,"o":"m 329 978 l 329 0 l 104 0 l 104 978 l 329 978 m 715 0 l 332 511 l 686 978 l 960 978 l 600 514 l 994 0 l 715 0 z "},"ķ":{"ha":836,"x_min":85,"x_max":850,"o":"m 303 1031 l 303 0 l 85 0 l 85 1031 l 303 1031 m 821 733 l 550 413 l 850 0 l 583 0 l 303 404 l 563 733 l 821 733 z "},"ĸ":{"ha":839,"x_min":85,"x_max":853,"o":"m 824 733 l 550 388 l 853 0 l 586 0 l 303 376 l 565 733 l 824 733 m 303 733 l 303 0 l 85 0 l 85 733 l 303 733 z "},"Ĺ":{"ha":806,"x_min":106,"x_max":792,"o":"m 106 978 l 331 978 l 331 194 l 792 194 l 792 0 l 106 0 l 106 978 m 217 1276 l 443 1276 l 299 1071 l 132 1071 l 217 1276 z "},"ĺ":{"ha":500,"x_min":78,"x_max":478,"o":"m 78 206 l 78 1031 l 296 1031 l 296 243 q 313 194 296 210 q 361 178 329 178 l 478 178 l 478 0 l 293 0 q 131 53 185 0 q 78 206 78 107 m 196 1276 l 422 1276 l 278 1071 l 111 1071 l 196 1276 z "},"Ļ":{"ha":836,"x_min":106,"x_max":792,"o":"m 106 978 l 331 978 l 331 194 l 792 194 l 792 0 l 106 0 l 106 978 z "},"ļ":{"ha":500,"x_min":78,"x_max":478,"o":"m 78 206 l 78 1031 l 296 1031 l 296 243 q 313 194 296 210 q 361 178 329 178 l 478 178 l 478 0 l 293 0 q 131 53 185 0 q 78 206 78 107 z "},"Ľ":{"ha":836,"x_min":106,"x_max":792,"o":"m 106 978 l 331 978 l 331 194 l 792 194 l 792 0 l 106 0 l 106 978 z "},"ľ":{"ha":513,"x_min":78,"x_max":668,"o":"m 78 206 l 78 1031 l 296 1031 l 296 243 q 313 194 296 210 q 361 178 329 178 l 478 178 l 478 0 l 293 0 q 131 53 185 0 q 78 206 78 107 z "},"Ŀ":{"ha":806,"x_min":106,"x_max":792,"o":"m 106 978 l 331 978 l 331 194 l 792 194 l 792 0 l 106 0 l 106 978 m 586 444 q 484 487 526 444 q 442 589 442 529 q 484 691 442 649 q 586 733 526 733 q 688 691 646 733 q 731 589 731 649 q 688 487 731 529 q 586 444 646 444 z "},"ŀ":{"ha":640,"x_min":78,"x_max":478,"o":"m 78 206 l 78 1031 l 296 1031 l 296 243 q 313 194 296 210 q 361 178 329 178 l 478 178 l 478 0 l 293 0 q 131 53 185 0 q 78 206 78 107 z "},"Ł":{"ha":861,"x_min":26,"x_max":847,"o":"m 26 281 l 26 489 l 161 544 l 161 978 l 386 978 l 386 638 l 593 722 l 593 514 l 386 429 l 386 194 l 847 194 l 847 0 l 161 0 l 161 336 l 26 281 z "},"ł":{"ha":586,"x_min":42,"x_max":561,"o":"m 161 206 l 161 393 l 42 335 l 42 514 l 161 572 l 161 1031 l 379 1031 l 379 678 l 528 750 l 528 571 l 379 499 l 379 243 q 396 194 379 210 q 444 178 413 178 l 561 178 l 561 0 l 376 0 q 215 53 268 0 q 161 206 161 107 z "},"Ń":{"ha":1075,"x_min":106,"x_max":969,"o":"m 106 0 l 106 978 l 363 978 l 754 340 l 756 340 l 756 978 l 969 978 l 969 0 l 728 0 l 325 668 l 324 668 l 324 0 l 106 0 m 560 1276 l 786 1276 l 642 1071 l 475 1071 l 560 1276 z "},"ń":{"ha":863,"x_min":85,"x_max":782,"o":"m 303 433 l 303 0 l 85 0 l 85 733 l 289 733 l 289 622 l 290 622 q 377 719 318 686 q 511 753 436 753 q 706 674 629 753 q 782 461 782 594 l 782 0 l 564 0 l 564 435 q 524 536 564 503 q 435 569 483 569 q 344 536 385 569 q 303 433 303 503 m 446 1032 l 672 1032 l 528 826 l 361 826 l 446 1032 z "},"Ņ":{"ha":1106,"x_min":106,"x_max":969,"o":"m 106 0 l 106 978 l 363 978 l 754 340 l 756 340 l 756 978 l 969 978 l 969 0 l 728 0 l 325 668 l 324 668 l 324 0 l 106 0 z "},"Ň":{"ha":1075,"x_min":106,"x_max":969,"o":"m 106 0 l 106 978 l 363 978 l 754 340 l 756 340 l 756 978 l 969 978 l 969 0 l 728 0 l 325 668 l 324 668 l 324 0 l 106 0 m 281 1276 l 478 1276 l 561 1175 l 571 1175 l 650 1276 l 819 1276 l 656 1071 l 443 1071 l 281 1276 z "},"ň":{"ha":863,"x_min":85,"x_max":782,"o":"m 303 433 l 303 0 l 85 0 l 85 733 l 289 733 l 289 622 l 290 622 q 377 719 318 686 q 511 753 436 753 q 706 674 629 753 q 782 461 782 594 l 782 0 l 564 0 l 564 435 q 524 536 564 503 q 435 569 483 569 q 344 536 385 569 q 303 433 303 503 m 167 1032 l 364 1032 l 447 931 l 457 931 l 536 1032 l 706 1032 l 542 826 l 329 826 l 167 1032 z "},"ŉ":{"ha":868,"x_min":85,"x_max":782,"o":"m 303 433 l 303 0 l 85 0 l 85 733 l 289 733 l 289 622 l 290 622 q 377 719 318 686 q 511 753 436 753 q 706 674 629 753 q 782 461 782 594 l 782 0 l 564 0 l 564 435 q 524 536 564 503 q 435 569 483 569 q 344 536 385 569 q 303 433 303 503 z "},"Ŋ":{"ha":1075,"x_min":106,"x_max":969,"o":"m 106 0 l 106 978 l 363 978 l 754 340 l 756 340 l 756 978 l 969 978 l 969 0 l 728 0 l 325 668 l 324 668 l 324 0 l 106 0 z "},"ŋ":{"ha":868,"x_min":85,"x_max":782,"o":"m 303 433 l 303 0 l 85 0 l 85 733 l 289 733 l 289 622 l 290 622 q 377 719 318 686 q 511 753 436 753 q 706 674 629 753 q 782 461 782 594 l 782 -65 q 728 -217 782 -164 q 567 -271 675 -271 l 363 -271 l 363 -99 l 513 -99 q 551 -86 539 -99 q 564 -47 564 -74 l 564 435 q 524 536 564 503 q 435 569 483 569 q 344 536 385 569 q 303 433 303 503 z "},"Ō":{"ha":1050,"x_min":51,"x_max":999,"o":"m 525 -19 q 324 20 413 -19 q 176 128 236 60 q 83 289 115 196 q 51 489 51 382 q 83 688 51 594 q 176 851 115 782 q 324 959 236 919 q 525 999 413 999 q 726 959 638 999 q 874 851 814 919 q 967 688 935 782 q 999 489 999 594 q 967 289 999 382 q 874 128 935 196 q 726 20 814 60 q 525 -19 638 -19 m 525 176 q 619 194 575 176 q 697 248 664 213 q 749 335 729 283 q 768 453 768 386 l 768 526 q 749 644 768 593 q 697 731 729 696 q 619 785 664 767 q 525 803 575 803 q 431 785 475 803 q 353 731 386 767 q 301 644 321 696 q 282 526 282 593 l 282 453 q 301 335 282 386 q 353 248 321 283 q 431 194 386 213 q 525 176 475 176 m 329 1254 l 721 1254 l 721 1114 l 329 1114 l 329 1254 z "},"ō":{"ha":847,"x_min":47,"x_max":800,"o":"m 424 -19 q 256 13 328 -19 q 139 99 185 46 q 70 223 93 153 q 47 367 47 293 q 70 510 47 440 q 139 634 93 581 q 256 720 185 688 q 424 753 328 753 q 591 720 519 753 q 708 634 663 688 q 777 510 754 581 q 800 367 800 440 q 777 223 800 293 q 708 99 754 153 q 591 13 663 46 q 424 -19 519 -19 m 582 332 l 582 401 q 537 530 582 485 q 424 575 492 575 q 310 529 356 575 q 265 401 265 483 l 265 332 q 310 204 265 250 q 424 158 356 158 q 537 203 492 158 q 582 332 582 249 m 229 1008 l 621 1008 l 621 868 l 229 868 l 229 1008 z "},"Ŏ":{"ha":1050,"x_min":51,"x_max":999,"o":"m 525 -19 q 324 20 413 -19 q 176 128 236 60 q 83 289 115 196 q 51 489 51 382 q 83 688 51 594 q 176 851 115 782 q 324 959 236 919 q 525 999 413 999 q 726 959 638 999 q 874 851 814 919 q 967 688 935 782 q 999 489 999 594 q 967 289 999 382 q 874 128 935 196 q 726 20 814 60 q 525 -19 638 -19 m 525 176 q 619 194 575 176 q 697 248 664 213 q 749 335 729 283 q 768 453 768 386 l 768 526 q 749 644 768 593 q 697 731 729 696 q 619 785 664 767 q 525 803 575 803 q 431 785 475 803 q 353 731 386 767 q 301 644 321 696 q 282 526 282 593 l 282 453 q 301 335 282 386 q 353 248 321 283 q 431 194 386 213 q 525 176 475 176 m 513 1071 q 339 1131 401 1071 q 276 1276 276 1192 l 443 1276 q 465 1222 443 1240 q 522 1204 486 1204 q 578 1223 560 1204 q 597 1276 597 1242 l 763 1276 q 701 1132 763 1193 q 531 1071 639 1071 l 513 1071 z "},"ŏ":{"ha":847,"x_min":47,"x_max":800,"o":"m 424 -19 q 256 13 328 -19 q 139 99 185 46 q 70 223 93 153 q 47 367 47 293 q 70 510 47 440 q 139 634 93 581 q 256 720 185 688 q 424 753 328 753 q 591 720 519 753 q 708 634 663 688 q 777 510 754 581 q 800 367 800 440 q 777 223 800 293 q 708 99 754 153 q 591 13 663 46 q 424 -19 519 -19 m 582 332 l 582 401 q 537 530 582 485 q 424 575 492 575 q 310 529 356 575 q 265 401 265 483 l 265 332 q 310 204 265 250 q 424 158 356 158 q 537 203 492 158 q 582 332 582 249 m 413 825 q 239 885 301 825 q 176 1031 176 946 l 343 1031 q 365 976 343 994 q 422 958 386 958 q 478 977 460 958 q 497 1031 497 996 l 663 1031 q 601 886 663 947 q 431 825 539 825 l 413 825 z "},"Ő":{"ha":1050,"x_min":51,"x_max":999,"o":"m 525 -19 q 324 20 413 -19 q 176 128 236 60 q 83 289 115 196 q 51 489 51 382 q 83 688 51 594 q 176 851 115 782 q 324 959 236 919 q 525 999 413 999 q 726 959 638 999 q 874 851 814 919 q 967 688 935 782 q 999 489 999 594 q 967 289 999 382 q 874 128 935 196 q 726 20 814 60 q 525 -19 638 -19 m 525 176 q 619 194 575 176 q 697 248 664 213 q 749 335 729 283 q 768 453 768 386 l 768 526 q 749 644 768 593 q 697 731 729 696 q 619 785 664 767 q 525 803 575 803 q 431 785 475 803 q 353 731 386 767 q 301 644 321 696 q 282 526 282 593 l 282 453 q 301 335 282 386 q 353 248 321 283 q 431 194 386 213 q 525 176 475 176 m 363 1276 l 568 1276 l 422 1071 l 279 1071 l 363 1276 m 660 1276 l 864 1276 l 721 1071 l 576 1071 l 660 1276 z "},"ő":{"ha":847,"x_min":47,"x_max":800,"o":"m 424 -19 q 256 13 328 -19 q 139 99 185 46 q 70 223 93 153 q 47 367 47 293 q 70 510 47 440 q 139 634 93 581 q 256 720 185 688 q 424 753 328 753 q 591 720 519 753 q 708 634 663 688 q 777 510 754 581 q 800 367 800 440 q 777 223 800 293 q 708 99 754 153 q 591 13 663 46 q 424 -19 519 -19 m 582 332 l 582 401 q 537 530 582 485 q 424 575 492 575 q 310 529 356 575 q 265 401 265 483 l 265 332 q 310 204 265 250 q 424 158 356 158 q 537 203 492 158 q 582 332 582 249 m 263 1031 l 468 1031 l 322 825 l 179 825 l 263 1031 m 560 1031 l 764 1031 l 621 825 l 476 825 l 560 1031 z "},"Œ":{"ha":1475,"x_min":692,"x_max":1406,"o":"m 692 978 l 1406 978 l 1406 783 l 917 783 l 917 593 l 1361 593 l 1361 403 l 917 403 l 917 194 l 1406 194 l 1406 0 l 692 0 l 692 978 z "},"œ":{"ha":1374,"x_min":47,"x_max":1326,"o":"m 694 593 l 697 593 q 805 708 736 664 q 975 753 874 753 q 1128 722 1063 753 q 1238 640 1194 690 q 1304 523 1282 589 q 1326 388 1326 457 l 1326 310 l 806 310 q 855 185 807 229 q 974 140 903 140 q 1063 167 1033 140 q 1097 222 1093 193 l 1311 222 q 1203 47 1294 114 q 983 -19 1111 -19 q 808 25 879 -19 q 697 140 736 69 l 694 140 q 585 25 656 69 q 411 -19 515 -19 q 252 13 321 -19 q 138 99 183 46 q 70 223 93 153 q 47 367 47 293 q 70 510 47 440 q 138 634 93 581 q 252 720 183 688 q 411 753 321 753 q 585 708 515 753 q 694 593 656 664 m 961 593 q 859 556 901 593 q 807 451 817 519 l 1108 451 q 1063 557 1104 521 q 961 593 1021 593 m 588 331 l 588 400 q 541 528 588 483 q 426 574 494 574 q 312 528 358 574 q 265 400 265 482 l 265 331 q 312 203 265 249 q 426 157 358 157 q 541 202 494 157 q 588 331 588 247 z "},"Ŕ":{"ha":978,"x_min":106,"x_max":992,"o":"m 106 0 l 106 978 l 568 978 q 720 954 654 978 q 831 889 786 931 q 898 790 875 847 q 921 667 921 732 q 844 463 921 543 q 621 372 767 382 l 992 0 l 681 0 l 331 364 l 331 0 l 106 0 m 693 656 l 693 669 q 659 759 693 729 q 561 789 625 789 l 331 789 l 331 538 l 561 538 q 659 568 625 538 q 693 656 693 599 m 457 1276 l 683 1276 l 539 1071 l 372 1071 l 457 1276 z "},"ŕ":{"ha":631,"x_min":85,"x_max":594,"o":"m 85 0 l 85 733 l 293 733 l 293 603 l 294 603 q 315 648 300 625 q 356 690 331 671 q 419 722 382 710 q 506 735 456 735 l 588 735 l 588 535 l 465 535 q 341 501 379 535 q 303 400 303 468 l 303 0 l 85 0 m 368 1032 l 594 1032 l 450 826 l 283 826 l 368 1032 z "},"Ŗ":{"ha":1008,"x_min":106,"x_max":992,"o":"m 106 0 l 106 978 l 568 978 q 720 954 654 978 q 831 889 786 931 q 898 790 875 847 q 921 667 921 732 q 844 463 921 543 q 621 372 767 382 l 992 0 l 681 0 l 331 364 l 331 0 l 106 0 m 693 656 l 693 669 q 659 759 693 729 q 561 789 625 789 l 331 789 l 331 538 l 561 538 q 659 568 625 538 q 693 656 693 599 z "},"ŗ":{"ha":626,"x_min":3,"x_max":588,"o":"m 85 0 l 85 733 l 293 733 l 293 603 l 294 603 q 315 648 300 625 q 356 690 331 671 q 419 722 382 710 q 506 735 456 735 l 588 735 l 588 535 l 465 535 q 341 501 379 535 q 303 400 303 468 l 303 0 l 85 0 z "},"Ř":{"ha":978,"x_min":106,"x_max":992,"o":"m 106 0 l 106 978 l 568 978 q 720 954 654 978 q 831 889 786 931 q 898 790 875 847 q 921 667 921 732 q 844 463 921 543 q 621 372 767 382 l 992 0 l 681 0 l 331 364 l 331 0 l 106 0 m 693 656 l 693 669 q 659 759 693 729 q 561 789 625 789 l 331 789 l 331 538 l 561 538 q 659 568 625 538 q 693 656 693 599 m 178 1276 l 375 1276 l 458 1175 l 468 1175 l 547 1276 l 717 1276 l 553 1071 l 340 1071 l 178 1276 z "},"ř":{"ha":631,"x_min":85,"x_max":628,"o":"m 85 0 l 85 733 l 293 733 l 293 603 l 294 603 q 315 648 300 625 q 356 690 331 671 q 419 722 382 710 q 506 735 456 735 l 588 735 l 588 535 l 465 535 q 341 501 379 535 q 303 400 303 468 l 303 0 l 85 0 m 89 1032 l 286 1032 l 369 931 l 379 931 l 458 1032 l 628 1032 l 464 826 l 251 826 l 89 1032 z "},"Ś":{"ha":908,"x_min":36,"x_max":864,"o":"m 453 -21 q 283 3 360 -21 q 151 68 206 26 q 66 169 96 110 q 36 300 36 229 l 264 300 q 315 193 264 229 q 456 157 367 157 q 590 191 546 157 q 635 275 635 225 q 597 349 635 331 q 485 379 560 368 l 363 397 q 143 485 229 417 q 57 694 57 554 q 84 814 57 758 q 161 910 111 869 q 285 976 211 951 q 451 1000 358 1000 q 622 976 547 1000 q 746 910 696 951 q 822 815 796 869 q 850 699 849 760 l 622 699 q 582 788 622 753 q 450 822 542 822 q 323 789 361 822 q 285 714 285 756 q 322 637 285 658 q 431 606 360 615 l 549 589 q 672 560 614 579 q 772 506 729 540 q 839 420 814 472 q 864 294 864 368 q 834 165 864 224 q 750 66 804 107 q 620 2 696 25 q 453 -21 544 -21 m 453 1276 l 679 1276 l 535 1071 l 368 1071 l 453 1276 z "},"ś":{"ha":758,"x_min":39,"x_max":719,"o":"m 39 222 l 263 222 q 296 156 263 176 q 385 135 329 135 q 468 153 436 135 q 500 207 500 172 q 467 258 500 244 q 382 278 433 272 l 278 292 q 194 312 235 297 q 124 352 154 326 q 74 418 93 378 q 56 514 56 458 q 81 617 56 572 q 151 693 107 663 q 255 740 194 724 q 383 756 315 756 q 614 688 528 756 q 704 521 700 621 l 485 521 q 458 581 485 560 q 378 601 431 601 q 301 583 326 601 q 275 533 275 564 q 298 488 275 503 q 357 467 321 472 l 461 453 q 553 433 507 447 q 637 393 600 419 q 697 326 674 367 q 719 225 719 285 q 693 120 719 167 q 621 42 667 74 q 513 -6 575 11 q 378 -22 450 -22 q 242 -6 304 -22 q 135 43 181 11 q 65 120 90 75 q 39 222 39 165 m 388 1032 l 614 1032 l 469 826 l 303 826 l 388 1032 z "},"Ŝ":{"ha":908,"x_min":36,"x_max":864,"o":"m 453 -21 q 283 3 360 -21 q 151 68 206 26 q 66 169 96 110 q 36 300 36 229 l 264 300 q 315 193 264 229 q 456 157 367 157 q 590 191 546 157 q 635 275 635 225 q 597 349 635 331 q 485 379 560 368 l 363 397 q 143 485 229 417 q 57 694 57 554 q 84 814 57 758 q 161 910 111 869 q 285 976 211 951 q 451 1000 358 1000 q 622 976 547 1000 q 746 910 696 951 q 822 815 796 869 q 850 699 849 760 l 622 699 q 582 788 622 753 q 450 822 542 822 q 323 789 361 822 q 285 714 285 756 q 322 637 285 658 q 431 606 360 615 l 549 589 q 672 560 614 579 q 772 506 729 540 q 839 420 814 472 q 864 294 864 368 q 834 165 864 224 q 750 66 804 107 q 620 2 696 25 q 453 -21 544 -21 m 740 1071 l 543 1071 l 460 1172 l 450 1172 l 371 1071 l 201 1071 l 365 1276 l 578 1276 l 740 1071 z "},"ŝ":{"ha":758,"x_min":39,"x_max":719,"o":"m 39 222 l 263 222 q 296 156 263 176 q 385 135 329 135 q 468 153 436 135 q 500 207 500 172 q 467 258 500 244 q 382 278 433 272 l 278 292 q 194 312 235 297 q 124 352 154 326 q 74 418 93 378 q 56 514 56 458 q 81 617 56 572 q 151 693 107 663 q 255 740 194 724 q 383 756 315 756 q 614 688 528 756 q 704 521 700 621 l 485 521 q 458 581 485 560 q 378 601 431 601 q 301 583 326 601 q 275 533 275 564 q 298 488 275 503 q 357 467 321 472 l 461 453 q 553 433 507 447 q 637 393 600 419 q 697 326 674 367 q 719 225 719 285 q 693 120 719 167 q 621 42 667 74 q 513 -6 575 11 q 378 -22 450 -22 q 242 -6 304 -22 q 135 43 181 11 q 65 120 90 75 q 39 222 39 165 m 675 826 l 478 826 l 394 928 l 385 928 l 306 826 l 136 826 l 300 1032 l 513 1032 l 675 826 z "},"Ş":{"ha":908,"x_min":36,"x_max":864,"o":"m 453 -21 q 283 3 360 -21 q 151 68 206 26 q 66 169 96 110 q 36 300 36 229 l 264 300 q 315 193 264 229 q 456 157 367 157 q 590 191 546 157 q 635 275 635 225 q 597 349 635 331 q 485 379 560 368 l 363 397 q 143 485 229 417 q 57 694 57 554 q 84 814 57 758 q 161 910 111 869 q 285 976 211 951 q 451 1000 358 1000 q 622 976 547 1000 q 746 910 696 951 q 822 815 796 869 q 850 699 849 760 l 622 699 q 582 788 622 753 q 450 822 542 822 q 323 789 361 822 q 285 714 285 756 q 322 637 285 658 q 431 606 360 615 l 549 589 q 672 560 614 579 q 772 506 729 540 q 839 420 814 472 q 864 294 864 368 q 834 165 864 224 q 750 66 804 107 q 620 2 696 25 q 453 -21 544 -21 m 299 -317 l 299 -231 l 431 -231 q 480 -223 457 -231 q 503 -192 503 -215 q 481 -160 503 -168 q 418 -153 460 -153 l 361 -153 l 361 -82 l 394 7 l 510 7 l 478 -72 q 611 -103 561 -72 q 661 -185 661 -133 q 615 -284 661 -253 q 496 -317 568 -315 l 299 -317 z "},"ş":{"ha":758,"x_min":39,"x_max":719,"o":"m 39 222 l 263 222 q 296 156 263 176 q 385 135 329 135 q 468 153 436 135 q 500 207 500 172 q 467 258 500 244 q 382 278 433 272 l 278 292 q 194 312 235 297 q 124 352 154 326 q 74 418 93 378 q 56 514 56 458 q 81 617 56 572 q 151 693 107 663 q 255 740 194 724 q 383 756 315 756 q 614 688 528 756 q 704 521 700 621 l 485 521 q 458 581 485 560 q 378 601 431 601 q 301 583 326 601 q 275 533 275 564 q 298 488 275 503 q 357 467 321 472 l 461 453 q 553 433 507 447 q 637 393 600 419 q 697 326 674 367 q 719 225 719 285 q 693 120 719 167 q 621 42 667 74 q 513 -6 575 11 q 378 -22 450 -22 q 242 -6 304 -22 q 135 43 181 11 q 65 120 90 75 q 39 222 39 165 m 226 -317 l 226 -231 l 358 -231 q 408 -223 385 -231 q 431 -192 431 -215 q 409 -160 431 -168 q 346 -153 388 -153 l 289 -153 l 289 -82 l 322 7 l 438 7 l 406 -72 q 539 -103 489 -72 q 589 -185 589 -133 q 542 -284 589 -253 q 424 -317 496 -315 l 226 -317 z "},"Š":{"ha":908,"x_min":36,"x_max":864,"o":"m 453 -21 q 283 3 360 -21 q 151 68 206 26 q 66 169 96 110 q 36 300 36 229 l 264 300 q 315 193 264 229 q 456 157 367 157 q 590 191 546 157 q 635 275 635 225 q 597 349 635 331 q 485 379 560 368 l 363 397 q 143 485 229 417 q 57 694 57 554 q 84 814 57 758 q 161 910 111 869 q 285 976 211 951 q 451 1000 358 1000 q 622 976 547 1000 q 746 910 696 951 q 822 815 796 869 q 850 699 849 760 l 622 699 q 582 788 622 753 q 450 822 542 822 q 323 789 361 822 q 285 714 285 756 q 322 637 285 658 q 431 606 360 615 l 549 589 q 672 560 614 579 q 772 506 729 540 q 839 420 814 472 q 864 294 864 368 q 834 165 864 224 q 750 66 804 107 q 620 2 696 25 q 453 -21 544 -21 m 174 1276 l 371 1276 l 454 1175 l 464 1175 l 543 1276 l 713 1276 l 549 1071 l 336 1071 l 174 1276 z "},"š":{"ha":758,"x_min":39,"x_max":719,"o":"m 39 222 l 263 222 q 296 156 263 176 q 385 135 329 135 q 468 153 436 135 q 500 207 500 172 q 467 258 500 244 q 382 278 433 272 l 278 292 q 194 312 235 297 q 124 352 154 326 q 74 418 93 378 q 56 514 56 458 q 81 617 56 572 q 151 693 107 663 q 255 740 194 724 q 383 756 315 756 q 614 688 528 756 q 704 521 700 621 l 485 521 q 458 581 485 560 q 378 601 431 601 q 301 583 326 601 q 275 533 275 564 q 298 488 275 503 q 357 467 321 472 l 461 453 q 553 433 507 447 q 637 393 600 419 q 697 326 674 367 q 719 225 719 285 q 693 120 719 167 q 621 42 667 74 q 513 -6 575 11 q 378 -22 450 -22 q 242 -6 304 -22 q 135 43 181 11 q 65 120 90 75 q 39 222 39 165 m 108 1032 l 306 1032 l 389 931 l 399 931 l 478 1032 l 647 1032 l 483 826 l 271 826 l 108 1032 z "},"Ţ":{"ha":858,"x_min":15,"x_max":843,"o":"m 317 783 l 15 783 l 15 978 l 843 978 l 843 783 l 542 783 l 542 0 l 317 0 l 317 783 m 276 -317 l 276 -231 l 408 -231 q 458 -223 435 -231 q 481 -192 481 -215 q 459 -160 481 -168 q 396 -153 438 -153 l 339 -153 l 339 -82 l 372 7 l 488 7 l 456 -72 q 589 -103 539 -72 q 639 -185 639 -133 q 592 -284 639 -253 q 474 -317 546 -315 l 276 -317 z "},"ţ":{"ha":664,"x_min":25,"x_max":614,"o":"m 25 733 l 178 733 l 178 932 l 396 932 l 396 733 l 614 733 l 614 558 l 396 558 l 396 226 q 408 188 396 200 q 447 175 421 175 l 614 175 l 614 0 l 393 0 q 231 53 285 0 q 178 206 178 107 l 178 558 l 25 558 l 25 733 m 164 -317 l 164 -231 l 296 -231 q 345 -223 322 -231 q 368 -192 368 -215 q 347 -160 368 -168 q 283 -153 325 -153 l 226 -153 l 226 -82 l 260 7 l 375 7 l 343 -72 q 476 -103 426 -72 q 526 -185 526 -133 q 480 -284 526 -253 q 361 -317 433 -315 l 164 -317 z "},"Ť":{"ha":858,"x_min":15,"x_max":843,"o":"m 317 783 l 15 783 l 15 978 l 843 978 l 843 783 l 542 783 l 542 0 l 317 0 l 317 783 m 151 1276 l 349 1276 l 432 1175 l 442 1175 l 521 1276 l 690 1276 l 526 1071 l 314 1071 l 151 1276 z "},"ť":{"ha":664,"x_min":25,"x_max":782,"o":"m 25 733 l 178 733 l 178 932 l 396 932 l 396 733 l 614 733 l 614 558 l 396 558 l 396 226 q 408 188 396 200 q 447 175 421 175 l 614 175 l 614 0 l 393 0 q 231 53 285 0 q 178 206 178 107 l 178 558 l 25 558 l 25 733 z "},"Ŧ":{"ha":858,"x_min":15,"x_max":843,"o":"m 90 346 l 90 540 l 317 540 l 317 783 l 15 783 l 15 978 l 843 978 l 843 783 l 542 783 l 542 540 l 768 540 l 768 346 l 542 346 l 542 0 l 317 0 l 317 346 l 90 346 z "},"ŧ":{"ha":667,"x_min":25,"x_max":617,"o":"m 25 283 l 25 450 l 178 450 l 178 558 l 25 558 l 25 733 l 178 733 l 178 932 l 396 932 l 396 733 l 614 733 l 614 558 l 396 558 l 396 450 l 617 450 l 617 283 l 396 283 l 396 226 q 408 188 396 200 q 447 175 421 175 l 614 175 l 614 0 l 393 0 q 231 53 285 0 q 178 206 178 107 l 178 283 l 25 283 z "},"Ũ":{"ha":1004,"x_min":93,"x_max":911,"o":"m 503 -21 q 330 8 407 -21 q 201 88 253 38 q 121 206 149 138 q 93 354 93 275 l 93 978 l 318 978 l 318 361 q 369 222 318 269 q 503 174 419 174 q 636 222 586 174 q 686 361 686 269 l 686 978 l 911 978 l 911 354 q 883 206 911 275 q 803 88 856 138 q 675 8 751 38 q 503 -21 599 -21 m 594 1071 q 527 1084 554 1071 q 479 1113 500 1097 q 440 1142 458 1129 q 399 1156 422 1156 q 356 1139 369 1156 q 343 1089 343 1122 l 240 1089 l 240 1099 q 284 1230 240 1183 q 407 1276 328 1276 l 408 1276 q 478 1263 450 1276 q 526 1234 506 1250 q 567 1205 547 1218 q 611 1192 586 1192 q 652 1208 639 1192 q 665 1256 665 1225 l 768 1256 l 768 1247 q 723 1117 768 1164 q 596 1071 678 1071 l 594 1071 z "},"ũ":{"ha":863,"x_min":78,"x_max":775,"o":"m 557 300 l 557 733 l 775 733 l 775 0 l 571 0 l 571 111 l 569 111 q 483 14 542 47 q 349 -19 424 -19 q 154 60 231 -19 q 78 272 78 139 l 78 733 l 296 733 l 296 299 q 336 197 296 231 q 425 164 376 164 q 516 197 475 164 q 557 300 557 231 m 522 826 q 455 840 482 826 q 407 869 428 853 q 368 898 386 885 q 326 911 350 911 q 284 894 297 911 q 271 844 271 878 l 168 844 l 168 854 q 212 985 168 939 q 335 1032 256 1032 l 336 1032 q 406 1019 378 1032 q 454 990 433 1006 q 494 960 475 974 q 539 947 514 947 q 580 964 567 947 q 593 1011 593 981 l 696 1011 l 696 1003 q 651 873 696 919 q 524 826 606 826 l 522 826 z "},"Ū":{"ha":1004,"x_min":93,"x_max":911,"o":"m 503 -21 q 330 8 407 -21 q 201 88 253 38 q 121 206 149 138 q 93 354 93 275 l 93 978 l 318 978 l 318 361 q 369 222 318 269 q 503 174 419 174 q 636 222 586 174 q 686 361 686 269 l 686 978 l 911 978 l 911 354 q 883 206 911 275 q 803 88 856 138 q 675 8 751 38 q 503 -21 599 -21 m 307 1254 l 699 1254 l 699 1114 l 307 1114 l 307 1254 z "},"ū":{"ha":863,"x_min":78,"x_max":775,"o":"m 557 300 l 557 733 l 775 733 l 775 0 l 571 0 l 571 111 l 569 111 q 483 14 542 47 q 349 -19 424 -19 q 154 60 231 -19 q 78 272 78 139 l 78 733 l 296 733 l 296 299 q 336 197 296 231 q 425 164 376 164 q 516 197 475 164 q 557 300 557 231 m 235 1010 l 626 1010 l 626 869 l 235 869 l 235 1010 z "},"Ŭ":{"ha":1004,"x_min":93,"x_max":911,"o":"m 503 -21 q 330 8 407 -21 q 201 88 253 38 q 121 206 149 138 q 93 354 93 275 l 93 978 l 318 978 l 318 361 q 369 222 318 269 q 503 174 419 174 q 636 222 586 174 q 686 361 686 269 l 686 978 l 911 978 l 911 354 q 883 206 911 275 q 803 88 856 138 q 675 8 751 38 q 503 -21 599 -21 m 490 1071 q 317 1131 379 1071 q 254 1276 254 1192 l 421 1276 q 442 1222 421 1240 q 500 1204 464 1204 q 556 1223 538 1204 q 575 1276 575 1242 l 740 1276 q 678 1132 740 1193 q 508 1071 617 1071 l 490 1071 z "},"ŭ":{"ha":863,"x_min":78,"x_max":775,"o":"m 557 300 l 557 733 l 775 733 l 775 0 l 571 0 l 571 111 l 569 111 q 483 14 542 47 q 349 -19 424 -19 q 154 60 231 -19 q 78 272 78 139 l 78 733 l 296 733 l 296 299 q 336 197 296 231 q 425 164 376 164 q 516 197 475 164 q 557 300 557 231 m 418 826 q 244 887 307 826 q 182 1032 182 947 l 349 1032 q 370 978 349 996 q 428 960 392 960 q 484 978 465 960 q 503 1032 503 997 l 668 1032 q 606 888 668 949 q 436 826 544 826 l 418 826 z "},"Ů":{"ha":1004,"x_min":93,"x_max":911,"o":"m 503 -21 q 330 8 407 -21 q 201 88 253 38 q 121 206 149 138 q 93 354 93 275 l 93 978 l 318 978 l 318 361 q 369 222 318 269 q 503 174 419 174 q 636 222 586 174 q 686 361 686 269 l 686 978 l 911 978 l 911 354 q 883 206 911 275 q 803 88 856 138 q 675 8 751 38 q 503 -21 599 -21 m 507 1071 q 373 1119 431 1071 q 315 1247 315 1168 q 373 1376 315 1326 q 507 1425 431 1425 q 640 1376 583 1425 q 697 1247 697 1326 q 640 1119 697 1168 q 507 1071 583 1071 m 507 1171 q 560 1190 539 1171 q 581 1247 581 1208 q 560 1306 581 1286 q 507 1325 539 1325 q 453 1306 474 1325 q 432 1247 432 1286 q 453 1190 432 1208 q 507 1171 474 1171 z "},"ů":{"ha":863,"x_min":78,"x_max":775,"o":"m 557 300 l 557 733 l 775 733 l 775 0 l 571 0 l 571 111 l 569 111 q 483 14 542 47 q 349 -19 424 -19 q 154 60 231 -19 q 78 272 78 139 l 78 733 l 296 733 l 296 299 q 336 197 296 231 q 425 164 376 164 q 516 197 475 164 q 557 300 557 231 m 435 826 q 301 875 358 826 q 243 1003 243 924 q 301 1131 243 1082 q 435 1181 358 1181 q 568 1131 511 1181 q 625 1003 625 1082 q 568 875 625 924 q 435 826 511 826 m 435 926 q 488 945 467 926 q 508 1003 508 964 q 488 1061 508 1042 q 435 1081 467 1081 q 381 1061 401 1081 q 360 1003 360 1042 q 381 945 360 964 q 435 926 401 926 z "},"Ű":{"ha":1004,"x_min":93,"x_max":911,"o":"m 503 -21 q 330 8 407 -21 q 201 88 253 38 q 121 206 149 138 q 93 354 93 275 l 93 978 l 318 978 l 318 361 q 369 222 318 269 q 503 174 419 174 q 636 222 586 174 q 686 361 686 269 l 686 978 l 911 978 l 911 354 q 883 206 911 275 q 803 88 856 138 q 675 8 751 38 q 503 -21 599 -21 m 340 1276 l 546 1276 l 400 1071 l 257 1071 l 340 1276 m 638 1276 l 842 1276 l 699 1071 l 554 1071 l 638 1276 z "},"ű":{"ha":863,"x_min":78,"x_max":775,"o":"m 557 300 l 557 733 l 775 733 l 775 0 l 571 0 l 571 111 l 569 111 q 483 14 542 47 q 349 -19 424 -19 q 154 60 231 -19 q 78 272 78 139 l 78 733 l 296 733 l 296 299 q 336 197 296 231 q 425 164 376 164 q 516 197 475 164 q 557 300 557 231 m 268 1032 l 474 1032 l 328 826 l 185 826 l 268 1032 m 565 1032 l 769 1032 l 626 826 l 482 826 l 565 1032 z "},"Ų":{"ha":1004,"x_min":93,"x_max":911,"o":"m 503 -21 q 330 8 407 -21 q 201 88 253 38 q 121 206 149 138 q 93 354 93 275 l 93 978 l 318 978 l 318 361 q 369 222 318 269 q 503 174 419 174 q 636 222 586 174 q 686 361 686 269 l 686 978 l 911 978 l 911 354 q 883 206 911 275 q 803 88 856 138 q 675 8 751 38 q 503 -21 599 -21 m 582 47 l 582 0 q 516 -51 540 -31 q 492 -97 492 -72 q 506 -126 492 -115 q 556 -137 521 -137 l 657 -137 l 657 -276 l 499 -276 q 381 -237 419 -276 q 343 -146 343 -197 q 403 -44 343 -90 q 582 47 463 3 z "},"ų":{"ha":863,"x_min":78,"x_max":858,"o":"m 557 300 l 557 733 l 775 733 l 775 0 l 571 0 l 571 111 l 569 111 q 483 14 542 47 q 349 -19 424 -19 q 154 60 231 -19 q 78 272 78 139 l 78 733 l 296 733 l 296 299 q 336 197 296 231 q 425 164 376 164 q 516 197 475 164 q 557 300 557 231 m 783 47 l 783 0 q 717 -51 742 -31 q 693 -97 693 -72 q 708 -126 693 -115 q 757 -137 722 -137 l 858 -137 l 858 -276 l 700 -276 q 583 -237 621 -276 q 544 -146 544 -197 q 604 -44 544 -90 q 783 47 664 3 z "},"Ŵ":{"ha":1369,"x_min":6,"x_max":1367,"o":"m 6 978 l 243 978 l 413 350 l 415 350 l 593 981 l 797 981 l 978 344 l 981 344 l 1149 978 l 1367 978 l 1088 -1 l 875 -1 l 686 638 l 683 638 l 496 -1 l 294 -1 l 6 978 m 979 1071 l 782 1071 l 699 1172 l 689 1172 l 610 1071 l 440 1071 l 604 1276 l 817 1276 l 979 1071 z "},"ŵ":{"ha":1140,"x_min":7,"x_max":1133,"o":"m 7 733 l 236 733 l 353 282 l 354 282 l 483 735 l 685 735 l 811 285 l 813 285 l 929 733 l 1133 733 l 919 -3 l 706 -3 l 575 468 l 574 468 l 442 -3 l 235 -3 l 7 733 m 871 826 l 674 826 l 590 928 l 581 928 l 501 826 l 332 826 l 496 1032 l 708 1032 l 871 826 z "},"Ŷ":{"ha":897,"x_min":0,"x_max":914,"o":"m 343 0 l 343 364 l 0 978 l 243 978 l 457 582 l 460 582 l 674 978 l 914 978 l 568 364 l 568 0 l 343 0 m 740 1071 l 543 1071 l 460 1172 l 450 1172 l 371 1071 l 201 1071 l 365 1276 l 578 1276 l 740 1071 z "},"ŷ":{"ha":772,"x_min":3,"x_max":769,"o":"m 489 -42 q 369 -216 443 -167 q 186 -265 294 -265 l 11 -265 l 11 -90 l 175 -90 q 229 -78 207 -90 q 265 -26 251 -65 l 282 22 l 3 733 l 243 733 l 397 267 l 399 267 l 551 733 l 769 733 l 489 -42 m 692 826 l 494 826 l 411 928 l 401 928 l 322 826 l 153 826 l 317 1032 l 529 1032 l 692 826 z "},"Ÿ":{"ha":897,"x_min":0,"x_max":914,"o":"m 343 0 l 343 364 l 0 978 l 243 978 l 457 582 l 460 582 l 674 978 l 914 978 l 568 364 l 568 0 l 343 0 m 318 1074 l 313 1074 q 238 1104 268 1074 q 207 1176 207 1135 q 238 1249 207 1219 q 313 1279 268 1279 l 318 1279 q 393 1249 363 1279 q 424 1176 424 1219 q 393 1104 424 1135 q 318 1074 363 1074 m 601 1074 l 596 1074 q 521 1104 551 1074 q 490 1176 490 1135 q 521 1249 490 1219 q 596 1279 551 1279 l 601 1279 q 676 1249 646 1279 q 707 1176 707 1219 q 676 1104 707 1135 q 601 1074 646 1074 z "},"Ź":{"ha":889,"x_min":53,"x_max":828,"o":"m 326 194 l 828 194 l 828 0 l 53 0 l 53 194 l 531 783 l 67 783 l 67 978 l 804 978 l 804 783 l 326 194 m 433 1276 l 660 1276 l 515 1071 l 349 1071 l 433 1276 z "},"ź":{"ha":742,"x_min":53,"x_max":697,"o":"m 53 0 l 53 172 l 410 561 l 64 561 l 64 733 l 665 733 l 665 560 l 310 172 l 697 172 l 697 0 l 53 0 m 383 1032 l 610 1032 l 465 826 l 299 826 l 383 1032 z "},"Ż":{"ha":889,"x_min":53,"x_max":828,"o":"m 326 194 l 828 194 l 828 0 l 53 0 l 53 194 l 531 783 l 67 783 l 67 978 l 804 978 l 804 783 l 326 194 m 435 1074 l 429 1074 q 354 1104 385 1074 q 324 1176 324 1135 q 354 1249 324 1219 q 429 1279 385 1279 l 435 1279 q 510 1249 479 1279 q 540 1176 540 1219 q 510 1104 540 1135 q 435 1074 479 1074 z "},"ż":{"ha":742,"x_min":53,"x_max":697,"o":"m 53 0 l 53 172 l 410 561 l 64 561 l 64 733 l 665 733 l 665 560 l 310 172 l 697 172 l 697 0 l 53 0 m 385 829 l 379 829 q 304 860 335 829 q 274 932 274 890 q 304 1005 274 975 q 379 1035 335 1035 l 385 1035 q 460 1005 429 1035 q 490 932 490 975 q 460 860 490 890 q 385 829 429 829 z "},"Ž":{"ha":889,"x_min":53,"x_max":828,"o":"m 326 194 l 828 194 l 828 0 l 53 0 l 53 194 l 531 783 l 67 783 l 67 978 l 804 978 l 804 783 l 326 194 m 154 1276 l 351 1276 l 435 1175 l 444 1175 l 524 1276 l 693 1276 l 529 1071 l 317 1071 l 154 1276 z "},"ž":{"ha":742,"x_min":53,"x_max":697,"o":"m 53 0 l 53 172 l 410 561 l 64 561 l 64 733 l 665 733 l 665 560 l 310 172 l 697 172 l 697 0 l 53 0 m 104 1032 l 301 1032 l 385 931 l 394 931 l 474 1032 l 643 1032 l 479 826 l 267 826 l 104 1032 z "},"Ə":{"ha":1054,"x_min":47,"x_max":1003,"o":"m 518 -19 q 314 22 403 -19 q 166 135 225 64 q 77 305 107 207 q 47 514 47 403 l 47 563 l 772 563 q 701 744 767 675 q 522 814 635 814 q 372 772 426 814 q 301 678 318 731 l 65 678 q 121 804 83 746 q 215 906 158 863 q 348 974 271 949 q 521 999 425 999 q 725 960 635 999 q 876 855 815 922 q 970 694 938 788 q 1003 490 1003 600 q 969 285 1003 379 q 872 124 935 192 q 719 19 810 57 q 518 -19 629 -19 m 524 164 q 620 182 576 164 q 695 230 664 200 q 745 299 726 260 q 767 383 764 339 l 289 383 q 354 228 294 293 q 524 164 414 164 z "},"ƒ":{"ha":894,"x_min":47,"x_max":844,"o":"m 814 465 l 539 465 l 460 11 q 379 -141 442 -87 q 208 -194 317 -194 l 47 -194 l 47 -28 l 183 -28 q 224 -15 210 -28 q 243 24 239 -3 l 321 465 l 199 465 l 199 638 l 351 638 l 375 772 q 456 924 393 871 q 626 978 518 978 l 844 978 l 844 811 l 651 811 q 610 799 625 811 q 592 760 596 786 l 569 638 l 814 638 l 814 465 z "},"Ɲ":{"ha":1013,"x_min":-93,"x_max":969,"o":"m 106 0 l 106 978 l 363 978 l 754 340 l 756 340 l 756 978 l 969 978 l 969 0 l 728 0 l 325 668 l 324 668 l 324 0 l 106 0 m 108 -47 l 108 733 l 326 733 l 326 -65 q 273 -217 326 -164 q 111 -271 219 -271 l -93 -271 l -93 -99 l 57 -99 q 96 -86 83 -99 q 108 -47 108 -74 z "},"Ƶ":{"ha":889,"x_min":53,"x_max":828,"o":"m 326 194 l 828 194 l 828 0 l 53 0 l 53 194 l 229 413 l 90 413 l 90 596 l 378 596 l 531 783 l 67 783 l 67 978 l 804 978 l 804 783 l 651 596 l 782 596 l 782 413 l 503 413 l 326 194 z "},"ƶ":{"ha":750,"x_min":53,"x_max":697,"o":"m 53 0 l 53 172 l 168 299 l 74 299 l 74 449 l 306 449 l 410 561 l 64 561 l 64 733 l 665 733 l 665 560 l 564 449 l 685 449 l 685 299 l 425 299 l 310 172 l 697 172 l 697 0 l 53 0 z "},"Ǎ":{"ha":986,"x_min":0,"x_max":986,"o":"m 746 0 l 685 176 l 292 176 l 232 0 l 0 0 l 363 978 l 624 978 l 986 0 l 746 0 m 485 742 l 358 371 l 617 371 l 488 742 l 485 742 m 221 1276 l 418 1276 l 501 1175 l 511 1175 l 590 1276 l 760 1276 l 596 1071 l 383 1071 l 221 1276 z "},"ǎ":{"ha":819,"x_min":42,"x_max":803,"o":"m 64 517 q 163 688 76 622 q 397 753 249 753 q 517 739 460 753 q 619 694 575 725 q 689 611 663 663 q 715 485 715 560 l 715 210 q 726 175 715 183 q 760 167 738 167 l 803 167 l 803 0 l 689 0 q 576 33 610 0 q 542 119 542 67 l 542 121 l 540 121 q 453 19 514 57 q 304 -19 393 -19 q 115 41 188 -19 q 42 206 42 101 q 119 372 42 317 q 335 444 197 426 l 411 454 q 478 476 458 460 q 499 522 499 493 q 475 576 499 553 q 393 599 451 599 q 308 576 338 599 q 278 517 279 553 l 64 517 m 501 290 l 501 346 q 472 330 492 339 q 422 318 451 321 l 368 311 q 283 283 313 304 q 253 228 253 263 l 253 219 q 278 163 253 185 q 351 142 303 142 q 462 183 422 142 q 501 290 501 225 m 111 1031 l 308 1031 l 392 929 l 401 929 l 481 1031 l 650 1031 l 486 825 l 274 825 l 111 1031 z "},"Ǐ":{"ha":436,"x_min":-58,"x_max":481,"o":"m 106 978 l 331 978 l 331 0 l 106 0 l 106 978 m -58 1276 l 139 1276 l 222 1175 l 232 1175 l 311 1276 l 481 1276 l 317 1071 l 104 1071 l -58 1276 z "},"ǐ":{"ha":388,"x_min":-83,"x_max":456,"o":"m 85 733 l 303 733 l 303 0 l 85 0 l 85 733 m -83 1032 l 114 1032 l 197 931 l 207 931 l 286 1032 l 456 1032 l 292 826 l 79 826 l -83 1032 z "},"Ǒ":{"ha":1050,"x_min":51,"x_max":999,"o":"m 525 -19 q 324 20 413 -19 q 176 128 236 60 q 83 289 115 196 q 51 489 51 382 q 83 688 51 594 q 176 851 115 782 q 324 959 236 919 q 525 999 413 999 q 726 959 638 999 q 874 851 814 919 q 967 688 935 782 q 999 489 999 594 q 967 289 999 382 q 874 128 935 196 q 726 20 814 60 q 525 -19 638 -19 m 525 176 q 619 194 575 176 q 697 248 664 213 q 749 335 729 283 q 768 453 768 386 l 768 526 q 749 644 768 593 q 697 731 729 696 q 619 785 664 767 q 525 803 575 803 q 431 785 475 803 q 353 731 386 767 q 301 644 321 696 q 282 526 282 593 l 282 453 q 301 335 282 386 q 353 248 321 283 q 431 194 386 213 q 525 176 475 176 m 247 1276 l 444 1276 l 528 1175 l 538 1175 l 617 1276 l 786 1276 l 622 1071 l 410 1071 l 247 1276 z "},"ǒ":{"ha":847,"x_min":47,"x_max":800,"o":"m 424 -19 q 256 13 328 -19 q 139 99 185 46 q 70 223 93 153 q 47 367 47 293 q 70 510 47 440 q 139 634 93 581 q 256 720 185 688 q 424 753 328 753 q 591 720 519 753 q 708 634 663 688 q 777 510 754 581 q 800 367 800 440 q 777 223 800 293 q 708 99 754 153 q 591 13 663 46 q 424 -19 519 -19 m 582 332 l 582 401 q 537 530 582 485 q 424 575 492 575 q 310 529 356 575 q 265 401 265 483 l 265 332 q 310 204 265 250 q 424 158 356 158 q 537 203 492 158 q 582 332 582 249 m 147 1031 l 344 1031 l 428 929 l 438 929 l 517 1031 l 686 1031 l 522 825 l 310 825 l 147 1031 z "},"Ǔ":{"ha":1004,"x_min":93,"x_max":911,"o":"m 503 -21 q 330 8 407 -21 q 201 88 253 38 q 121 206 149 138 q 93 354 93 275 l 93 978 l 318 978 l 318 361 q 369 222 318 269 q 503 174 419 174 q 636 222 586 174 q 686 361 686 269 l 686 978 l 911 978 l 911 354 q 883 206 911 275 q 803 88 856 138 q 675 8 751 38 q 503 -21 599 -21 m 225 1276 l 422 1276 l 506 1175 l 515 1175 l 594 1276 l 764 1276 l 600 1071 l 388 1071 l 225 1276 z "},"ǔ":{"ha":863,"x_min":78,"x_max":775,"o":"m 557 300 l 557 733 l 775 733 l 775 0 l 571 0 l 571 111 l 569 111 q 483 14 542 47 q 349 -19 424 -19 q 154 60 231 -19 q 78 272 78 139 l 78 733 l 296 733 l 296 299 q 336 197 296 231 q 425 164 376 164 q 516 197 475 164 q 557 300 557 231 m 153 1032 l 350 1032 l 433 931 l 443 931 l 522 1032 l 692 1032 l 528 826 l 315 826 l 153 1032 z "},"Ǣ":{"ha":1389,"x_min":0,"x_max":1319,"o":"m 746 0 l 685 176 l 292 176 l 232 0 l 0 0 l 363 978 l 1319 978 l 1319 783 l 696 783 l 767 593 l 1275 593 l 1275 403 l 836 403 l 914 194 l 1319 194 l 1319 0 l 746 0 m 485 742 l 358 371 l 617 371 l 488 742 l 485 742 m 383 1254 l 775 1254 l 775 1114 l 383 1114 l 383 1254 z "},"ǣ":{"ha":1292,"x_min":42,"x_max":1244,"o":"m 633 621 l 635 621 q 736 716 674 679 q 894 753 799 753 q 1048 722 982 753 q 1157 640 1114 690 q 1222 523 1200 589 q 1244 388 1244 457 l 1244 310 l 724 310 q 773 185 725 229 q 892 140 821 140 q 981 167 951 140 q 1015 222 1011 193 l 1229 222 q 1121 47 1213 114 q 901 -19 1029 -19 q 709 37 782 -19 q 601 181 636 93 l 600 181 q 496 35 578 89 q 304 -19 414 -19 q 115 41 188 -19 q 42 206 42 101 q 119 372 42 317 q 335 444 197 426 l 411 454 q 478 476 458 460 q 499 522 499 493 q 475 576 499 553 q 393 599 451 599 q 308 576 338 599 q 278 517 279 553 l 64 517 q 160 688 76 622 q 382 753 243 753 q 533 722 468 753 q 633 621 599 692 m 879 593 q 777 556 819 593 q 725 451 735 519 l 1026 451 q 981 557 1022 521 q 879 593 939 593 m 501 290 l 501 346 q 472 330 492 339 q 422 318 451 321 l 368 311 q 283 283 313 304 q 253 228 253 263 l 253 219 q 278 163 253 185 q 351 142 303 142 q 462 183 422 142 q 501 290 501 225 m 440 1008 l 832 1008 l 832 868 l 440 868 l 440 1008 z "},"Ǧ":{"ha":1032,"x_min":51,"x_max":963,"o":"m 778 0 l 778 153 l 776 153 q 685 31 754 81 q 497 -19 615 -19 q 308 20 392 -19 q 167 128 224 60 q 81 290 111 197 q 51 489 51 383 q 83 690 51 596 q 176 851 115 783 q 324 959 236 919 q 524 999 413 999 q 816 910 703 999 q 956 676 929 821 l 710 676 q 658 763 700 722 q 528 803 615 803 q 433 785 478 803 q 354 731 388 767 q 301 644 321 696 q 282 526 282 593 l 282 447 q 353 242 282 314 q 529 171 425 171 q 619 188 579 171 q 685 231 658 204 q 727 290 713 257 q 742 356 742 324 l 522 356 l 522 536 l 963 536 l 963 0 l 778 0 m 250 1276 l 447 1276 l 531 1175 l 540 1175 l 619 1276 l 789 1276 l 625 1071 l 413 1071 l 250 1276 z "},"ǧ":{"ha":871,"x_min":47,"x_max":797,"o":"m 64 -36 l 278 -36 q 319 -99 283 -75 q 414 -122 354 -122 q 536 -79 493 -122 q 579 57 579 -36 l 579 144 l 578 144 q 494 67 547 97 q 363 38 442 38 q 224 68 283 38 q 125 149 164 99 q 67 264 86 199 q 47 399 47 329 q 67 529 47 465 q 125 642 86 593 q 224 722 164 692 q 363 753 283 753 q 506 719 450 753 q 592 629 563 685 l 593 629 l 593 733 l 797 733 l 797 76 q 698 -189 797 -92 q 413 -286 599 -286 q 268 -267 332 -286 q 160 -213 204 -247 q 92 -133 117 -179 q 64 -36 68 -87 m 265 410 l 265 379 q 310 257 265 300 q 422 214 356 214 q 534 258 489 214 q 579 379 579 301 l 579 410 q 534 532 579 489 q 422 575 489 575 q 310 533 356 575 q 265 410 265 490 m 158 1032 l 356 1032 l 439 931 l 449 931 l 528 1032 l 697 1032 l 533 826 l 321 826 l 158 1032 z "},"Ǫ":{"ha":1050,"x_min":51,"x_max":999,"o":"m 525 -19 q 324 20 413 -19 q 176 128 236 60 q 83 289 115 196 q 51 489 51 382 q 83 688 51 594 q 176 851 115 782 q 324 959 236 919 q 525 999 413 999 q 726 959 638 999 q 874 851 814 919 q 967 688 935 782 q 999 489 999 594 q 967 289 999 382 q 874 128 935 196 q 726 20 814 60 q 525 -19 638 -19 m 525 176 q 619 194 575 176 q 697 248 664 213 q 749 335 729 283 q 768 453 768 386 l 768 526 q 749 644 768 593 q 697 731 729 696 q 619 785 664 767 q 525 803 575 803 q 431 785 475 803 q 353 731 386 767 q 301 644 321 696 q 282 526 282 593 l 282 453 q 301 335 282 386 q 353 248 321 283 q 431 194 386 213 q 525 176 475 176 m 603 47 l 603 0 q 537 -51 561 -31 q 513 -97 513 -72 q 527 -126 513 -115 q 576 -137 542 -137 l 678 -137 l 678 -276 l 519 -276 q 402 -237 440 -276 q 364 -146 364 -197 q 424 -44 364 -90 q 603 47 483 3 z "},"ǫ":{"ha":847,"x_min":47,"x_max":800,"o":"m 424 -19 q 256 13 328 -19 q 139 99 185 46 q 70 223 93 153 q 47 367 47 293 q 70 510 47 440 q 139 634 93 581 q 256 720 185 688 q 424 753 328 753 q 591 720 519 753 q 708 634 663 688 q 777 510 754 581 q 800 367 800 440 q 777 223 800 293 q 708 99 754 153 q 591 13 663 46 q 424 -19 519 -19 m 582 332 l 582 401 q 537 530 582 485 q 424 575 492 575 q 310 529 356 575 q 265 401 265 483 l 265 332 q 310 204 265 250 q 424 158 356 158 q 537 203 492 158 q 582 332 582 249 m 504 47 l 504 0 q 438 -51 463 -31 q 414 -97 414 -72 q 428 -126 414 -115 q 478 -137 443 -137 l 579 -137 l 579 -276 l 421 -276 q 303 -237 342 -276 q 265 -146 265 -197 q 325 -44 265 -90 q 504 47 385 3 z "},"ǹ":{"ha":860,"x_min":85,"x_max":782,"o":"m 303 433 l 303 0 l 85 0 l 85 733 l 289 733 l 289 622 l 290 622 q 377 719 318 686 q 511 753 436 753 q 706 674 629 753 q 782 461 782 594 l 782 0 l 564 0 l 564 435 q 524 536 564 503 q 435 569 483 569 q 344 536 385 569 q 303 433 303 503 z "},"Ǻ":{"ha":986,"x_min":0,"x_max":986,"o":"m 746 0 l 685 176 l 292 176 l 232 0 l 0 0 l 363 978 l 624 978 l 986 0 l 746 0 m 485 742 l 358 371 l 617 371 l 488 742 l 485 742 m 503 878 q 369 926 426 878 q 311 1054 311 975 q 340 1151 311 1110 q 415 1214 369 1192 l 500 1429 l 726 1429 l 585 1215 q 663 1153 632 1196 q 693 1054 693 1111 q 636 926 693 975 q 503 878 579 878 m 503 978 q 556 997 535 978 q 576 1054 576 1015 q 556 1113 576 1093 q 503 1132 535 1132 q 449 1113 469 1132 q 428 1054 428 1093 q 449 997 428 1015 q 503 978 469 978 z "},"ǻ":{"ha":819,"x_min":42,"x_max":803,"o":"m 64 517 q 163 688 76 622 q 397 753 249 753 q 517 739 460 753 q 619 694 575 725 q 689 611 663 663 q 715 485 715 560 l 715 210 q 726 175 715 183 q 760 167 738 167 l 803 167 l 803 0 l 689 0 q 576 33 610 0 q 542 119 542 67 l 542 121 l 540 121 q 453 19 514 57 q 304 -19 393 -19 q 115 41 188 -19 q 42 206 42 101 q 119 372 42 317 q 335 444 197 426 l 411 454 q 478 476 458 460 q 499 522 499 493 q 475 576 499 553 q 393 599 451 599 q 308 576 338 599 q 278 517 279 553 l 64 517 m 501 290 l 501 346 q 472 330 492 339 q 422 318 451 321 l 368 311 q 283 283 313 304 q 253 228 253 263 l 253 219 q 278 163 253 185 q 351 142 303 142 q 462 183 422 142 q 501 290 501 225 m 389 653 q 255 701 313 653 q 197 829 197 750 q 226 926 197 885 q 301 989 256 967 l 386 1204 l 613 1204 l 471 990 q 549 928 518 971 q 579 829 579 886 q 522 701 579 750 q 389 653 465 653 m 389 753 q 442 772 421 753 q 463 829 463 790 q 442 888 463 868 q 389 907 421 907 q 335 888 356 907 q 314 829 314 868 q 335 772 314 790 q 389 753 356 753 z "},"Ǽ":{"ha":1389,"x_min":0,"x_max":1319,"o":"m 746 0 l 685 176 l 292 176 l 232 0 l 0 0 l 363 978 l 1319 978 l 1319 783 l 696 783 l 767 593 l 1275 593 l 1275 403 l 836 403 l 914 194 l 1319 194 l 1319 0 l 746 0 m 485 742 l 358 371 l 617 371 l 488 742 l 485 742 m 581 1276 l 807 1276 l 663 1071 l 496 1071 l 581 1276 z "},"ǽ":{"ha":1292,"x_min":42,"x_max":1244,"o":"m 633 621 l 635 621 q 736 716 674 679 q 894 753 799 753 q 1048 722 982 753 q 1157 640 1114 690 q 1222 523 1200 589 q 1244 388 1244 457 l 1244 310 l 724 310 q 773 185 725 229 q 892 140 821 140 q 981 167 951 140 q 1015 222 1011 193 l 1229 222 q 1121 47 1213 114 q 901 -19 1029 -19 q 709 37 782 -19 q 601 181 636 93 l 600 181 q 496 35 578 89 q 304 -19 414 -19 q 115 41 188 -19 q 42 206 42 101 q 119 372 42 317 q 335 444 197 426 l 411 454 q 478 476 458 460 q 499 522 499 493 q 475 576 499 553 q 393 599 451 599 q 308 576 338 599 q 278 517 279 553 l 64 517 q 160 688 76 622 q 382 753 243 753 q 533 722 468 753 q 633 621 599 692 m 879 593 q 777 556 819 593 q 725 451 735 519 l 1026 451 q 981 557 1022 521 q 879 593 939 593 m 501 290 l 501 346 q 472 330 492 339 q 422 318 451 321 l 368 311 q 283 283 313 304 q 253 228 253 263 l 253 219 q 278 163 253 185 q 351 142 303 142 q 462 183 422 142 q 501 290 501 225 m 638 1031 l 864 1031 l 719 825 l 553 825 l 638 1031 z "},"Ǿ":{"ha":1050,"x_min":51,"x_max":999,"o":"m 68 -36 l 179 124 q 84 286 117 192 q 51 489 51 381 q 83 688 51 594 q 176 851 115 782 q 324 959 236 919 q 525 999 413 999 q 645 985 589 999 q 749 947 701 972 l 856 1101 l 982 1014 l 871 854 q 966 692 933 786 q 999 489 999 597 q 967 289 999 382 q 874 128 935 196 q 726 20 814 60 q 525 -19 638 -19 q 405 -6 461 -19 q 301 31 349 7 l 194 -124 l 68 -36 m 282 453 q 289 377 282 413 q 310 313 296 342 l 632 779 q 581 797 608 790 q 525 803 554 803 q 431 785 475 803 q 353 731 386 767 q 301 644 321 696 q 282 526 282 593 l 282 453 m 525 176 q 619 194 575 176 q 697 248 664 213 q 749 335 729 283 q 768 453 768 386 l 768 526 q 761 601 768 567 q 740 665 754 636 l 418 200 q 469 183 442 189 q 525 176 497 176 m 525 1276 l 751 1276 l 607 1071 l 440 1071 l 525 1276 z "},"ǿ":{"ha":844,"x_min":25,"x_max":817,"o":"m 25 -12 l 126 111 q 65 229 85 163 q 44 367 44 296 q 67 510 44 440 q 136 634 90 581 q 253 720 182 688 q 421 753 325 753 q 530 740 481 753 q 619 704 579 726 l 721 828 l 817 746 l 714 622 q 777 503 757 569 q 797 367 797 436 q 774 223 797 293 q 706 99 751 153 q 588 13 660 46 q 421 -19 517 -19 q 312 -7 361 -19 q 222 28 263 6 l 121 -94 l 25 -12 m 263 332 q 264 306 263 318 q 268 281 265 293 l 497 557 q 461 571 481 567 q 421 575 442 575 q 308 529 353 575 q 263 401 263 483 l 263 332 m 579 332 l 579 401 q 578 428 579 415 q 574 453 576 442 l 344 176 q 381 163 361 167 q 421 158 400 158 q 534 203 489 158 q 579 332 579 249 m 417 1031 l 643 1031 l 499 825 l 332 825 l 417 1031 z "},"Ș":{"ha":939,"x_min":36,"x_max":864,"o":"m 453 -21 q 283 3 360 -21 q 151 68 206 26 q 66 169 96 110 q 36 300 36 229 l 264 300 q 315 193 264 229 q 456 157 367 157 q 590 191 546 157 q 635 275 635 225 q 597 349 635 331 q 485 379 560 368 l 363 397 q 143 485 229 417 q 57 694 57 554 q 84 814 57 758 q 161 910 111 869 q 285 976 211 951 q 451 1000 358 1000 q 622 976 547 1000 q 746 910 696 951 q 822 815 796 869 q 850 699 849 760 l 622 699 q 582 788 622 753 q 450 822 542 822 q 323 789 361 822 q 285 714 285 756 q 322 637 285 658 q 431 606 360 615 l 549 589 q 672 560 614 579 q 772 506 729 540 q 839 420 814 472 q 864 294 864 368 q 834 165 864 224 q 750 66 804 107 q 620 2 696 25 q 453 -21 544 -21 z "},"ș":{"ha":758,"x_min":39,"x_max":719,"o":"m 39 222 l 263 222 q 296 156 263 176 q 385 135 329 135 q 468 153 436 135 q 500 207 500 172 q 467 258 500 244 q 382 278 433 272 l 278 292 q 194 312 235 297 q 124 352 154 326 q 74 418 93 378 q 56 514 56 458 q 81 617 56 572 q 151 693 107 663 q 255 740 194 724 q 383 756 315 756 q 614 688 528 756 q 704 521 700 621 l 485 521 q 458 581 485 560 q 378 601 431 601 q 301 583 326 601 q 275 533 275 564 q 298 488 275 503 q 357 467 321 472 l 461 453 q 553 433 507 447 q 637 393 600 419 q 697 326 674 367 q 719 225 719 285 q 693 120 719 167 q 621 42 667 74 q 513 -6 575 11 q 378 -22 450 -22 q 242 -6 304 -22 q 135 43 181 11 q 65 120 90 75 q 39 222 39 165 z "},"Ț":{"ha":889,"x_min":15,"x_max":843,"o":"m 317 783 l 15 783 l 15 978 l 843 978 l 843 783 l 542 783 l 542 0 l 317 0 l 317 783 z "},"ț":{"ha":664,"x_min":25,"x_max":614,"o":"m 25 733 l 178 733 l 178 932 l 396 932 l 396 733 l 614 733 l 614 558 l 396 558 l 396 226 q 408 188 396 200 q 447 175 421 175 l 614 175 l 614 0 l 393 0 q 231 53 285 0 q 178 206 178 107 l 178 558 l 25 558 l 25 733 z "},"Ȳ":{"ha":897,"x_min":0,"x_max":914,"o":"m 343 0 l 343 364 l 0 978 l 243 978 l 457 582 l 460 582 l 674 978 l 914 978 l 568 364 l 568 0 l 343 0 m 256 1254 l 647 1254 l 647 1114 l 256 1114 l 256 1254 z "},"ȳ":{"ha":772,"x_min":3,"x_max":769,"o":"m 489 -42 q 369 -216 443 -167 q 186 -265 294 -265 l 11 -265 l 11 -90 l 175 -90 q 229 -78 207 -90 q 265 -26 251 -65 l 282 22 l 3 733 l 243 733 l 397 267 l 399 267 l 551 733 l 769 733 l 489 -42 m 207 1010 l 599 1010 l 599 869 l 207 869 l 207 1010 z "},"ȷ":{"ha":390,"x_min":-114,"x_max":306,"o":"m 88 -47 l 88 733 l 306 733 l 306 -65 q 252 -217 306 -164 q 90 -271 199 -271 l -114 -271 l -114 -99 l 36 -99 q 75 -86 63 -99 q 88 -47 88 -74 z "},"ə":{"ha":833,"x_min":50,"x_max":786,"o":"m 407 753 q 575 720 503 753 q 694 635 647 688 q 763 512 740 582 q 786 367 786 442 q 764 223 786 293 q 696 99 742 153 q 579 13 650 46 q 414 -19 508 -19 q 253 12 322 -19 q 140 94 185 43 q 72 210 94 144 q 50 346 50 276 l 50 424 l 568 424 q 519 549 567 504 q 401 593 472 593 q 313 567 343 593 q 279 513 282 542 l 64 513 q 174 687 79 621 q 407 753 268 753 m 414 140 q 517 177 475 140 q 567 282 558 214 l 268 282 q 311 176 271 213 q 414 140 351 140 z "},"ɲ":{"ha":825,"x_min":-117,"x_max":782,"o":"m 303 433 l 303 0 l 85 0 l 85 733 l 289 733 l 289 622 l 290 622 q 377 719 318 686 q 511 753 436 753 q 706 674 629 753 q 782 461 782 594 l 782 0 l 564 0 l 564 435 q 524 536 564 503 q 435 569 483 569 q 344 536 385 569 q 303 433 303 503 m 85 -47 l 85 733 l 303 733 l 303 -65 q 249 -217 303 -164 q 88 -271 196 -271 l -117 -271 l -117 -99 l 33 -99 q 72 -86 60 -99 q 85 -47 85 -74 z "},"ˆ":{"ha":699,"x_min":115,"x_max":654,"o":"m 654 825 l 457 825 l 374 926 l 364 926 l 285 825 l 115 825 l 279 1031 l 492 1031 l 654 825 z "},"ˇ":{"ha":699,"x_min":74,"x_max":613,"o":"m 74 1031 l 271 1031 l 354 929 l 364 929 l 443 1031 l 613 1031 l 449 825 l 236 825 l 74 1031 z "},"˘":{"ha":701,"x_min":100,"x_max":586,"o":"m 336 825 q 163 885 225 825 q 100 1031 100 946 l 267 1031 q 288 976 267 994 q 346 958 310 958 q 402 977 383 958 q 421 1031 421 996 l 586 1031 q 524 886 586 947 q 354 825 463 825 l 336 825 z "},"˙":{"ha":701,"x_min":243,"x_max":460,"o":"m 354 828 l 349 828 q 274 858 304 828 q 243 931 243 889 q 274 1003 243 974 q 349 1033 304 1033 l 354 1033 q 429 1003 399 1033 q 460 931 460 974 q 429 858 460 889 q 354 828 399 828 z "},"˚":{"ha":694,"x_min":160,"x_max":542,"o":"m 351 825 q 217 874 275 825 q 160 1001 160 922 q 217 1130 160 1081 q 351 1179 275 1179 q 485 1130 428 1179 q 542 1001 542 1081 q 485 874 542 922 q 351 825 428 825 m 351 925 q 404 944 383 925 q 425 1001 425 963 q 404 1060 425 1040 q 351 1079 383 1079 q 297 1060 318 1079 q 276 1001 276 1040 q 297 944 276 963 q 351 925 318 925 z "},"˛":{"ha":697,"x_min":169,"x_max":483,"o":"m 408 47 l 408 0 q 342 -51 367 -31 q 318 -97 318 -72 q 333 -126 318 -115 q 382 -137 347 -137 l 483 -137 l 483 -276 l 325 -276 q 208 -237 246 -276 q 169 -146 169 -197 q 229 -44 169 -90 q 408 47 289 3 z "},"˜":{"ha":692,"x_min":82,"x_max":610,"o":"m 436 825 q 369 838 396 825 q 321 867 342 851 q 282 897 300 883 q 240 910 264 910 q 198 893 211 910 q 185 843 185 876 l 82 843 l 82 853 q 126 984 82 938 q 249 1031 169 1031 l 250 1031 q 319 1017 292 1031 q 368 988 347 1004 q 408 959 389 972 q 453 946 428 946 q 494 963 481 946 q 507 1010 507 979 l 610 1010 l 610 1001 q 565 872 610 918 q 438 825 519 825 l 436 825 z "},"˝":{"ha":707,"x_min":79,"x_max":664,"o":"m 163 1031 l 368 1031 l 222 825 l 79 825 l 163 1031 m 460 1031 l 664 1031 l 521 825 l 376 825 l 460 1031 z "},"Δ":{"ha":889,"x_min":26,"x_max":861,"o":"m 26 0 l 26 181 l 325 978 l 563 978 l 861 181 l 861 0 l 26 0 m 250 182 l 639 182 l 444 728 l 250 182 z "},"Ω":{"ha":1044,"x_min":67,"x_max":978,"o":"m 78 0 l 78 179 l 274 179 l 274 183 q 124 324 182 226 q 67 551 67 421 q 98 730 67 647 q 188 872 129 813 q 332 965 247 931 q 522 999 417 999 q 709 965 625 999 q 853 874 793 932 q 945 733 913 815 q 978 556 978 651 q 920 326 978 424 q 769 183 863 228 l 769 179 l 967 179 l 967 0 l 576 0 l 576 249 q 710 353 664 281 q 757 542 757 426 q 690 742 757 669 q 522 815 622 815 q 353 743 418 815 q 288 542 288 671 q 334 353 288 426 q 468 249 381 281 l 468 0 l 78 0 z "},"฿":{"ha":969,"x_min":122,"x_max":897,"o":"m 122 0 l 122 978 l 379 978 l 379 1158 l 549 1158 l 549 978 l 556 978 q 781 906 693 978 q 869 710 869 835 q 828 586 869 639 q 719 511 788 533 q 847 431 797 488 q 897 282 897 374 q 873 163 897 215 q 806 74 849 110 q 703 19 763 39 q 575 0 644 0 l 549 0 l 549 -179 l 379 -179 l 379 0 l 122 0 m 660 685 l 660 699 q 633 772 660 744 q 556 800 607 800 l 331 800 l 331 585 l 556 585 q 633 612 607 585 q 660 685 660 639 m 686 293 l 686 307 q 655 393 686 363 q 565 424 624 424 l 331 424 l 331 182 l 568 182 q 657 214 628 182 q 686 293 686 246 z "},"Ẁ":{"ha":1369,"x_min":6,"x_max":1367,"o":"m 6 978 l 243 978 l 413 350 l 415 350 l 593 981 l 797 981 l 978 344 l 981 344 l 1149 978 l 1367 978 l 1088 -1 l 875 -1 l 686 638 l 683 638 l 496 -1 l 294 -1 l 6 978 m 689 1276 l 774 1071 l 607 1071 l 463 1276 l 689 1276 z "},"ẁ":{"ha":1140,"x_min":7,"x_max":1133,"o":"m 7 733 l 236 733 l 353 282 l 354 282 l 483 735 l 685 735 l 811 285 l 813 285 l 929 733 l 1133 733 l 919 -3 l 706 -3 l 575 468 l 574 468 l 442 -3 l 235 -3 l 7 733 m 581 1032 l 665 826 l 499 826 l 354 1032 l 581 1032 z "},"Ẃ":{"ha":1369,"x_min":6,"x_max":1367,"o":"m 6 978 l 243 978 l 413 350 l 415 350 l 593 981 l 797 981 l 978 344 l 981 344 l 1149 978 l 1367 978 l 1088 -1 l 875 -1 l 686 638 l 683 638 l 496 -1 l 294 -1 l 6 978 m 692 1276 l 918 1276 l 774 1071 l 607 1071 l 692 1276 z "},"ẃ":{"ha":1140,"x_min":7,"x_max":1133,"o":"m 7 733 l 236 733 l 353 282 l 354 282 l 483 735 l 685 735 l 811 285 l 813 285 l 929 733 l 1133 733 l 919 -3 l 706 -3 l 575 468 l 574 468 l 442 -3 l 235 -3 l 7 733 m 583 1032 l 810 1032 l 665 826 l 499 826 l 583 1032 z "},"Ẅ":{"ha":1369,"x_min":6,"x_max":1367,"o":"m 6 978 l 243 978 l 413 350 l 415 350 l 593 981 l 797 981 l 978 344 l 981 344 l 1149 978 l 1367 978 l 1088 -1 l 875 -1 l 686 638 l 683 638 l 496 -1 l 294 -1 l 6 978 m 557 1074 l 551 1074 q 476 1104 507 1074 q 446 1176 446 1135 q 476 1249 446 1219 q 551 1279 507 1279 l 557 1279 q 632 1249 601 1279 q 663 1176 663 1219 q 632 1104 663 1135 q 557 1074 601 1074 m 840 1074 l 835 1074 q 760 1104 790 1074 q 729 1176 729 1135 q 760 1249 729 1219 q 835 1279 790 1279 l 840 1279 q 915 1249 885 1279 q 946 1176 946 1219 q 915 1104 946 1135 q 840 1074 885 1074 z "},"ẅ":{"ha":1140,"x_min":7,"x_max":1133,"o":"m 7 733 l 236 733 l 353 282 l 354 282 l 483 735 l 685 735 l 811 285 l 813 285 l 929 733 l 1133 733 l 919 -3 l 706 -3 l 575 468 l 574 468 l 442 -3 l 235 -3 l 7 733 m 449 829 l 443 829 q 368 860 399 829 q 338 932 338 890 q 368 1005 338 975 q 443 1035 399 1035 l 449 1035 q 524 1005 493 1035 q 554 932 554 975 q 524 860 554 890 q 449 829 493 829 m 732 829 l 726 829 q 651 860 682 829 q 621 932 621 890 q 651 1005 621 975 q 726 1035 682 1035 l 732 1035 q 807 1005 776 1035 q 838 932 838 975 q 807 860 838 890 q 732 829 776 829 z "},"ẞ":{"ha":993,"x_min":106,"x_max":946,"o":"m 106 0 l 106 978 l 872 978 l 872 793 l 688 578 l 704 578 q 883 501 821 578 q 946 313 946 425 q 924 192 946 249 q 858 92 901 135 q 749 25 814 50 q 601 0 685 0 l 435 0 l 435 185 l 582 185 q 685 217 647 185 q 724 307 724 250 q 679 398 724 375 q 553 421 635 421 l 458 421 l 458 578 l 646 793 l 328 793 l 328 0 l 106 0 z "},"Ạ":{"ha":986,"x_min":0,"x_max":986,"o":"m 746 0 l 685 176 l 292 176 l 232 0 l 0 0 l 363 978 l 624 978 l 986 0 l 746 0 m 485 742 l 358 371 l 617 371 l 488 742 l 485 742 m 508 -343 l 503 -343 q 428 -312 458 -343 q 397 -240 397 -282 q 428 -167 397 -197 q 503 -137 458 -137 l 508 -137 q 583 -167 553 -137 q 614 -240 614 -197 q 583 -312 614 -282 q 508 -343 553 -343 z "},"ạ":{"ha":819,"x_min":42,"x_max":803,"o":"m 64 517 q 163 688 76 622 q 397 753 249 753 q 517 739 460 753 q 619 694 575 725 q 689 611 663 663 q 715 485 715 560 l 715 210 q 726 175 715 183 q 760 167 738 167 l 803 167 l 803 0 l 689 0 q 576 33 610 0 q 542 119 542 67 l 542 121 l 540 121 q 453 19 514 57 q 304 -19 393 -19 q 115 41 188 -19 q 42 206 42 101 q 119 372 42 317 q 335 444 197 426 l 411 454 q 478 476 458 460 q 499 522 499 493 q 475 576 499 553 q 393 599 451 599 q 308 576 338 599 q 278 517 279 553 l 64 517 m 501 290 l 501 346 q 472 330 492 339 q 422 318 451 321 l 368 311 q 283 283 313 304 q 253 228 253 263 l 253 219 q 278 163 253 185 q 351 142 303 142 q 462 183 422 142 q 501 290 501 225 m 308 -343 l 303 -343 q 228 -312 258 -343 q 197 -240 197 -282 q 228 -167 197 -197 q 303 -137 258 -137 l 308 -137 q 383 -167 353 -137 q 414 -240 414 -197 q 383 -312 414 -282 q 308 -343 353 -343 z "},"Ẹ":{"ha":889,"x_min":106,"x_max":819,"o":"m 106 978 l 819 978 l 819 783 l 331 783 l 331 593 l 775 593 l 775 403 l 331 403 l 331 194 l 819 194 l 819 0 l 106 0 l 106 978 m 485 -343 l 479 -343 q 404 -312 435 -343 q 374 -240 374 -282 q 404 -167 374 -197 q 479 -137 435 -137 l 485 -137 q 560 -167 529 -137 q 590 -240 590 -197 q 560 -312 590 -282 q 485 -343 529 -343 z "},"ẹ":{"ha":831,"x_min":47,"x_max":783,"o":"m 426 -19 q 258 13 331 -19 q 140 99 186 46 q 70 222 93 151 q 47 367 47 292 q 69 510 47 440 q 138 634 92 581 q 254 720 183 688 q 419 753 325 753 q 580 722 511 753 q 694 640 649 690 q 761 523 739 589 q 783 388 783 457 l 783 310 l 265 310 q 314 185 267 229 q 432 140 361 140 q 521 166 490 140 q 554 221 551 192 l 769 221 q 660 47 754 113 q 426 -19 565 -19 m 419 593 q 317 556 358 593 q 267 451 275 519 l 565 451 q 522 557 563 521 q 419 593 482 593 m 436 -343 l 431 -343 q 356 -312 386 -343 q 325 -240 325 -282 q 356 -167 325 -197 q 431 -137 386 -137 l 436 -137 q 511 -167 481 -137 q 542 -240 542 -197 q 511 -312 542 -282 q 436 -343 481 -343 z "},"Ẽ":{"ha":889,"x_min":106,"x_max":819,"o":"m 106 978 l 819 978 l 819 783 l 331 783 l 331 593 l 775 593 l 775 403 l 331 403 l 331 194 l 819 194 l 819 0 l 106 0 l 106 978 m 568 1071 q 501 1084 528 1071 q 453 1113 474 1097 q 414 1142 432 1129 q 372 1156 396 1156 q 330 1139 343 1156 q 317 1089 317 1122 l 214 1089 l 214 1099 q 258 1230 214 1183 q 381 1276 301 1276 l 382 1276 q 451 1263 424 1276 q 500 1234 479 1250 q 540 1205 521 1218 q 585 1192 560 1192 q 626 1208 613 1192 q 639 1256 639 1225 l 742 1256 l 742 1247 q 697 1117 742 1164 q 569 1071 651 1071 l 568 1071 z "},"ẽ":{"ha":831,"x_min":47,"x_max":783,"o":"m 426 -19 q 258 13 331 -19 q 140 99 186 46 q 70 222 93 151 q 47 367 47 292 q 69 510 47 440 q 138 634 92 581 q 254 720 183 688 q 419 753 325 753 q 580 722 511 753 q 694 640 649 690 q 761 523 739 589 q 783 388 783 457 l 783 310 l 265 310 q 314 185 267 229 q 432 140 361 140 q 521 166 490 140 q 554 221 551 192 l 769 221 q 660 47 754 113 q 426 -19 565 -19 m 419 593 q 317 556 358 593 q 267 451 275 519 l 565 451 q 522 557 563 521 q 419 593 482 593 m 513 826 q 445 840 472 826 q 397 869 418 853 q 358 898 376 885 q 317 911 340 911 q 274 894 288 911 q 261 844 261 878 l 158 844 l 158 854 q 202 985 158 939 q 325 1032 246 1032 l 326 1032 q 396 1019 368 1032 q 444 990 424 1006 q 485 960 465 974 q 529 947 504 947 q 570 964 557 947 q 583 1011 583 981 l 686 1011 l 686 1003 q 641 873 686 919 q 514 826 596 826 l 513 826 z "},"Ị":{"ha":436,"x_min":106,"x_max":333,"o":"m 106 978 l 331 978 l 331 0 l 106 0 l 106 978 m 228 -343 l 222 -343 q 147 -312 178 -343 q 117 -240 117 -282 q 147 -167 117 -197 q 222 -137 178 -137 l 228 -137 q 303 -167 272 -137 q 333 -240 333 -197 q 303 -312 333 -282 q 228 -343 272 -343 z "},"ị":{"ha":388,"x_min":60,"x_max":328,"o":"m 201 792 l 188 792 q 97 828 133 792 q 60 915 60 865 q 97 1003 60 967 q 188 1039 133 1039 l 201 1039 q 291 1003 254 1039 q 328 915 328 967 q 291 828 328 865 q 201 792 254 792 m 85 733 l 303 733 l 303 0 l 85 0 l 85 733 m 203 -343 l 197 -343 q 122 -312 153 -343 q 92 -240 92 -282 q 122 -167 92 -197 q 197 -137 153 -137 l 203 -137 q 278 -167 247 -137 q 308 -240 308 -197 q 278 -312 308 -282 q 203 -343 247 -343 z "},"Ọ":{"ha":1050,"x_min":51,"x_max":999,"o":"m 525 -19 q 324 20 413 -19 q 176 128 236 60 q 83 289 115 196 q 51 489 51 382 q 83 688 51 594 q 176 851 115 782 q 324 959 236 919 q 525 999 413 999 q 726 959 638 999 q 874 851 814 919 q 967 688 935 782 q 999 489 999 594 q 967 289 999 382 q 874 128 935 196 q 726 20 814 60 q 525 -19 638 -19 m 525 176 q 619 194 575 176 q 697 248 664 213 q 749 335 729 283 q 768 453 768 386 l 768 526 q 749 644 768 593 q 697 731 729 696 q 619 785 664 767 q 525 803 575 803 q 431 785 475 803 q 353 731 386 767 q 301 644 321 696 q 282 526 282 593 l 282 453 q 301 335 282 386 q 353 248 321 283 q 431 194 386 213 q 525 176 475 176 m 533 -343 l 528 -343 q 453 -312 483 -343 q 422 -240 422 -282 q 453 -167 422 -197 q 528 -137 483 -137 l 533 -137 q 608 -167 578 -137 q 639 -240 639 -197 q 608 -312 639 -282 q 533 -343 578 -343 z "},"ọ":{"ha":847,"x_min":47,"x_max":800,"o":"m 424 -19 q 256 13 328 -19 q 139 99 185 46 q 70 223 93 153 q 47 367 47 293 q 70 510 47 440 q 139 634 93 581 q 256 720 185 688 q 424 753 328 753 q 591 720 519 753 q 708 634 663 688 q 777 510 754 581 q 800 367 800 440 q 777 223 800 293 q 708 99 754 153 q 591 13 663 46 q 424 -19 519 -19 m 582 332 l 582 401 q 537 530 582 485 q 424 575 492 575 q 310 529 356 575 q 265 401 265 483 l 265 332 q 310 204 265 250 q 424 158 356 158 q 537 203 492 158 q 582 332 582 249 m 433 -343 l 428 -343 q 353 -312 383 -343 q 322 -240 322 -282 q 353 -167 322 -197 q 428 -137 383 -137 l 433 -137 q 508 -167 478 -137 q 539 -240 539 -197 q 508 -312 539 -282 q 433 -343 478 -343 z "},"Ụ":{"ha":1004,"x_min":93,"x_max":911,"o":"m 503 -21 q 330 8 407 -21 q 201 88 253 38 q 121 206 149 138 q 93 354 93 275 l 93 978 l 318 978 l 318 361 q 369 222 318 269 q 503 174 419 174 q 636 222 586 174 q 686 361 686 269 l 686 978 l 911 978 l 911 354 q 883 206 911 275 q 803 88 856 138 q 675 8 751 38 q 503 -21 599 -21 m 513 -343 l 507 -343 q 432 -312 463 -343 q 401 -240 401 -282 q 432 -167 401 -197 q 507 -137 463 -137 l 513 -137 q 588 -167 557 -137 q 618 -240 618 -197 q 588 -312 618 -282 q 513 -343 557 -343 z "},"ụ":{"ha":863,"x_min":78,"x_max":775,"o":"m 557 300 l 557 733 l 775 733 l 775 0 l 571 0 l 571 111 l 569 111 q 483 14 542 47 q 349 -19 424 -19 q 154 60 231 -19 q 78 272 78 139 l 78 733 l 296 733 l 296 299 q 336 197 296 231 q 425 164 376 164 q 516 197 475 164 q 557 300 557 231 m 401 -343 l 396 -343 q 321 -312 351 -343 q 290 -240 290 -282 q 321 -167 290 -197 q 396 -137 351 -137 l 401 -137 q 476 -167 446 -137 q 507 -240 507 -197 q 476 -312 507 -282 q 401 -343 446 -343 z "},"Ỳ":{"ha":897,"x_min":0,"x_max":914,"o":"m 343 0 l 343 364 l 0 978 l 243 978 l 457 582 l 460 582 l 674 978 l 914 978 l 568 364 l 568 0 l 343 0 m 450 1276 l 535 1071 l 368 1071 l 224 1276 l 450 1276 z "},"ỳ":{"ha":772,"x_min":3,"x_max":769,"o":"m 489 -42 q 369 -216 443 -167 q 186 -265 294 -265 l 11 -265 l 11 -90 l 175 -90 q 229 -78 207 -90 q 265 -26 251 -65 l 282 22 l 3 733 l 243 733 l 397 267 l 399 267 l 551 733 l 769 733 l 489 -42 m 401 1032 l 486 826 l 319 826 l 175 1032 l 401 1032 z "},"Ỹ":{"ha":897,"x_min":0,"x_max":914,"o":"m 343 0 l 343 364 l 0 978 l 243 978 l 457 582 l 460 582 l 674 978 l 914 978 l 568 364 l 568 0 l 343 0 m 543 1071 q 476 1084 503 1071 q 428 1113 449 1097 q 389 1142 407 1129 q 347 1156 371 1156 q 305 1139 318 1156 q 292 1089 292 1122 l 189 1089 l 189 1099 q 233 1230 189 1183 q 356 1276 276 1276 l 357 1276 q 426 1263 399 1276 q 475 1234 454 1250 q 515 1205 496 1218 q 560 1192 535 1192 q 601 1208 588 1192 q 614 1256 614 1225 l 717 1256 l 717 1247 q 672 1117 717 1164 q 544 1071 626 1071 l 543 1071 z "},"ỹ":{"ha":772,"x_min":3,"x_max":769,"o":"m 489 -42 q 369 -216 443 -167 q 186 -265 294 -265 l 11 -265 l 11 -90 l 175 -90 q 229 -78 207 -90 q 265 -26 251 -65 l 282 22 l 3 733 l 243 733 l 397 267 l 399 267 l 551 733 l 769 733 l 489 -42 m 494 826 q 427 840 454 826 q 379 869 400 853 q 340 898 358 885 q 299 911 322 911 q 256 894 269 911 q 243 844 243 878 l 140 844 l 140 854 q 184 985 140 939 q 307 1032 228 1032 l 308 1032 q 378 1019 350 1032 q 426 990 406 1006 q 467 960 447 974 q 511 947 486 947 q 552 964 539 947 q 565 1011 565 981 l 668 1011 l 668 1003 q 623 873 668 919 q 496 826 578 826 l 494 826 z "}," ":{"ha":894,"x_min":0,"x_max":0,"o":""}," ":{"ha":413,"x_min":0,"x_max":0,"o":""}," ":{"ha":97,"x_min":0,"x_max":0,"o":""},"–":{"ha":906,"x_min":74,"x_max":832,"o":"m 74 482 l 832 482 l 832 310 l 74 310 l 74 482 z "},"—":{"ha":1436,"x_min":74,"x_max":1363,"o":"m 74 482 l 1363 482 l 1363 310 l 74 310 l 74 482 z "},"―":{"ha":1436,"x_min":74,"x_max":1363,"o":"m 74 482 l 1363 482 l 1363 310 l 74 310 l 74 482 z "},"‘":{"ha":411,"x_min":56,"x_max":356,"o":"m 174 979 l 356 979 l 269 558 l 56 558 l 174 979 z "},"’":{"ha":411,"x_min":61,"x_max":361,"o":"m 243 557 l 61 557 l 147 978 l 361 978 l 243 557 z "},"‚":{"ha":408,"x_min":36,"x_max":344,"o":"m 224 -201 l 36 -201 l 125 232 l 344 232 l 224 -201 z "},"“":{"ha":750,"x_min":56,"x_max":694,"o":"m 174 978 l 356 978 l 269 557 l 56 557 l 174 978 m 513 978 l 694 978 l 608 557 l 394 557 l 513 978 z "},"”":{"ha":750,"x_min":56,"x_max":694,"o":"m 576 557 l 394 557 l 481 978 l 694 978 l 576 557 m 238 557 l 56 557 l 142 978 l 356 978 l 238 557 z "},"„":{"ha":739,"x_min":36,"x_max":675,"o":"m 557 -189 l 375 -189 l 461 232 l 675 232 l 557 -189 m 218 -189 l 36 -189 l 122 232 l 336 232 l 218 -189 z "},"†":{"ha":828,"x_min":97,"x_max":731,"o":"m 731 796 l 731 624 l 518 624 l 518 207 l 310 207 l 310 624 l 97 624 l 97 796 l 310 796 l 310 978 l 518 978 l 518 796 l 731 796 z "},"‡":{"ha":828,"x_min":97,"x_max":731,"o":"m 310 94 l 310 276 l 97 276 l 97 447 l 310 447 l 310 631 l 97 631 l 97 801 l 310 801 l 310 978 l 518 978 l 518 801 l 731 801 l 731 631 l 518 631 l 518 447 l 731 447 l 731 276 l 518 276 l 518 94 l 310 94 z "},"•":{"ha":686,"x_min":83,"x_max":603,"o":"m 351 190 l 338 190 q 238 210 285 190 q 156 265 190 231 q 103 347 122 300 q 83 444 83 393 q 103 544 83 497 q 156 624 122 590 q 238 678 190 658 q 338 697 285 697 l 351 697 q 450 678 404 697 q 530 624 496 658 q 583 544 564 590 q 603 444 603 497 q 583 347 603 393 q 530 265 564 300 q 450 210 496 231 q 351 190 404 190 z "},"…":{"ha":1275,"x_min":63,"x_max":1213,"o":"m 207 -14 q 105 28 147 -14 q 63 131 63 71 q 105 233 63 190 q 207 275 147 275 q 309 233 267 275 q 351 131 351 190 q 309 28 351 71 q 207 -14 267 -14 m 638 -14 q 535 28 578 -14 q 493 131 493 71 q 535 233 493 190 q 638 275 578 275 q 740 233 697 275 q 782 131 782 190 q 740 28 782 71 q 638 -14 697 -14 m 1068 -14 q 966 28 1008 -14 q 924 131 924 71 q 966 233 924 190 q 1068 275 1008 275 q 1170 233 1128 275 q 1213 131 1213 190 q 1170 28 1213 71 q 1068 -14 1128 -14 z "},"‰":{"ha":1958,"x_min":56,"x_max":1903,"o":"m 328 440 q 129 516 203 440 q 56 718 56 592 q 129 922 56 846 q 328 997 203 997 q 526 922 453 997 q 600 718 600 846 q 526 516 600 592 q 328 440 453 440 m 240 0 l 585 486 l 929 978 l 1124 978 l 776 486 l 435 0 l 240 0 m 328 594 q 404 628 376 594 q 432 718 432 661 q 404 810 432 776 q 328 843 376 843 q 251 810 279 843 q 224 718 224 776 q 251 628 224 661 q 328 594 279 594 m 1632 -22 q 1433 53 1507 -22 q 1360 256 1360 129 q 1433 459 1360 383 q 1632 535 1507 535 q 1829 459 1756 535 q 1903 256 1903 383 q 1829 53 1903 129 q 1632 -22 1756 -22 m 1035 -22 q 836 53 910 -22 q 763 256 763 129 q 836 459 763 383 q 1035 535 910 535 q 1232 459 1158 535 q 1306 256 1306 383 q 1232 53 1306 129 q 1035 -22 1158 -22 m 1632 132 q 1707 165 1679 132 q 1735 256 1735 199 q 1707 347 1735 314 q 1632 381 1679 381 q 1556 347 1583 381 q 1528 256 1528 314 q 1556 165 1528 199 q 1632 132 1583 132 m 1035 132 q 1110 165 1082 132 q 1138 256 1138 199 q 1110 347 1138 314 q 1035 381 1082 381 q 958 347 986 381 q 931 256 931 314 q 958 165 931 199 q 1035 132 986 132 z "},"‹":{"ha":576,"x_min":33,"x_max":515,"o":"m 292 81 l 33 388 l 292 696 l 515 696 l 265 388 l 515 81 l 292 81 z "},"›":{"ha":576,"x_min":61,"x_max":543,"o":"m 285 696 l 543 389 l 285 81 l 61 81 l 311 389 l 61 696 l 285 696 z "},"⁂":{"ha":1467,"x_min":90,"x_max":1376,"o":"m 794 464 l 671 464 l 674 619 l 542 539 l 479 646 l 617 721 l 479 796 l 542 904 l 674 822 l 671 978 l 794 978 l 792 822 l 925 904 l 988 796 l 850 721 l 988 646 l 925 539 l 792 621 l 794 464 m 406 -21 l 282 -21 l 285 135 l 153 54 l 90 161 l 228 236 l 90 311 l 153 419 l 285 338 l 282 493 l 406 493 l 403 338 l 536 419 l 599 311 l 461 236 l 599 161 l 536 54 l 403 136 l 406 -21 m 1183 -21 l 1060 -21 l 1063 135 l 931 54 l 868 161 l 1006 236 l 868 311 l 931 419 l 1063 338 l 1060 493 l 1183 493 l 1181 338 l 1314 419 l 1376 311 l 1239 236 l 1376 161 l 1314 54 l 1181 136 l 1183 -21 z "},"⁄":{"ha":390,"x_min":-236,"x_max":626,"o":"m -236 0 l 458 978 l 626 978 l -68 0 l -236 0 z "},"⁑":{"ha":689,"x_min":90,"x_max":599,"o":"m 406 519 l 282 519 l 285 675 l 153 594 l 90 701 l 228 776 l 90 851 l 153 960 l 285 878 l 282 1033 l 406 1033 l 403 878 l 536 960 l 599 851 l 461 776 l 599 701 l 536 594 l 403 676 l 406 519 m 406 -76 l 282 -76 l 285 79 l 153 -1 l 90 106 l 228 181 l 90 256 l 153 364 l 285 282 l 282 438 l 406 438 l 403 282 l 536 364 l 599 256 l 461 181 l 599 106 l 536 -1 l 403 81 l 406 -76 z "},"₦":{"ha":1042,"x_min":56,"x_max":986,"o":"m 172 0 l 172 442 l 56 442 l 56 567 l 172 567 l 172 978 l 485 978 l 583 567 l 683 567 l 683 978 l 869 978 l 869 567 l 986 567 l 986 442 l 869 442 l 869 0 l 558 0 l 447 442 l 349 442 l 349 0 l 172 0 m 338 567 l 426 567 l 346 851 l 338 567 m 600 442 l 686 122 l 696 442 l 600 442 z "},"₩":{"ha":1600,"x_min":56,"x_max":1544,"o":"m 1544 325 l 1317 325 l 1232 0 l 994 0 l 924 325 l 683 325 l 603 0 l 368 0 l 283 325 l 56 325 l 56 450 l 250 450 l 221 558 l 56 558 l 56 683 l 189 683 l 111 978 l 300 978 l 367 683 l 622 683 l 692 978 l 922 978 l 989 683 l 1242 683 l 1310 978 l 1489 978 l 1411 683 l 1544 683 l 1544 558 l 1379 558 l 1350 450 l 1544 450 l 1544 325 m 810 829 l 774 683 l 844 683 l 813 829 l 810 829 m 421 450 l 567 450 l 592 558 l 396 558 l 421 450 m 715 450 l 896 450 l 872 558 l 742 558 l 715 450 m 1043 450 l 1189 450 l 1214 558 l 1018 558 l 1043 450 m 490 143 l 493 143 l 536 325 l 449 325 l 490 143 m 1114 139 l 1117 139 l 1160 325 l 1071 325 l 1114 139 z "},"₪":{"ha":1142,"x_min":106,"x_max":1036,"o":"m 106 0 l 106 978 l 456 978 q 699 899 613 978 q 786 681 786 821 l 786 282 l 606 282 l 606 646 q 567 757 606 717 q 454 797 529 797 l 286 797 l 286 0 l 106 0 m 1036 978 l 1036 0 l 686 0 q 442 78 529 0 q 356 297 356 157 l 356 696 l 536 696 l 536 332 q 574 221 536 261 q 688 181 613 181 l 856 181 l 856 978 l 1036 978 z "},"€":{"ha":1057,"x_min":28,"x_max":994,"o":"m 588 163 q 722 208 679 163 q 774 308 764 253 l 994 308 q 865 71 969 161 q 596 -19 760 -19 q 318 69 419 -19 q 181 299 217 158 l 28 299 l 28 449 l 160 449 q 158 469 158 458 q 158 489 158 479 q 158 512 158 500 q 160 535 158 524 l 28 535 l 28 685 l 182 685 q 321 911 219 824 q 596 999 422 999 q 746 975 678 999 q 865 909 814 951 q 948 809 915 867 q 992 683 981 751 l 768 683 q 713 779 758 742 q 588 817 668 817 q 464 783 513 817 q 393 685 415 749 l 622 685 l 622 535 l 372 535 l 372 449 l 622 449 l 622 299 l 392 299 q 463 197 414 232 q 588 163 513 163 z "},"₴":{"ha":914,"x_min":56,"x_max":858,"o":"m 858 539 l 56 539 l 56 664 l 563 664 q 574 692 569 678 q 578 725 578 707 q 548 806 578 769 q 447 842 518 842 q 353 813 383 842 q 322 739 322 783 l 106 739 q 130 839 107 792 q 196 922 153 886 q 302 978 239 957 q 446 999 365 999 q 594 978 529 999 q 704 925 660 958 q 772 846 749 892 q 796 749 796 800 q 791 703 796 724 q 778 664 786 682 l 858 664 l 858 539 m 858 333 l 332 333 q 315 302 321 319 q 310 264 310 285 q 344 176 310 213 q 454 140 379 140 q 559 170 519 140 q 599 260 599 200 l 815 260 q 789 146 815 197 q 716 58 763 94 q 603 1 669 21 q 458 -19 538 -19 q 193 52 293 -19 q 93 240 93 124 q 99 291 93 268 q 115 333 106 314 l 56 333 l 56 458 l 858 458 l 858 333 z "},"₸":{"ha":867,"x_min":61,"x_max":806,"o":"m 806 978 l 806 797 l 61 797 l 61 978 l 806 978 m 329 519 l 61 519 l 61 700 l 806 700 l 806 519 l 538 519 l 538 0 l 329 0 l 329 519 z "},"₹":{"ha":878,"x_min":71,"x_max":829,"o":"m 71 339 l 71 482 l 318 482 q 415 506 376 482 q 468 578 454 531 l 71 578 l 71 722 l 468 722 q 415 793 454 769 q 318 817 376 817 l 71 817 l 71 978 l 829 978 l 829 833 l 597 833 q 645 783 625 811 q 676 722 665 754 l 829 722 l 829 578 l 688 578 q 584 409 669 476 q 353 339 499 342 l 746 0 l 457 0 l 71 339 z "},"₺":{"ha":946,"x_min":69,"x_max":890,"o":"m 733 514 l 417 356 l 417 196 q 588 251 531 199 q 656 369 646 304 l 890 369 q 735 102 864 204 q 414 0 607 0 l 199 0 l 199 246 l 69 181 l 69 347 l 199 413 l 199 507 l 69 442 l 69 608 l 199 674 l 199 978 l 417 978 l 417 783 l 733 942 l 733 775 l 417 617 l 417 522 l 733 681 l 733 514 z "},"₽":{"ha":951,"x_min":53,"x_max":910,"o":"m 165 0 l 165 197 l 53 197 l 53 342 l 165 342 l 165 433 l 53 433 l 53 578 l 165 578 l 165 978 l 571 978 q 717 957 654 978 q 824 899 781 936 q 888 813 867 863 q 910 706 910 763 q 888 599 910 649 q 824 512 867 549 q 719 454 782 475 q 575 433 657 433 l 575 433 l 376 433 l 376 342 l 756 342 l 756 197 l 376 197 l 376 0 l 165 0 m 696 699 l 696 713 q 661 792 696 765 q 564 819 626 819 l 376 819 l 376 578 l 564 578 q 661 608 626 578 q 696 699 696 639 z "},"₿":{"ha":978,"x_min":106,"x_max":922,"o":"m 106 0 l 106 978 l 265 978 l 265 1158 l 407 1158 l 407 978 l 501 978 l 501 1158 l 643 1158 l 643 974 q 825 891 756 958 q 894 719 894 824 q 853 588 894 640 q 744 513 813 535 l 744 511 q 872 431 822 489 q 922 282 922 374 q 844 86 922 160 q 643 1 765 13 l 643 -179 l 501 -179 l 501 0 l 407 0 l 407 -179 l 265 -179 l 265 0 l 106 0 m 671 685 l 671 699 q 644 766 671 740 q 567 792 618 792 l 328 792 l 328 592 l 567 592 q 644 617 618 592 q 671 685 671 642 m 697 293 l 697 307 q 666 387 697 358 q 576 415 635 415 l 328 415 l 328 189 l 579 189 q 668 219 639 189 q 697 293 697 250 z "},"№":{"ha":1878,"x_min":107,"x_max":1831,"o":"m 1451 254 q 1283 285 1356 254 q 1165 366 1211 315 q 1095 485 1118 417 q 1072 626 1072 553 q 1095 768 1072 700 q 1165 887 1118 836 q 1283 968 1211 938 q 1451 999 1356 999 q 1619 968 1547 999 q 1738 886 1692 938 q 1808 767 1785 835 q 1831 626 1831 700 q 1808 485 1831 553 q 1738 366 1785 417 q 1619 285 1692 315 q 1451 254 1547 254 m 107 0 l 107 978 l 364 978 l 756 340 l 757 340 l 757 978 l 971 978 l 971 0 l 729 0 l 326 668 l 325 668 l 325 0 l 107 0 m 1613 604 l 1613 646 q 1566 774 1613 729 q 1451 819 1519 819 q 1337 774 1383 819 q 1290 646 1290 728 l 1290 604 q 1337 476 1290 522 q 1451 431 1383 431 q 1566 476 1519 431 q 1613 604 1613 521 m 1225 0 l 1225 172 l 1678 172 l 1678 0 l 1225 0 z "},"™":{"ha":1428,"x_min":31,"x_max":1343,"o":"m 226 436 l 226 840 l 31 840 l 31 978 l 569 978 l 569 840 l 374 840 l 374 436 l 226 436 m 647 436 l 647 978 l 868 978 l 993 682 l 1003 682 l 1122 978 l 1343 978 l 1343 436 l 1175 436 l 1175 744 l 1165 744 l 1035 436 l 947 436 l 814 738 l 806 738 l 806 436 l 647 436 z "},"⅓":{"ha":1372,"x_min":69,"x_max":1303,"o":"m 211 403 l 211 760 l 69 760 l 69 876 l 211 876 l 211 978 l 353 978 l 353 403 l 211 403 m 219 0 l 914 978 l 1082 978 l 388 0 l 219 0 m 1160 167 l 1160 175 q 1139 224 1160 204 q 1079 243 1118 243 l 985 243 l 985 342 l 1119 458 l 889 458 l 889 575 l 1278 575 l 1278 458 l 1143 342 l 1143 340 q 1259 283 1215 328 q 1303 167 1303 239 q 1244 39 1303 89 q 1078 -11 1185 -11 q 922 40 978 -11 q 863 165 865 90 l 1001 165 q 1021 120 1004 140 q 1081 100 1038 100 q 1141 119 1122 100 q 1160 167 1160 139 z "},"⅔":{"ha":1463,"x_min":69,"x_max":1393,"o":"m 74 403 l 74 507 q 101 601 74 563 q 190 672 128 639 l 289 726 q 338 765 326 746 q 349 803 349 785 l 349 810 q 333 856 349 836 q 281 876 317 876 q 228 860 249 876 q 206 804 207 843 l 69 804 q 132 941 74 892 q 281 990 190 990 q 435 936 381 990 q 489 810 489 882 q 458 709 489 754 q 358 625 428 664 l 242 560 q 218 541 224 550 q 213 521 213 532 l 496 521 l 496 403 l 74 403 m 310 0 l 1004 978 l 1172 978 l 478 0 l 310 0 m 1250 167 l 1250 175 q 1229 224 1250 204 q 1169 243 1208 243 l 1075 243 l 1075 342 l 1210 458 l 979 458 l 979 575 l 1368 575 l 1368 458 l 1233 342 l 1233 340 q 1349 283 1306 328 q 1393 167 1393 239 q 1334 39 1393 89 q 1168 -11 1275 -11 q 1012 40 1068 -11 q 953 165 956 90 l 1092 165 q 1111 120 1094 140 q 1171 100 1128 100 q 1231 119 1213 100 q 1250 167 1250 139 z "},"⅚":{"ha":1375,"x_min":69,"x_max":1303,"o":"m 93 638 l 93 978 l 481 978 l 481 861 l 215 861 l 215 738 q 269 785 238 772 q 335 797 300 797 q 461 744 410 797 q 513 600 513 692 q 451 451 513 510 q 286 392 390 392 q 138 440 199 392 q 69 568 78 488 l 213 568 q 235 524 215 542 q 289 507 256 507 q 349 528 328 507 q 371 593 371 550 l 371 601 q 349 665 371 644 q 293 686 328 686 q 247 674 267 686 q 215 638 226 661 l 93 638 m 268 0 l 963 978 l 1131 978 l 436 0 l 268 0 m 1303 188 q 1239 44 1303 100 q 1075 -11 1175 -11 q 911 47 975 -11 q 847 192 847 104 q 863 290 847 249 q 913 379 879 332 l 1049 575 l 1211 575 l 1069 382 l 1071 382 q 1090 385 1079 383 q 1115 388 1100 388 q 1247 333 1190 388 q 1303 188 1303 278 m 990 196 l 990 186 q 1015 122 990 144 q 1078 99 1040 99 q 1138 122 1113 99 q 1163 186 1163 146 l 1163 196 q 1138 260 1163 236 q 1078 283 1114 283 q 1016 261 1042 283 q 990 196 990 239 z "},"⅛":{"ha":1372,"x_min":69,"x_max":1303,"o":"m 211 403 l 211 760 l 69 760 l 69 876 l 211 876 l 211 978 l 353 978 l 353 403 l 211 403 m 219 0 l 914 978 l 1082 978 l 388 0 l 219 0 m 1185 303 l 1185 301 q 1272 254 1240 292 q 1303 161 1303 217 q 1245 40 1303 92 q 1076 -11 1188 -11 q 908 40 965 -11 q 850 161 850 92 q 881 254 850 217 q 968 301 913 292 l 968 303 q 893 345 921 313 q 865 428 865 378 q 921 541 865 494 q 1076 588 976 588 q 1232 541 1176 588 q 1288 428 1288 494 q 1260 345 1288 378 q 1185 303 1232 313 m 1003 421 l 1003 410 q 1024 368 1003 385 q 1076 351 1044 351 q 1129 368 1108 351 q 1150 410 1150 385 l 1150 421 q 1131 461 1150 446 q 1076 476 1111 476 q 1022 461 1042 476 q 1003 421 1003 446 m 990 178 l 990 168 q 1013 117 990 138 q 1076 97 1036 97 q 1141 117 1118 97 q 1164 168 1164 138 l 1164 178 q 1141 228 1164 207 q 1076 250 1118 250 q 1013 228 1035 250 q 990 178 990 207 z "},"⅜":{"ha":1392,"x_min":69,"x_max":1322,"o":"m 367 569 l 367 578 q 346 626 367 607 q 286 646 325 646 l 192 646 l 192 744 l 326 861 l 96 861 l 96 978 l 485 978 l 485 861 l 350 744 l 350 743 q 466 686 422 731 q 510 569 510 642 q 451 442 510 492 q 285 392 392 392 q 128 442 185 392 q 69 568 72 493 l 208 568 q 228 523 211 543 q 288 503 244 503 q 348 522 329 503 q 367 569 367 542 m 267 0 l 961 978 l 1129 978 l 435 0 l 267 0 m 1204 303 l 1204 301 q 1291 254 1260 292 q 1322 161 1322 217 q 1265 40 1322 92 q 1096 -11 1207 -11 q 927 40 985 -11 q 869 161 869 92 q 901 254 869 217 q 988 301 932 292 l 988 303 q 913 345 940 313 q 885 428 885 378 q 940 541 885 494 q 1096 588 996 588 q 1251 541 1196 588 q 1307 428 1307 494 q 1279 345 1307 378 q 1204 303 1251 313 m 1022 421 l 1022 410 q 1043 368 1022 385 q 1096 351 1064 351 q 1149 368 1128 351 q 1169 410 1169 385 l 1169 421 q 1150 461 1169 446 q 1096 476 1131 476 q 1042 461 1061 476 q 1022 421 1022 446 m 1010 178 l 1010 168 q 1033 117 1010 138 q 1096 97 1056 97 q 1160 117 1138 97 q 1183 168 1183 138 l 1183 178 q 1160 228 1183 207 q 1096 250 1138 250 q 1032 228 1054 250 q 1010 178 1010 207 z "},"⅝":{"ha":1393,"x_min":69,"x_max":1324,"o":"m 93 638 l 93 978 l 481 978 l 481 861 l 215 861 l 215 738 q 269 785 238 772 q 335 797 300 797 q 461 744 410 797 q 513 600 513 692 q 451 451 513 510 q 286 392 390 392 q 138 440 199 392 q 69 568 78 488 l 213 568 q 235 524 215 542 q 289 507 256 507 q 349 528 328 507 q 371 593 371 550 l 371 601 q 349 665 371 644 q 293 686 328 686 q 247 674 267 686 q 215 638 226 661 l 93 638 m 268 0 l 963 978 l 1131 978 l 436 0 l 268 0 m 1206 303 l 1206 301 q 1292 254 1261 292 q 1324 161 1324 217 q 1266 40 1324 92 q 1097 -11 1208 -11 q 928 40 986 -11 q 871 161 871 92 q 902 254 871 217 q 989 301 933 292 l 989 303 q 914 345 942 313 q 886 428 886 378 q 942 541 886 494 q 1097 588 997 588 q 1253 541 1197 588 q 1308 428 1308 494 q 1281 345 1308 378 q 1206 303 1253 313 m 1024 421 l 1024 410 q 1044 368 1024 385 q 1097 351 1065 351 q 1150 368 1129 351 q 1171 410 1171 385 l 1171 421 q 1151 461 1171 446 q 1097 476 1132 476 q 1043 461 1063 476 q 1024 421 1024 446 m 1011 178 l 1011 168 q 1034 117 1011 138 q 1097 97 1057 97 q 1162 117 1139 97 q 1185 168 1185 138 l 1185 178 q 1162 228 1185 207 q 1097 250 1139 250 q 1033 228 1056 250 q 1011 178 1011 207 z "},"⅞":{"ha":1324,"x_min":69,"x_max":1254,"o":"m 103 403 l 342 858 l 69 858 l 69 978 l 492 978 l 492 867 l 253 403 l 103 403 m 171 0 l 865 978 l 1033 978 l 339 0 l 171 0 m 1136 303 l 1136 301 q 1223 254 1192 292 q 1254 161 1254 217 q 1197 40 1254 92 q 1028 -11 1139 -11 q 859 40 917 -11 q 801 161 801 92 q 833 254 801 217 q 919 301 864 292 l 919 303 q 844 345 872 313 q 817 428 817 378 q 872 541 817 494 q 1028 588 928 588 q 1183 541 1128 588 q 1239 428 1239 494 q 1211 345 1239 378 q 1136 303 1183 313 m 954 421 l 954 410 q 975 368 954 385 q 1028 351 996 351 q 1081 368 1060 351 q 1101 410 1101 385 l 1101 421 q 1082 461 1101 446 q 1028 476 1063 476 q 974 461 993 476 q 954 421 954 446 m 942 178 l 942 168 q 965 117 942 138 q 1028 97 988 97 q 1092 117 1069 97 q 1115 168 1115 138 l 1115 178 q 1092 228 1115 207 q 1028 250 1069 250 q 964 228 986 250 q 942 178 942 207 z "},"←":{"ha":1154,"x_min":61,"x_max":1063,"o":"m 1063 546 l 1063 332 l 442 332 l 746 28 l 472 28 l 61 439 l 472 850 l 746 850 l 442 546 l 1063 546 z "},"↑":{"ha":989,"x_min":83,"x_max":906,"o":"m 601 -1 l 388 -1 l 388 619 l 83 315 l 83 589 l 494 1000 l 906 589 l 906 315 l 601 619 l 601 -1 z "},"→":{"ha":1154,"x_min":92,"x_max":1093,"o":"m 92 335 l 92 549 l 713 549 l 408 853 l 682 853 l 1093 442 l 682 31 l 408 31 l 713 335 l 92 335 z "},"↓":{"ha":989,"x_min":83,"x_max":906,"o":"m 388 978 l 601 978 l 601 357 l 906 661 l 906 388 l 494 -24 l 83 388 l 83 661 l 388 357 l 388 978 z "},"↖":{"ha":1017,"x_min":146,"x_max":929,"o":"m 929 157 l 778 6 l 339 444 l 339 14 l 146 208 l 146 789 l 726 789 l 919 596 l 490 596 l 929 157 z "},"↗":{"ha":1017,"x_min":88,"x_max":871,"o":"m 88 157 l 526 596 l 97 596 l 290 789 l 871 789 l 871 208 l 678 14 l 678 444 l 239 6 l 88 157 z "},"↘":{"ha":1017,"x_min":88,"x_max":871,"o":"m 88 665 l 239 817 l 678 378 l 678 808 l 871 614 l 871 33 l 290 33 l 97 226 l 526 226 l 88 665 z "},"↙":{"ha":1017,"x_min":146,"x_max":929,"o":"m 929 667 l 490 228 l 919 228 l 726 35 l 146 35 l 146 615 l 339 810 l 339 379 l 778 818 l 929 667 z "},"−":{"ha":911,"x_min":69,"x_max":842,"o":"m 69 354 l 69 535 l 842 535 l 842 354 l 69 354 z "},"≈":{"ha":911,"x_min":69,"x_max":842,"o":"m 69 489 q 124 681 69 604 q 303 758 178 758 q 402 740 363 758 q 472 699 442 721 q 528 658 501 676 q 590 639 556 639 q 658 671 640 639 q 678 739 676 703 l 842 739 q 828 632 842 682 q 785 545 814 582 q 713 488 757 508 q 608 467 668 467 q 514 486 554 467 q 442 528 474 506 q 380 571 410 551 q 317 590 350 590 q 251 557 269 590 q 232 489 233 524 l 69 489 m 69 147 q 124 340 69 263 q 303 417 178 417 q 402 398 363 417 q 472 357 442 379 q 528 316 501 335 q 590 297 556 297 q 658 329 640 297 q 678 397 676 361 l 842 397 q 828 290 842 340 q 785 203 814 240 q 713 146 757 167 q 608 125 668 125 q 514 144 554 125 q 442 187 474 164 q 380 229 410 210 q 317 249 350 249 q 251 215 269 249 q 232 147 233 182 l 69 147 z "},"≠":{"ha":911,"x_min":69,"x_max":842,"o":"m 171 0 l 239 172 l 69 172 l 69 353 l 310 353 l 379 533 l 69 533 l 69 714 l 450 714 l 518 886 l 713 886 l 644 714 l 842 714 l 842 533 l 574 533 l 504 353 l 842 353 l 842 172 l 433 172 l 365 0 l 171 0 z "},"≤":{"ha":911,"x_min":56,"x_max":800,"o":"m 800 275 l 56 488 l 56 679 l 800 894 l 800 693 l 339 586 l 800 476 l 800 275 m 69 35 l 69 215 l 800 215 l 800 35 l 69 35 z "},"≥":{"ha":911,"x_min":111,"x_max":856,"o":"m 111 275 l 111 476 l 572 586 l 111 693 l 111 894 l 856 679 l 856 488 l 111 275 m 842 35 l 111 35 l 111 215 l 842 215 l 842 35 z "},"①":{"ha":1100,"x_min":42,"x_max":1058,"o":"m 1058 490 q 1017 278 1058 374 q 907 117 976 183 q 745 16 838 51 q 550 -19 653 -19 q 355 16 447 -19 q 193 117 263 51 q 83 278 124 183 q 42 490 42 374 q 83 702 42 607 q 193 863 124 797 q 355 963 263 928 q 550 999 447 999 q 745 963 653 999 q 907 863 838 928 q 1017 702 976 797 q 1058 490 1058 607 m 167 490 q 197 326 167 400 q 280 202 228 253 q 402 124 332 151 q 550 97 472 97 q 698 124 628 97 q 820 202 768 151 q 903 326 872 253 q 933 490 933 400 q 903 653 933 581 q 820 776 872 725 q 698 854 768 826 q 550 882 628 882 q 402 854 472 882 q 280 776 332 826 q 197 653 228 725 q 167 490 167 581 m 504 206 l 504 563 l 363 563 l 363 679 l 504 679 l 504 781 l 646 781 l 646 206 l 504 206 z "},"②":{"ha":1100,"x_min":42,"x_max":1058,"o":"m 1058 490 q 1017 278 1058 374 q 907 117 976 183 q 745 16 838 51 q 550 -19 653 -19 q 355 16 447 -19 q 193 117 263 51 q 83 278 124 183 q 42 490 42 374 q 83 702 42 607 q 193 863 124 797 q 355 963 263 928 q 550 999 447 999 q 745 963 653 999 q 907 863 838 928 q 1017 702 976 797 q 1058 490 1058 607 m 167 490 q 197 326 167 400 q 280 202 228 253 q 402 124 332 151 q 550 97 472 97 q 698 124 628 97 q 820 202 768 151 q 903 326 872 253 q 933 490 933 400 q 903 653 933 581 q 820 776 872 725 q 698 854 768 826 q 550 882 628 882 q 402 854 472 882 q 280 776 332 826 q 197 653 228 725 q 167 490 167 581 m 342 206 l 342 310 q 369 403 342 365 q 458 475 396 442 l 557 529 q 606 568 594 549 q 617 606 617 588 l 617 613 q 601 659 617 639 q 549 679 585 679 q 496 663 517 679 q 474 607 475 646 l 338 607 q 400 744 342 694 q 549 793 458 793 q 703 739 649 793 q 757 613 757 685 q 726 512 757 557 q 626 428 696 467 l 510 363 q 486 345 492 353 q 481 326 481 338 l 481 324 l 764 324 l 764 206 l 342 206 z "},"③":{"ha":1100,"x_min":42,"x_max":1058,"o":"m 1058 490 q 1017 278 1058 374 q 907 117 976 183 q 745 16 838 51 q 550 -19 653 -19 q 355 16 447 -19 q 193 117 263 51 q 83 278 124 183 q 42 490 42 374 q 83 702 42 607 q 193 863 124 797 q 355 963 263 928 q 550 999 447 999 q 745 963 653 999 q 907 863 838 928 q 1017 702 976 797 q 1058 490 1058 607 m 167 490 q 197 326 167 400 q 280 202 228 253 q 402 124 332 151 q 550 97 472 97 q 698 124 628 97 q 820 202 768 151 q 903 326 872 253 q 933 490 933 400 q 903 653 933 581 q 820 776 872 725 q 698 854 768 826 q 550 882 628 882 q 402 854 472 882 q 280 776 332 826 q 197 653 228 725 q 167 490 167 581 m 628 372 l 628 381 q 607 429 628 410 q 547 449 586 449 l 453 449 l 453 547 l 588 664 l 357 664 l 357 781 l 746 781 l 746 664 l 611 547 l 611 546 q 727 489 683 533 q 771 372 771 444 q 712 244 771 294 q 546 194 653 194 q 390 245 446 194 q 331 371 333 296 l 469 371 q 489 326 472 346 q 549 306 506 306 q 609 325 590 306 q 628 372 628 344 z "},"④":{"ha":1100,"x_min":42,"x_max":1058,"o":"m 1058 490 q 1017 278 1058 374 q 907 117 976 183 q 745 16 838 51 q 550 -19 653 -19 q 355 16 447 -19 q 193 117 263 51 q 83 278 124 183 q 42 490 42 374 q 83 702 42 607 q 193 863 124 797 q 355 963 263 928 q 550 999 447 999 q 745 963 653 999 q 907 863 838 928 q 1017 702 976 797 q 1058 490 1058 607 m 167 490 q 197 326 167 400 q 280 202 228 253 q 402 124 332 151 q 550 97 472 97 q 698 124 628 97 q 820 202 768 151 q 903 326 872 253 q 933 490 933 400 q 903 653 933 581 q 820 776 872 725 q 698 854 768 826 q 550 882 628 882 q 402 854 472 882 q 280 776 332 826 q 197 653 228 725 q 167 490 167 581 m 307 321 l 307 433 l 543 782 l 710 782 l 710 438 l 794 438 l 794 321 l 710 321 l 710 207 l 569 207 l 569 321 l 307 321 m 442 439 l 442 438 l 572 438 l 572 635 l 571 635 l 442 439 z "},"⑤":{"ha":1100,"x_min":42,"x_max":1058,"o":"m 1058 490 q 1017 278 1058 374 q 907 117 976 183 q 745 16 838 51 q 550 -19 653 -19 q 355 16 447 -19 q 193 117 263 51 q 83 278 124 183 q 42 490 42 374 q 83 702 42 607 q 193 863 124 797 q 355 963 263 928 q 550 999 447 999 q 745 963 653 999 q 907 863 838 928 q 1017 702 976 797 q 1058 490 1058 607 m 167 490 q 197 326 167 400 q 280 202 228 253 q 402 124 332 151 q 550 97 472 97 q 698 124 628 97 q 820 202 768 151 q 903 326 872 253 q 933 490 933 400 q 903 653 933 581 q 820 776 872 725 q 698 854 768 826 q 550 882 628 882 q 402 854 472 882 q 280 776 332 826 q 197 653 228 725 q 167 490 167 581 m 353 440 l 353 781 l 740 781 l 740 664 l 475 664 l 475 540 q 528 588 497 575 q 594 600 560 600 q 721 547 669 600 q 772 403 772 494 q 711 253 772 313 q 546 194 650 194 q 398 242 458 194 q 329 371 338 290 l 472 371 q 495 327 475 344 q 549 310 515 310 q 609 331 588 310 q 631 396 631 353 l 631 404 q 609 468 631 447 q 553 489 588 489 q 506 476 526 489 q 475 440 486 464 l 353 440 z "},"⑥":{"ha":1100,"x_min":42,"x_max":1058,"o":"m 1058 490 q 1017 278 1058 374 q 907 117 976 183 q 745 16 838 51 q 550 -19 653 -19 q 355 16 447 -19 q 193 117 263 51 q 83 278 124 183 q 42 490 42 374 q 83 702 42 607 q 193 863 124 797 q 355 963 263 928 q 550 999 447 999 q 745 963 653 999 q 907 863 838 928 q 1017 702 976 797 q 1058 490 1058 607 m 167 490 q 197 326 167 400 q 280 202 228 253 q 402 124 332 151 q 550 97 472 97 q 698 124 628 97 q 820 202 768 151 q 903 326 872 253 q 933 490 933 400 q 903 653 933 581 q 820 776 872 725 q 698 854 768 826 q 550 882 628 882 q 402 854 472 882 q 280 776 332 826 q 197 653 228 725 q 167 490 167 581 m 778 392 q 714 249 778 304 q 550 193 650 193 q 386 251 450 193 q 322 396 322 308 q 338 494 322 453 q 388 583 354 536 l 524 779 l 686 779 l 544 586 l 546 586 q 565 590 554 588 q 590 592 575 592 q 722 537 665 592 q 778 392 778 482 m 465 400 l 465 390 q 490 326 465 349 q 553 303 515 303 q 613 326 588 303 q 638 390 638 350 l 638 400 q 613 464 638 440 q 553 488 589 488 q 491 465 517 488 q 465 400 465 443 z "},"⑦":{"ha":1100,"x_min":42,"x_max":1058,"o":"m 1058 490 q 1017 278 1058 374 q 907 117 976 183 q 745 16 838 51 q 550 -19 653 -19 q 355 16 447 -19 q 193 117 263 51 q 83 278 124 183 q 42 490 42 374 q 83 702 42 607 q 193 863 124 797 q 355 963 263 928 q 550 999 447 999 q 745 963 653 999 q 907 863 838 928 q 1017 702 976 797 q 1058 490 1058 607 m 167 490 q 197 326 167 400 q 280 202 228 253 q 402 124 332 151 q 550 97 472 97 q 698 124 628 97 q 820 202 768 151 q 903 326 872 253 q 933 490 933 400 q 903 653 933 581 q 820 776 872 725 q 698 854 768 826 q 550 882 628 882 q 402 854 472 882 q 280 776 332 826 q 197 653 228 725 q 167 490 167 581 m 372 206 l 611 661 l 339 661 l 339 781 l 761 781 l 761 669 l 522 206 l 372 206 z "},"⑧":{"ha":1100,"x_min":42,"x_max":1058,"o":"m 1058 490 q 1017 278 1058 374 q 907 117 976 183 q 745 16 838 51 q 550 -19 653 -19 q 355 16 447 -19 q 193 117 263 51 q 83 278 124 183 q 42 490 42 374 q 83 702 42 607 q 193 863 124 797 q 355 963 263 928 q 550 999 447 999 q 745 963 653 999 q 907 863 838 928 q 1017 702 976 797 q 1058 490 1058 607 m 167 490 q 197 326 167 400 q 280 202 228 253 q 402 124 332 151 q 550 97 472 97 q 698 124 628 97 q 820 202 768 151 q 903 326 872 253 q 933 490 933 400 q 903 653 933 581 q 820 776 872 725 q 698 854 768 826 q 550 882 628 882 q 402 854 472 882 q 280 776 332 826 q 197 653 228 725 q 167 490 167 581 m 658 507 l 658 506 q 745 458 714 496 q 776 365 776 421 q 719 244 776 296 q 550 193 661 193 q 381 244 439 193 q 324 365 324 296 q 355 458 324 421 q 442 506 386 496 l 442 507 q 367 549 394 517 q 339 632 339 582 q 394 745 339 699 q 550 792 450 792 q 706 745 650 792 q 761 632 761 699 q 733 549 761 582 q 658 507 706 517 m 476 625 l 476 614 q 497 572 476 589 q 550 556 518 556 q 603 572 582 556 q 624 614 624 589 l 624 625 q 604 665 624 650 q 550 681 585 681 q 496 665 515 681 q 476 625 476 650 m 464 382 l 464 372 q 487 322 464 342 q 550 301 510 301 q 615 322 592 301 q 638 372 638 342 l 638 382 q 615 433 638 411 q 550 454 592 454 q 486 433 508 454 q 464 382 464 411 z "}}}
